<svg preserveAspectRatio="none" width="100%" height="100%" overflow="visible" style="display: block;" viewBox="0 0 301 301" fill="none" xmlns="http://www.w3.org/2000/svg">
<g id="Dashboard01">
<path id="Ellipse 9" d="M48.3373 252.663C45.9863 255.014 42.1648 255.022 39.9097 252.579C21.1361 232.24 8.30689 207.084 2.89188 179.861C-2.91519 150.667 0.0652095 120.406 11.4562 92.9061C22.8472 65.4059 42.1372 41.901 66.8867 25.3638C91.6363 8.82667 120.734 -3.54957e-07 150.5 0C180.266 3.54957e-07 209.364 8.82667 234.113 25.3638C258.863 41.901 278.153 65.4059 289.544 92.9061C300.935 120.406 303.915 150.667 298.108 179.861C292.693 207.084 279.864 232.24 261.09 252.579C258.835 255.022 255.014 255.014 252.663 252.663L245.213 245.213C242.863 242.862 242.874 239.06 245.112 236.601C260.738 219.431 271.423 198.3 275.967 175.457C280.903 150.642 278.37 124.92 268.687 101.545C259.005 78.17 242.609 58.1908 221.571 44.1342C200.534 30.0777 175.801 22.575 150.5 22.575C125.199 22.575 100.466 30.0777 79.4287 44.1342C58.3916 58.1908 41.9951 78.17 32.3128 101.545C22.6304 124.92 20.0971 150.642 25.0331 175.457C29.577 198.3 40.2626 219.431 55.888 236.601C58.1258 239.06 58.1376 242.862 55.7866 245.213L48.3373 252.663Z" fill="var(--fill-0, white)" fill-opacity="0.1"/>
<path id="Ellipse 11" d="M47.2731 253.727C45.5099 255.49 42.6452 255.494 40.9357 253.679C14.6812 225.801 6.89254e-05 188.908 6.77045e-05 150.5C6.64358e-05 110.585 15.8563 72.3047 44.0805 44.0804C72.3047 15.8562 110.585 4.28227e-06 150.5 0C188.908 -4.12053e-06 225.801 14.6811 253.679 40.9356C255.494 42.6452 255.49 45.5098 253.727 47.273L244.149 56.8508C242.386 58.614 239.532 58.607 237.708 56.907C214.071 34.8813 182.92 22.575 150.5 22.575C116.572 22.575 84.034 36.0528 60.0434 60.0434C36.0528 84.034 22.5751 116.572 22.5751 150.5C22.5751 182.92 34.8814 214.071 56.9071 237.708C58.607 239.532 58.6141 242.386 56.8508 244.149L47.2731 253.727Z" fill="url(#paint0_linear_0_4)"/>
<g id="Ellipse 10" filter="url(#filter0_d_0_4)">
<circle cx="150" cy="150" r="96" fill="var(--fill-0, white)" fill-opacity="0.01" shape-rendering="crispEdges"/>
</g>
<path id="Rectangle 1072" d="M239.007 55.5709C240.204 54.7276 241.834 54.8677 242.869 55.903C243.904 56.9382 244.044 58.5682 243.201 59.765L239.819 64.5641C238.38 66.6069 235.447 66.8591 233.68 65.0921C231.913 63.325 232.165 60.3919 234.208 58.9525L239.007 55.5709Z" fill="var(--fill-0, #26BC4B)"/>
</g>
<defs>
<filter id="filter0_d_0_4" x="23.9001" y="23.9" width="252.2" height="252.2" filterUnits="userSpaceOnUse" color-interpolation-filters="sRGB">
<feFlood flood-opacity="0" result="BackgroundImageFix"/>
<feColorMatrix in="SourceAlpha" type="matrix" values="0 0 0 0 0 0 0 0 0 0 0 0 0 0 0 0 0 0 127 0" result="hardAlpha"/>
<feOffset/>
<feGaussianBlur stdDeviation="15.05"/>
<feComposite in2="hardAlpha" operator="out"/>
<feColorMatrix type="matrix" values="0 0 0 0 1 0 0 0 0 1 0 0 0 0 1 0 0 0 0.2 0"/>
<feBlend mode="normal" in2="BackgroundImageFix" result="effect1_dropShadow_0_4"/>
<feBlend mode="normal" in="SourceGraphic" in2="effect1_dropShadow_0_4" result="shape"/>
</filter>
<linearGradient id="paint0_linear_0_4" x1="301" y1="150.5" x2="6.77045e-05" y2="150.5" gradientUnits="userSpaceOnUse">
<stop stop-color="#ED2020"/>
<stop offset="0.199318" stop-color="#ECB72C"/>
<stop offset="1" stop-color="#26BC4B"/>
</linearGradient>
</defs>
</svg>
