<svg width="20" height="20" viewBox="0 0 20 20" fill="none" xmlns="http://www.w3.org/2000/svg">
<g id="Notification Icon">
<path id="Vector" fill-rule="evenodd" clip-rule="evenodd" d="M8.58439 15.6367C8.14695 15.6367 7.81431 16.0445 8.04314 16.4172C8.44614 17.0738 9.17072 17.5117 9.99764 17.5117C10.8245 17.5117 11.5491 17.0738 11.9521 16.4172C12.181 16.0445 11.8483 15.6367 11.4109 15.6367C11.1325 15.6367 10.8934 15.8201 10.6841 16.0036C10.5008 16.1643 10.2606 16.2617 9.99764 16.2617C9.73464 16.2617 9.49447 16.1643 9.31114 16.0036C9.10189 15.8201 8.86272 15.6367 8.58439 15.6367Z" fill="#9BA29D"/>
<mask id="mask0_40000633_98403" style="mask-type:alpha" maskUnits="userSpaceOnUse" x="2" y="1" width="16" height="14">
<g id="path-3-inside-1_73_564">
<path id="Vector_2" fill-rule="evenodd" clip-rule="evenodd" d="M16.2474 9.04131C16.2474 6.55103 15.0113 4.22314 12.9483 2.82826L11.8645 2.09541C10.7366 1.33278 9.25823 1.33278 8.1303 2.09541L7.04645 2.82825C4.98348 4.22314 3.7474 6.55102 3.7474 9.04131V10.6362C3.23594 11.094 2.91406 11.7592 2.91406 12.4996C2.91406 13.8804 4.03335 14.9996 5.41406 14.9996H14.5807C15.9615 14.9996 17.0807 13.8804 17.0807 12.4996C17.0807 11.7592 16.7588 11.094 16.2474 10.6362V9.04131Z" fill="white"/>
</g>
</mask>
<g mask="url(#mask0_40000633_98403)">
<path id="Vector_3" d="M12.9483 2.82826L12.2481 3.86377L12.9483 2.82826ZM16.2474 9.04131H17.4974H16.2474ZM11.8645 2.09541L12.5646 1.0599L11.8645 2.09541ZM8.1303 2.09541L7.43015 1.0599L8.1303 2.09541ZM7.04645 2.82825L7.74661 3.86377L7.04645 2.82825ZM3.7474 9.04131H4.9974H3.7474ZM3.7474 10.6362L4.58104 11.5676L4.9974 11.195V10.6362H3.7474ZM16.2474 10.6362H14.9974V11.195L15.4137 11.5676L16.2474 10.6362ZM12.2481 3.86377C13.9673 5.02616 14.9974 6.96607 14.9974 9.04131H17.4974C17.4974 6.13598 16.0553 3.4201 13.6485 1.79274L12.2481 3.86377ZM11.1643 3.13092L12.2481 3.86377L13.6485 1.79274L12.5646 1.0599L11.1643 3.13092ZM8.83048 3.13092C9.5354 2.65428 10.4594 2.65428 11.1643 3.13092L12.5646 1.0599C11.0137 0.0112828 8.98106 0.0112825 7.43015 1.0599L8.83048 3.13092ZM7.74661 3.86377L8.83048 3.13092L7.43015 1.0599L6.3463 1.79274L7.74661 3.86377ZM4.9974 9.04131C4.9974 6.96607 6.02746 5.02616 7.74661 3.86377L6.3463 1.79274C3.93949 3.4201 2.4974 6.13598 2.4974 9.04131H4.9974ZM4.9974 10.6362V9.04131H2.4974V10.6362H4.9974ZM4.16406 12.4996C4.16406 12.1296 4.32331 11.7983 4.58104 11.5676L2.91375 9.70481C2.14856 10.3896 1.66406 11.3889 1.66406 12.4996H4.16406ZM5.41406 13.7496C4.7237 13.7496 4.16406 13.19 4.16406 12.4996H1.66406C1.66406 14.5707 3.343 16.2496 5.41406 16.2496V13.7496ZM14.5807 13.7496H5.41406V16.2496H14.5807V13.7496ZM15.8307 12.4996C15.8307 13.19 15.2711 13.7496 14.5807 13.7496V16.2496C16.6518 16.2496 18.3307 14.5707 18.3307 12.4996H15.8307ZM15.4137 11.5676C15.6715 11.7983 15.8307 12.1296 15.8307 12.4996H18.3307C18.3307 11.3889 17.8462 10.3896 17.0811 9.70481L15.4137 11.5676ZM14.9974 9.04131V10.6362H17.4974V9.04131H14.9974Z" fill="#9BA29D"/>
</g>
</g>
</svg>
