<svg preserveAspectRatio="none" width="100%" height="100%" overflow="visible" style="display: block;" viewBox="0 0 24 24" fill="none" xmlns="http://www.w3.org/2000/svg">
<g id="currency_bitcoin">
<mask id="mask0_0_49" style="mask-type:alpha" maskUnits="userSpaceOnUse" x="0" y="0" width="24" height="24">
<rect id="Bounding box" width="24" height="24" fill="var(--fill-0, #9BA29D)"/>
</mask>
<g mask="url(#mask0_0_49)">
<path id="currency_bitcoin_2" d="M9 21V19H6V17H8V7H6V5H9V3H11V5H13V3H15V5.125C15.8667 5.35833 16.5833 5.82917 17.15 6.5375C17.7167 7.24583 18 8.06667 18 9C18 9.48333 17.9167 9.94583 17.75 10.3875C17.5833 10.8292 17.35 11.225 17.05 11.575C17.6333 11.925 18.1042 12.4 18.4625 13C18.8208 13.6 19 14.2667 19 15C19 16.1 18.6083 17.0417 17.825 17.825C17.0417 18.6083 16.1 19 15 19V21H13V19H11V21H9ZM10 11H14C14.55 11 15.0208 10.8042 15.4125 10.4125C15.8042 10.0208 16 9.55 16 9C16 8.45 15.8042 7.97917 15.4125 7.5875C15.0208 7.19583 14.55 7 14 7H10V11ZM10 17H15C15.55 17 16.0208 16.8042 16.4125 16.4125C16.8042 16.0208 17 15.55 17 15C17 14.45 16.8042 13.9792 16.4125 13.5875C16.0208 13.1958 15.55 13 15 13H10V17Z" fill="var(--fill-0, #9BA29D)"/>
</g>
</g>
</svg>
