<svg width="24" height="24" viewBox="0 0 24 24" fill="none" xmlns="http://www.w3.org/2000/svg">
<g transform="translate(-12,-13)">
<g id="Icons">
<path id="Vector" d="M28.4984 22.75C28.0818 22.75 27.7276 22.6042 27.4359 22.3125C27.1443 22.0208 26.9984 21.6667 26.9984 21.25C26.9984 20.8333 27.1443 20.4792 27.4359 20.1875C27.7276 19.8958 28.0818 19.75 28.4984 19.75C28.9151 19.75 29.2693 19.8958 29.5609 20.1875C29.8526 20.4792 29.9984 20.8333 29.9984 21.25C29.9984 21.6667 29.8526 22.0208 29.5609 22.3125C29.2693 22.6042 28.9151 22.75 28.4984 22.75ZM19.4984 22.75C19.0818 22.75 18.7276 22.6042 18.4359 22.3125C18.1443 22.0208 17.9984 21.6667 17.9984 21.25C17.9984 20.8333 18.1443 20.4792 18.4359 20.1875C18.7276 19.8958 19.0818 19.75 19.4984 19.75C19.9151 19.75 20.2693 19.8958 20.5609 20.1875C20.8526 20.4792 20.9984 20.8333 20.9984 21.25C20.9984 21.6667 20.8526 22.0208 20.5609 22.3125C20.2693 22.6042 19.9151 22.75 19.4984 22.75ZM23.9984 25.5C23.5818 25.5 23.2276 25.3542 22.9359 25.0625C22.6443 24.7708 22.4984 24.4167 22.4984 24C22.4984 23.5833 22.6443 23.2292 22.9359 22.9375C23.2276 22.6458 23.5818 22.5 23.9984 22.5C24.4151 22.5 24.7693 22.6458 25.0609 22.9375C25.3526 23.2292 25.4984 23.5833 25.4984 24C25.4984 24.4167 25.3526 24.7708 25.0609 25.0625C24.7693 25.3542 24.4151 25.5 23.9984 25.5ZM23.9984 20C23.5818 20 23.2276 19.8542 22.9359 19.5625C22.6443 19.2708 22.4984 18.9167 22.4984 18.5C22.4984 18.0833 22.6443 17.7292 22.9359 17.4375C23.2276 17.1458 23.5818 17 23.9984 17C24.4151 17 24.7693 17.1458 25.0609 17.4375C25.3526 17.7292 25.4984 18.0833 25.4984 18.5C25.4984 18.9167 25.3526 19.2708 25.0609 19.5625C24.7693 19.8542 24.4151 20 23.9984 20ZM23.9984 33C23.6651 33 23.3276 32.975 22.9859 32.925C22.6443 32.875 22.3151 32.8083 21.9984 32.725V29.15C21.9984 28.5667 22.1943 28.0625 22.5859 27.6375C22.9776 27.2125 23.4484 27 23.9984 27C24.5484 27 25.0193 27.2125 25.4109 27.6375C25.8026 28.0625 25.9984 28.5667 25.9984 29.15V32.725C25.6818 32.8083 25.3526 32.875 25.0109 32.925C24.6693 32.975 24.3318 33 23.9984 33ZM20.4984 32.2C20.1651 32.0667 19.8443 31.9167 19.5359 31.75C19.2276 31.5833 18.9318 31.4 18.6484 31.2C18.1818 30.8667 17.8109 30.4333 17.5359 29.9C17.2609 29.3667 17.1234 28.8 17.1234 28.2C17.1234 27.7667 17.0776 27.3625 16.9859 26.9875C16.8943 26.6125 16.7318 26.2583 16.4984 25.925C16.3318 25.7083 16.0193 25.3792 15.5609 24.9375C15.1026 24.4958 14.6818 24.0833 14.2984 23.7C14.1151 23.5167 14.0234 23.2833 14.0234 23C14.0234 22.7167 14.1151 22.4833 14.2984 22.3C14.4818 22.1167 14.7151 22.025 14.9984 22.025C15.2818 22.025 15.5151 22.1167 15.6984 22.3L19.5234 25.925C19.8568 26.225 20.1026 26.5792 20.2609 26.9875C20.4193 27.3958 20.4984 27.8167 20.4984 28.25V32.2ZM27.4984 32.2V28.25C27.4984 27.8167 27.5818 27.3917 27.7484 26.975C27.9151 26.5583 28.1568 26.2083 28.4734 25.925L32.2984 22.3C32.4984 22.1167 32.7359 22.025 33.0109 22.025C33.2859 22.025 33.5151 22.1167 33.6984 22.3C33.8818 22.4833 33.9734 22.7167 33.9734 23C33.9734 23.2833 33.8818 23.5167 33.6984 23.7C33.3151 24.0833 32.8943 24.4917 32.4359 24.925C31.9776 25.3583 31.6651 25.6917 31.4984 25.925C31.2651 26.2583 31.1026 26.6125 31.0109 26.9875C30.9193 27.3625 30.8734 27.7667 30.8734 28.2C30.8734 28.8 30.7359 29.3708 30.4609 29.9125C30.1859 30.4542 29.8068 30.8917 29.3234 31.225C29.0568 31.4083 28.7693 31.5833 28.4609 31.75C28.1526 31.9167 27.8318 32.0667 27.4984 32.2Z" fill="#9BA29D"/>
</g>
</g>
</svg>
