<svg width="20" height="20" viewBox="0 0 20 20" fill="none" xmlns="http://www.w3.org/2000/svg">
<g id="Night Mode Icon">
<path id="Vector" d="M10 17.5007C7.90278 17.5007 6.12847 16.775 4.67708 15.3236C3.22569 13.8722 2.5 12.0979 2.5 10.0007C2.5 8.08403 3.125 6.42083 4.375 5.01111C5.625 3.60139 7.22222 2.77847 9.16667 2.54236C9.34722 2.51458 9.50694 2.53889 9.64583 2.61528C9.78472 2.69167 9.89583 2.79236 9.97917 2.91736C10.0625 3.04236 10.1076 3.18819 10.1146 3.35486C10.1215 3.52153 10.0694 3.68125 9.95833 3.83403C9.72222 4.19514 9.54514 4.57708 9.42708 4.97986C9.30903 5.38264 9.25 5.80625 9.25 6.25069C9.25 7.50069 9.6875 8.56319 10.5625 9.43819C11.4375 10.3132 12.5 10.7507 13.75 10.7507C14.1806 10.7507 14.6076 10.6882 15.0312 10.5632C15.4549 10.4382 15.8333 10.2646 16.1667 10.0424C16.3194 9.94514 16.4757 9.9 16.6354 9.90694C16.7951 9.91389 16.9375 9.95208 17.0625 10.0215C17.2014 10.091 17.309 10.1951 17.3854 10.334C17.4618 10.4729 17.4861 10.6396 17.4583 10.834C17.2639 12.7507 16.4479 14.341 15.0104 15.6049C13.5729 16.8688 11.9028 17.5007 10 17.5007ZM10 15.834C11.2222 15.834 12.3194 15.4972 13.2917 14.8236C14.2639 14.15 14.9722 13.2715 15.4167 12.1882C15.1389 12.2576 14.8611 12.3132 14.5833 12.3549C14.3056 12.3965 14.0278 12.4174 13.75 12.4174C12.0417 12.4174 10.5868 11.8167 9.38542 10.6153C8.18403 9.41389 7.58333 7.95903 7.58333 6.25069C7.58333 5.97292 7.60417 5.69514 7.64583 5.41736C7.6875 5.13958 7.74306 4.86181 7.8125 4.58403C6.72917 5.02847 5.85069 5.73681 5.17708 6.70903C4.50347 7.68125 4.16667 8.77847 4.16667 10.0007C4.16667 11.6118 4.73611 12.9868 5.875 14.1257C7.01389 15.2646 8.38889 15.834 10 15.834Z" fill="#9BA29D"/>
</g>
</svg>
