<svg preserveAspectRatio="none" width="100%" height="100%" overflow="visible" style="display: block;" viewBox="0 0 24 24" fill="none" xmlns="http://www.w3.org/2000/svg">
<g id="money_range_24dp_E8EAED_FILL0_wght400_GRAD0_opsz24 1">
<path id="Vector" d="M5.5 22.5L2 19L5.5 15.5L6.925 16.9L5.825 18H18.175L17.1 16.9L18.5 15.5L22 19L18.5 22.5L17.075 21.1L18.175 20H5.825L6.9 21.1L5.5 22.5ZM12 11C11.1667 11 10.4583 10.7083 9.875 10.125C9.29167 9.54167 9 8.83333 9 8C9 7.16667 9.29167 6.45833 9.875 5.875C10.4583 5.29167 11.1667 5 12 5C12.8333 5 13.5417 5.29167 14.125 5.875C14.7083 6.45833 15 7.16667 15 8C15 8.83333 14.7083 9.54167 14.125 10.125C13.5417 10.7083 12.8333 11 12 11ZM5 14C4.45 14 3.97917 13.8042 3.5875 13.4125C3.19583 13.0208 3 12.55 3 12V4C3 3.45 3.19583 2.97917 3.5875 2.5875C3.97917 2.19583 4.45 2 5 2H19C19.55 2 20.0208 2.19583 20.4125 2.5875C20.8042 2.97917 21 3.45 21 4V12C21 12.55 20.8042 13.0208 20.4125 13.4125C20.0208 13.8042 19.55 14 19 14H5ZM7 12H17C17 11.45 17.1958 10.9792 17.5875 10.5875C17.9792 10.1958 18.45 10 19 10V6C18.45 6 17.9792 5.80417 17.5875 5.4125C17.1958 5.02083 17 4.55 17 4H7C7 4.55 6.80417 5.02083 6.4125 5.4125C6.02083 5.80417 5.55 6 5 6V10C5.55 10 6.02083 10.1958 6.4125 10.5875C6.80417 10.9792 7 11.45 7 12Z" fill="var(--fill-0, #9BA29D)"/>
</g>
</svg>
