<svg width="24" height="24" viewBox="0 0 24 24" fill="none" xmlns="http://www.w3.org/2000/svg">
<g transform="translate(-12,-13)">
<g id="Icons">
<path id="Vector" d="M17 34C16.45 34 15.9792 33.8042 15.5875 33.4125C15.1958 33.0208 15 32.55 15 32V18C15 17.45 15.1958 16.9792 15.5875 16.5875C15.9792 16.1958 16.45 16 17 16H31C31.55 16 32.0208 16.1958 32.4125 16.5875C32.8042 16.9792 33 17.45 33 18V32C33 32.55 32.8042 33.0208 32.4125 33.4125C32.0208 33.8042 31.55 34 31 34H17ZM17 21.325H31V18H17V21.325ZM17 26.675H31V23.325H17V26.675ZM17 32H31V28.675H17V32ZM18 20.65V18.65H20V20.65H18ZM18 26V24H20V26H18ZM18 31.35V29.35H20V31.35H18Z" fill="#9BA29D"/>
</g>
</g>
</svg>
