<svg width="545" height="168" viewBox="0 0 545 168" fill="none" xmlns="http://www.w3.org/2000/svg">
<path d="M24.4512 38.8384V33.7456H26.2354C26.5885 33.7456 26.8802 33.8071 27.1104 33.9302C27.3405 34.0509 27.5114 34.2139 27.623 34.4189C27.737 34.624 27.7939 34.8507 27.7939 35.0991C27.7939 35.3179 27.7552 35.499 27.6777 35.6426C27.6003 35.7839 27.4989 35.8966 27.3735 35.981C27.2482 36.063 27.1126 36.1245 26.9668 36.1655V36.2134C27.124 36.2225 27.2812 36.2772 27.4385 36.3774C27.5957 36.4777 27.7267 36.6201 27.8315 36.8047C27.9386 36.9893 27.9922 37.216 27.9922 37.4849C27.9922 37.7401 27.9341 37.9702 27.8179 38.1753C27.7017 38.3781 27.5182 38.5399 27.2676 38.6606C27.0192 38.7791 26.6934 38.8384 26.29 38.8384H24.4512ZM25.0664 38.2915H26.29C26.6934 38.2915 26.9793 38.2129 27.1479 38.0557C27.3188 37.8984 27.4043 37.7082 27.4043 37.4849C27.4043 37.3117 27.3599 37.1522 27.271 37.0063C27.1844 36.8605 27.0602 36.7432 26.8984 36.6543C26.7367 36.5654 26.5452 36.521 26.3242 36.521H25.0664V38.2915ZM25.0664 35.9878H26.2148C26.3994 35.9878 26.5669 35.9513 26.7173 35.8784C26.8677 35.8032 26.9862 35.6995 27.0728 35.5674C27.1616 35.4329 27.2061 35.2769 27.2061 35.0991C27.2061 34.8758 27.1286 34.6855 26.9736 34.5283C26.8187 34.3711 26.5726 34.2925 26.2354 34.2925H25.0664V35.9878ZM29.7217 38.9272C29.4801 38.9272 29.2603 38.8817 29.062 38.7905C28.8638 38.6971 28.7065 38.5627 28.5903 38.3872C28.4741 38.2118 28.416 37.9998 28.416 37.7515C28.416 37.5327 28.4593 37.3561 28.5459 37.2217C28.6325 37.085 28.7476 36.9779 28.8911 36.9004C29.0369 36.8206 29.1965 36.7614 29.3696 36.7227C29.5451 36.6839 29.7217 36.6532 29.8994 36.6304C30.1318 36.6007 30.3198 36.578 30.4634 36.562C30.6092 36.5461 30.7152 36.5187 30.7812 36.48C30.8496 36.4412 30.8838 36.3752 30.8838 36.2817V36.2612C30.8838 36.0174 30.8166 35.8283 30.6821 35.6938C30.55 35.5571 30.3483 35.4888 30.0771 35.4888C29.7992 35.4888 29.5804 35.5503 29.4209 35.6733C29.2614 35.7941 29.1497 35.924 29.0859 36.063L28.5254 35.8647C28.6257 35.6323 28.759 35.4512 28.9253 35.3213C29.0939 35.1914 29.2762 35.1003 29.4722 35.0479C29.6704 34.9954 29.8652 34.9692 30.0566 34.9692C30.1797 34.9692 30.321 34.984 30.4805 35.0137C30.64 35.041 30.7949 35.1003 30.9453 35.1914C31.098 35.2803 31.2233 35.4159 31.3213 35.5981C31.4215 35.7782 31.4717 36.0197 31.4717 36.3228V38.8384H30.8838V38.3188H30.8564C30.8177 38.4009 30.7516 38.4897 30.6582 38.5854C30.5648 38.6789 30.4406 38.7598 30.2856 38.8281C30.133 38.8942 29.945 38.9272 29.7217 38.9272ZM29.8105 38.4009C30.043 38.4009 30.2389 38.3553 30.3984 38.2642C30.5579 38.173 30.6787 38.0557 30.7607 37.9121C30.8428 37.7663 30.8838 37.6147 30.8838 37.4575V36.9175C30.8587 36.9471 30.804 36.9744 30.7197 36.9995C30.6377 37.0223 30.542 37.0428 30.4326 37.061C30.3255 37.0793 30.2207 37.0952 30.1182 37.1089C30.0156 37.1203 29.9336 37.1294 29.8721 37.1362C29.7194 37.1567 29.577 37.1898 29.4448 37.2354C29.3127 37.2786 29.2056 37.3436 29.1235 37.4302C29.0438 37.5168 29.0039 37.6353 29.0039 37.7856C29.0039 37.9884 29.0791 38.1423 29.2295 38.2471C29.3822 38.3496 29.5758 38.4009 29.8105 38.4009ZM32.8047 33.7456V38.8384H32.2236V33.7456H32.8047ZM34.6777 38.9272C34.4362 38.9272 34.2163 38.8817 34.0181 38.7905C33.8198 38.6971 33.6626 38.5627 33.5464 38.3872C33.4302 38.2118 33.3721 37.9998 33.3721 37.7515C33.3721 37.5327 33.4154 37.3561 33.502 37.2217C33.5885 37.085 33.7036 36.9779 33.8472 36.9004C33.993 36.8206 34.1525 36.7614 34.3257 36.7227C34.5011 36.6839 34.6777 36.6532 34.8555 36.6304C35.0879 36.6007 35.2759 36.578 35.4194 36.562C35.5653 36.5461 35.6712 36.5187 35.7373 36.48C35.8057 36.4412 35.8398 36.3752 35.8398 36.2817V36.2612C35.8398 36.0174 35.7726 35.8283 35.6382 35.6938C35.506 35.5571 35.3044 35.4888 35.0332 35.4888C34.7552 35.4888 34.5365 35.5503 34.377 35.6733C34.2174 35.7941 34.1058 35.924 34.042 36.063L33.4814 35.8647C33.5817 35.6323 33.715 35.4512 33.8813 35.3213C34.05 35.1914 34.2323 35.1003 34.4282 35.0479C34.6265 34.9954 34.8213 34.9692 35.0127 34.9692C35.1357 34.9692 35.277 34.984 35.4365 35.0137C35.596 35.041 35.751 35.1003 35.9014 35.1914C36.054 35.2803 36.1794 35.4159 36.2773 35.5981C36.3776 35.7782 36.4277 36.0197 36.4277 36.3228V38.8384H35.8398V38.3188H35.8125C35.7738 38.4009 35.7077 38.4897 35.6143 38.5854C35.5208 38.6789 35.3966 38.7598 35.2417 38.8281C35.089 38.8942 34.901 38.9272 34.6777 38.9272ZM34.7666 38.4009C34.999 38.4009 35.195 38.3553 35.3545 38.2642C35.514 38.173 35.6348 38.0557 35.7168 37.9121C35.7988 37.7663 35.8398 37.6147 35.8398 37.4575V36.9175C35.8148 36.9471 35.7601 36.9744 35.6758 36.9995C35.5938 37.0223 35.498 37.0428 35.3887 37.061C35.2816 37.0793 35.1768 37.0952 35.0742 37.1089C34.9717 37.1203 34.8896 37.1294 34.8281 37.1362C34.6755 37.1567 34.533 37.1898 34.4009 37.2354C34.2687 37.2786 34.1616 37.3436 34.0796 37.4302C33.9998 37.5168 33.96 37.6353 33.96 37.7856C33.96 37.9884 34.0352 38.1423 34.1855 38.2471C34.3382 38.3496 34.5319 38.4009 34.7666 38.4009ZM37.7607 36.5415V38.8384H37.1797V35.0171H37.7402V35.6187H37.7949C37.8838 35.4227 38.0194 35.2655 38.2017 35.147C38.384 35.0285 38.6198 34.9692 38.9092 34.9692C39.1667 34.9692 39.3923 35.0216 39.5859 35.1265C39.7796 35.2313 39.93 35.3908 40.0371 35.605C40.1465 35.8169 40.2012 36.0858 40.2012 36.4116V38.8384H39.6201V36.4526C39.6201 36.1541 39.5415 35.9206 39.3843 35.752C39.2271 35.5811 39.0129 35.4956 38.7417 35.4956C38.5549 35.4956 38.3874 35.5366 38.2393 35.6187C38.0911 35.7007 37.9738 35.8192 37.8872 35.9741C37.8029 36.1291 37.7607 36.3182 37.7607 36.5415ZM42.498 38.9204C42.1426 38.9204 41.835 38.8361 41.5752 38.6675C41.3177 38.4966 41.1183 38.263 40.9771 37.9668C40.8381 37.6706 40.7686 37.3322 40.7686 36.9517C40.7686 36.562 40.8403 36.2191 40.9839 35.9229C41.1274 35.6243 41.328 35.3908 41.5854 35.2222C41.8452 35.0535 42.1471 34.9692 42.4912 34.9692C42.7601 34.9692 43.0016 35.0194 43.2158 35.1196C43.4323 35.2176 43.6089 35.3566 43.7456 35.5366C43.8846 35.7166 43.9701 35.9263 44.002 36.1655H43.4141C43.3844 36.0493 43.3309 35.9399 43.2534 35.8374C43.1759 35.7349 43.0734 35.6528 42.9458 35.5913C42.8205 35.5275 42.6712 35.4956 42.498 35.4956C42.2702 35.4956 42.0708 35.5549 41.8999 35.6733C41.729 35.7918 41.5957 35.9593 41.5 36.1758C41.4043 36.39 41.3564 36.6418 41.3564 36.9312C41.3564 37.2251 41.4032 37.4826 41.4966 37.7036C41.59 37.9224 41.7222 38.0921 41.8931 38.2129C42.0662 38.3337 42.2679 38.394 42.498 38.394C42.7282 38.394 42.9253 38.3348 43.0894 38.2163C43.2534 38.0955 43.3617 37.9315 43.4141 37.7241H44.002C43.9701 37.9497 43.888 38.1525 43.7559 38.3325C43.626 38.5125 43.4539 38.6561 43.2397 38.7632C43.0278 38.868 42.7806 38.9204 42.498 38.9204ZM46.1553 38.9204C45.7884 38.9204 45.4705 38.8384 45.2017 38.6743C44.9351 38.5103 44.73 38.2812 44.5864 37.9873C44.4429 37.6911 44.3711 37.3481 44.3711 36.9585C44.3711 36.5666 44.4417 36.2214 44.583 35.9229C44.7243 35.6243 44.9225 35.3908 45.1777 35.2222C45.4352 35.0535 45.736 34.9692 46.0801 34.9692C46.2783 34.9692 46.4754 35.0023 46.6714 35.0684C46.8674 35.1344 47.0451 35.2415 47.2046 35.3896C47.3664 35.5378 47.4951 35.7337 47.5908 35.9775C47.6865 36.2214 47.7344 36.521 47.7344 36.8765V37.1294H44.7881V36.6235H47.4165L47.1465 36.8149C47.1465 36.5597 47.1066 36.333 47.0269 36.1348C46.9471 35.9365 46.8275 35.7804 46.668 35.6665C46.5107 35.5526 46.3148 35.4956 46.0801 35.4956C45.8454 35.4956 45.6437 35.5537 45.4751 35.6699C45.3088 35.7839 45.1812 35.9331 45.0923 36.1177C45.0034 36.3022 44.959 36.5005 44.959 36.7124V37.0474C44.959 37.3368 45.0091 37.5817 45.1094 37.7822C45.2096 37.9827 45.3498 38.1354 45.5298 38.2402C45.7098 38.3428 45.9183 38.394 46.1553 38.394C46.3079 38.394 46.4469 38.3724 46.5723 38.3291C46.6976 38.2835 46.8058 38.2163 46.897 38.1274C46.9881 38.0363 47.0576 37.9246 47.1055 37.7925L47.6729 37.9565C47.6136 38.1479 47.5133 38.3166 47.3721 38.4624C47.2331 38.606 47.0599 38.7188 46.8525 38.8008C46.6452 38.8805 46.4128 38.9204 46.1553 38.9204Z" fill="#FCFCFC"/>
<path d="M29.332 70.6548V52.4712H30.4844V70.6548H29.332ZM29.8984 69.0923C28.8568 69.0923 27.9551 68.9263 27.1934 68.5942C26.4316 68.2557 25.8327 67.7869 25.3965 67.188C24.9668 66.5825 24.7227 65.8826 24.6641 65.0884H26.4805C26.5326 65.6353 26.7181 66.0877 27.0371 66.4458C27.3626 66.8039 27.776 67.0708 28.2773 67.2466C28.7786 67.4224 29.319 67.5103 29.8984 67.5103C30.569 67.5103 31.1712 67.3996 31.7051 67.1782C32.2454 66.9569 32.6719 66.6476 32.9844 66.2505C33.2969 65.8534 33.4531 65.3879 33.4531 64.854C33.4531 64.3722 33.3164 63.9816 33.043 63.6821C32.7695 63.3826 32.4115 63.1385 31.9688 62.9497C31.5326 62.7609 31.0573 62.5949 30.543 62.4517L28.7656 61.9438C27.6263 61.6183 26.7246 61.1528 26.0605 60.5474C25.403 59.9354 25.0742 59.1379 25.0742 58.1548C25.0742 57.341 25.2923 56.6313 25.7285 56.0259C26.1712 55.4139 26.7669 54.9386 27.5156 54.6001C28.2708 54.2616 29.1107 54.0923 30.0352 54.0923C30.9727 54.0923 31.806 54.2616 32.5352 54.6001C33.2643 54.9321 33.8438 55.3879 34.2734 55.9673C34.7031 56.5402 34.931 57.1912 34.957 57.9204H33.2383C33.1536 57.2043 32.8086 56.6476 32.2031 56.2505C31.6042 55.8534 30.862 55.6548 29.9766 55.6548C29.3385 55.6548 28.7786 55.759 28.2969 55.9673C27.8151 56.1756 27.4408 56.4621 27.1738 56.8267C26.9069 57.1912 26.7734 57.6079 26.7734 58.0767C26.7734 58.591 26.9329 59.0076 27.252 59.3267C27.571 59.6392 27.9486 59.8833 28.3848 60.0591C28.8275 60.2349 29.2279 60.3748 29.5859 60.479L31.0508 60.8892C31.4284 60.9933 31.8483 61.1333 32.3105 61.3091C32.7793 61.4849 33.2285 61.7225 33.6582 62.022C34.0944 62.3215 34.4525 62.7056 34.7324 63.1743C35.0124 63.6366 35.1523 64.2095 35.1523 64.8931C35.1523 65.6743 34.9473 66.384 34.5371 67.022C34.127 67.6535 33.5312 68.158 32.75 68.5356C31.9688 68.9067 31.0182 69.0923 29.8984 69.0923ZM36.5195 65.8501V64.4048L42.9062 54.2876H43.9609V56.5337H43.2383L38.4141 64.1704V64.2876H47.0273V65.8501H36.5195ZM43.3555 68.8384V65.4204V64.7368V54.2876H45.0352V68.8384H43.3555ZM53.2969 69.0337C52.4635 69.0337 51.7116 68.8709 51.041 68.5454C50.377 68.2134 49.8431 67.7576 49.4395 67.1782C49.0358 66.5988 48.8177 65.9412 48.7852 65.2056H50.4844C50.5495 65.8566 50.8457 66.397 51.373 66.8267C51.9069 67.2563 52.5482 67.4712 53.2969 67.4712C53.8958 67.4712 54.4264 67.3312 54.8887 67.0513C55.3509 66.7713 55.7155 66.3872 55.9824 65.8989C56.2493 65.4106 56.3828 64.854 56.3828 64.229C56.3828 63.5975 56.2428 63.0311 55.9629 62.5298C55.6895 62.0285 55.3118 61.6346 54.8301 61.3481C54.3483 61.0552 53.7982 60.9087 53.1797 60.9087C52.7305 60.9087 52.2715 60.9803 51.8027 61.1235C51.3405 61.2603 50.9596 61.436 50.6602 61.6509L49 61.4556L49.8789 54.2876H57.4375V55.8501H51.3633L50.8555 60.147H50.9336C51.2331 59.9061 51.6074 59.7108 52.0566 59.561C52.5059 59.4048 52.9779 59.3267 53.4727 59.3267C54.3646 59.3267 55.1589 59.5382 55.8555 59.9614C56.5521 60.3846 57.099 60.964 57.4961 61.6997C57.8997 62.4289 58.1016 63.2655 58.1016 64.2095C58.1016 65.134 57.8932 65.9608 57.4766 66.6899C57.0599 67.4191 56.4902 67.992 55.7676 68.4087C55.0449 68.8254 54.2214 69.0337 53.2969 69.0337ZM59.0586 72.2954L59.918 66.8071H61.8516L60.3477 72.2954H59.0586ZM68.707 69.0337C67.763 69.0337 66.9264 68.8742 66.1973 68.5552C65.4681 68.2362 64.8887 67.7902 64.459 67.2173C64.0293 66.6379 63.7982 65.9673 63.7656 65.2056H65.543C65.582 65.6743 65.7415 66.078 66.0215 66.4165C66.3079 66.755 66.679 67.0155 67.1348 67.1978C67.597 67.38 68.1081 67.4712 68.668 67.4712C69.293 67.4712 69.8464 67.3638 70.3281 67.1489C70.8164 66.9276 71.1973 66.6248 71.4707 66.2407C71.7507 65.8501 71.8906 65.4009 71.8906 64.8931C71.8906 64.3527 71.7572 63.8774 71.4902 63.4673C71.2233 63.0571 70.8327 62.7381 70.3184 62.5103C69.8105 62.2759 69.1888 62.1587 68.4531 62.1587H67.2812V60.5962H68.4531C69.026 60.5962 69.5306 60.492 69.9668 60.2837C70.403 60.0754 70.7448 59.7824 70.9922 59.4048C71.2396 59.0272 71.3633 58.5845 71.3633 58.0767C71.3633 57.5819 71.2559 57.1522 71.041 56.7876C70.8262 56.423 70.5202 56.1398 70.123 55.938C69.7324 55.7362 69.2669 55.6353 68.7266 55.6353C68.2253 55.6353 67.7533 55.7264 67.3105 55.9087C66.8678 56.091 66.5065 56.3514 66.2266 56.6899C65.9466 57.0285 65.7969 57.4386 65.7773 57.9204H64.0781C64.1042 57.1587 64.332 56.4914 64.7617 55.9185C65.1914 55.3455 65.7546 54.8996 66.4512 54.5806C67.1543 54.255 67.9258 54.0923 68.7656 54.0923C69.6641 54.0923 70.4355 54.2746 71.0801 54.6392C71.7246 54.9972 72.2194 55.4725 72.5645 56.0649C72.9095 56.6574 73.082 57.2954 73.082 57.979C73.082 58.8058 72.8672 59.5057 72.4375 60.0786C72.0143 60.6515 71.4349 61.0519 70.6992 61.2798V61.397C71.6107 61.5467 72.3236 61.9373 72.8379 62.5688C73.3522 63.1938 73.6094 63.9686 73.6094 64.8931C73.6094 65.6808 73.3945 66.3872 72.9648 67.0122C72.5417 67.6372 71.959 68.132 71.2168 68.4966C70.4811 68.8547 69.6445 69.0337 68.707 69.0337ZM75.582 68.8384V67.5688L80.3867 62.2954C80.9466 61.6834 81.4056 61.1496 81.7637 60.6938C82.1283 60.2381 82.3984 59.8084 82.5742 59.4048C82.7565 59.0011 82.8477 58.578 82.8477 58.1353C82.8477 57.6209 82.724 57.1782 82.4766 56.8071C82.2357 56.4295 81.9069 56.1398 81.4902 55.938C81.0736 55.7362 80.6016 55.6353 80.0742 55.6353C79.5143 55.6353 79.026 55.7492 78.6094 55.9771C78.1992 56.2049 77.8802 56.5272 77.6523 56.9438C77.431 57.354 77.3203 57.8358 77.3203 58.3892H75.6406C75.6406 57.5363 75.8359 56.7876 76.2266 56.1431C76.6237 55.4985 77.1608 54.9972 77.8379 54.6392C78.5215 54.2746 79.2865 54.0923 80.1328 54.0923C80.9857 54.0923 81.7409 54.2746 82.3984 54.6392C83.056 54.9972 83.5703 55.4823 83.9414 56.0942C84.319 56.6997 84.5078 57.38 84.5078 58.1353C84.5078 58.6691 84.4102 59.1899 84.2148 59.6978C84.026 60.1991 83.694 60.7622 83.2188 61.3872C82.75 62.0122 82.099 62.7707 81.2656 63.6626L78.0039 67.1587V67.2759H84.7617V68.8384H75.582ZM86.1094 65.8501V64.4048L92.4961 54.2876H93.5508V56.5337H92.8281L88.0039 64.1704V64.2876H96.6172V65.8501H86.1094ZM92.9453 68.8384V65.4204V64.7368V54.2876H94.625V68.8384H92.9453Z" fill="#FCFCFC"/>
<rect x="24" y="91.8384" width="159" height="45" rx="6" fill="white"/>
<rect x="32" y="100.838" width="9" height="9" rx="4.5" fill="#C6F56F"/>
<path d="M38.4421 105.34C38.4077 105.376 38.3604 105.398 38.3105 105.399C38.257 105.4 38.2055 105.379 38.1686 105.34L36.6978 103.869V107.28C36.6964 107.387 36.6106 107.473 36.5042 107.474C36.3979 107.473 36.3121 107.387 36.3107 107.28V103.869L34.8399 105.34C34.7906 105.391 34.718 105.411 34.6494 105.394C34.5808 105.377 34.5267 105.324 34.5075 105.256C34.4882 105.188 34.5068 105.115 34.5561 105.064L36.3623 103.258C36.439 103.185 36.5592 103.185 36.6358 103.258L38.4421 105.064C38.4791 105.1 38.5 105.15 38.5 105.202C38.5 105.254 38.4791 105.304 38.4421 105.34Z" fill="#1A1A1C"/>
<path d="M46.0664 102.746V107.838H45.4512V102.746H46.0664ZM47.4746 105.542V107.838H46.8936V104.017H47.4541V104.619H47.5088C47.5977 104.423 47.7332 104.265 47.9155 104.147C48.0978 104.028 48.3337 103.969 48.623 103.969C48.8805 103.969 49.1061 104.022 49.2998 104.126C49.4935 104.231 49.6439 104.391 49.751 104.605C49.8604 104.817 49.915 105.086 49.915 105.412V107.838H49.334V105.453C49.334 105.154 49.2554 104.921 49.0981 104.752C48.9409 104.581 48.7267 104.496 48.4556 104.496C48.2687 104.496 48.1012 104.537 47.9531 104.619C47.805 104.701 47.6877 104.819 47.6011 104.974C47.5168 105.129 47.4746 105.318 47.4746 105.542ZM52.2119 107.92C51.8564 107.92 51.5488 107.836 51.2891 107.667C51.0316 107.497 50.8322 107.263 50.6909 106.967C50.5519 106.671 50.4824 106.332 50.4824 105.952C50.4824 105.562 50.5542 105.219 50.6978 104.923C50.8413 104.624 51.0418 104.391 51.2993 104.222C51.5591 104.054 51.861 103.969 52.2051 103.969C52.474 103.969 52.7155 104.019 52.9297 104.12C53.1462 104.218 53.3228 104.357 53.4595 104.537C53.5985 104.717 53.6839 104.926 53.7158 105.166H53.1279C53.0983 105.049 53.0448 104.94 52.9673 104.837C52.8898 104.735 52.7873 104.653 52.6597 104.591C52.5343 104.528 52.3851 104.496 52.2119 104.496C51.984 104.496 51.7847 104.555 51.6138 104.673C51.4429 104.792 51.3096 104.959 51.2139 105.176C51.1182 105.39 51.0703 105.642 51.0703 105.931C51.0703 106.225 51.117 106.483 51.2104 106.704C51.3039 106.922 51.436 107.092 51.6069 107.213C51.7801 107.334 51.9818 107.394 52.2119 107.394C52.4421 107.394 52.6392 107.335 52.8032 107.216C52.9673 107.096 53.0755 106.931 53.1279 106.724H53.7158C53.6839 106.95 53.6019 107.153 53.4697 107.333C53.3398 107.513 53.1678 107.656 52.9536 107.763C52.7417 107.868 52.4945 107.92 52.2119 107.92ZM55.8145 107.92C55.4704 107.92 55.1685 107.838 54.9087 107.674C54.6489 107.51 54.4461 107.28 54.3003 106.984C54.1567 106.688 54.085 106.344 54.085 105.952C54.085 105.553 54.1567 105.205 54.3003 104.909C54.4461 104.611 54.6489 104.379 54.9087 104.215C55.1685 104.051 55.4704 103.969 55.8145 103.969C56.1608 103.969 56.4639 104.051 56.7236 104.215C56.9834 104.379 57.1862 104.611 57.332 104.909C57.4779 105.205 57.5508 105.553 57.5508 105.952C57.5508 106.344 57.4779 106.688 57.332 106.984C57.1862 107.28 56.9834 107.51 56.7236 107.674C56.4639 107.838 56.1608 107.92 55.8145 107.92ZM55.8145 107.394C56.0788 107.394 56.2952 107.327 56.4639 107.192C56.6325 107.058 56.7578 106.881 56.8398 106.663C56.9219 106.442 56.9629 106.205 56.9629 105.952C56.9629 105.694 56.9219 105.455 56.8398 105.234C56.7578 105.013 56.6325 104.835 56.4639 104.701C56.2952 104.564 56.0788 104.496 55.8145 104.496C55.5547 104.496 55.3405 104.564 55.1719 104.701C55.0033 104.835 54.8779 105.013 54.7959 105.234C54.7139 105.455 54.6729 105.694 54.6729 105.952C54.6729 106.205 54.7139 106.442 54.7959 106.663C54.8779 106.881 55.0033 107.058 55.1719 107.192C55.3405 107.327 55.5547 107.394 55.8145 107.394ZM58.1182 107.838V104.017H58.6787V104.619H58.7334C58.8132 104.414 58.9419 104.254 59.1196 104.14C59.2974 104.026 59.5104 103.969 59.7588 103.969C60.0094 103.969 60.2179 104.026 60.3843 104.14C60.5529 104.254 60.6839 104.414 60.7773 104.619H60.8184C60.9186 104.42 61.0656 104.263 61.2593 104.147C61.4552 104.028 61.6888 103.969 61.96 103.969C62.3018 103.969 62.582 104.076 62.8008 104.291C63.0195 104.502 63.1289 104.833 63.1289 105.282V107.838H62.541V105.282C62.541 104.999 62.4635 104.798 62.3086 104.677C62.1536 104.556 61.9714 104.496 61.7617 104.496C61.4951 104.496 61.2878 104.578 61.1396 104.742C60.9938 104.903 60.9209 105.106 60.9209 105.35V107.838H60.3193V105.22C60.3193 105.004 60.2498 104.829 60.1108 104.697C59.9718 104.563 59.7907 104.496 59.5674 104.496C59.4147 104.496 59.2723 104.537 59.1401 104.619C59.008 104.701 58.9009 104.813 58.8188 104.957C58.7391 105.101 58.6992 105.266 58.6992 105.453V107.838H58.1182ZM65.4805 107.92C65.1136 107.92 64.7957 107.838 64.5269 107.674C64.2603 107.51 64.0552 107.281 63.9116 106.987C63.7681 106.691 63.6963 106.348 63.6963 105.958C63.6963 105.567 63.7669 105.221 63.9082 104.923C64.0495 104.624 64.2477 104.391 64.5029 104.222C64.7604 104.054 65.0612 103.969 65.4053 103.969C65.6035 103.969 65.8006 104.002 65.9966 104.068C66.1925 104.134 66.3703 104.242 66.5298 104.39C66.6916 104.538 66.8203 104.734 66.916 104.978C67.0117 105.221 67.0596 105.521 67.0596 105.876V106.129H64.1133V105.624H66.7417L66.4717 105.815C66.4717 105.56 66.4318 105.333 66.3521 105.135C66.2723 104.937 66.1527 104.78 65.9932 104.667C65.8359 104.553 65.64 104.496 65.4053 104.496C65.1706 104.496 64.9689 104.554 64.8003 104.67C64.634 104.784 64.5063 104.933 64.4175 105.118C64.3286 105.302 64.2842 105.5 64.2842 105.712V106.047C64.2842 106.337 64.3343 106.582 64.4346 106.782C64.5348 106.983 64.675 107.135 64.855 107.24C65.035 107.343 65.2435 107.394 65.4805 107.394C65.6331 107.394 65.7721 107.372 65.8975 107.329C66.0228 107.284 66.131 107.216 66.2222 107.127C66.3133 107.036 66.3828 106.925 66.4307 106.792L66.998 106.957C66.9388 107.148 66.8385 107.317 66.6973 107.462C66.5583 107.606 66.3851 107.719 66.1777 107.801C65.9704 107.881 65.738 107.92 65.4805 107.92Z" fill="#1A1A1C" fill-opacity="0.6"/>
<path d="M34.4609 125.656V117.473H34.9795V125.656H34.4609ZM34.7202 124.944C34.231 124.944 33.8062 124.868 33.4458 124.715C33.0884 124.56 32.8086 124.339 32.6064 124.052C32.4043 123.765 32.2915 123.423 32.2681 123.028H33.2612C33.2817 123.265 33.3579 123.463 33.4897 123.621C33.6245 123.776 33.7988 123.892 34.0127 123.968C34.2266 124.044 34.4609 124.083 34.7158 124.083C34.9941 124.083 35.2432 124.039 35.4629 123.951C35.6826 123.863 35.854 123.74 35.9771 123.582C36.103 123.42 36.166 123.233 36.166 123.019C36.166 122.826 36.1104 122.667 35.999 122.544C35.8906 122.421 35.7427 122.32 35.5552 122.241C35.3677 122.159 35.1567 122.087 34.9224 122.026L34.1533 121.815C33.626 121.674 33.21 121.465 32.9053 121.187C32.6006 120.905 32.4482 120.538 32.4482 120.083C32.4482 119.706 32.5493 119.376 32.7515 119.095C32.9565 118.813 33.2334 118.595 33.582 118.44C33.9336 118.282 34.3276 118.203 34.7642 118.203C35.2095 118.203 35.6006 118.282 35.9375 118.44C36.2773 118.595 36.5454 118.809 36.7417 119.082C36.9409 119.351 37.0449 119.66 37.0537 120.009H36.0957C36.0605 119.707 35.9199 119.473 35.6738 119.306C35.4307 119.139 35.1201 119.055 34.7422 119.055C34.4785 119.055 34.2471 119.098 34.0479 119.183C33.8516 119.265 33.6992 119.379 33.5908 119.525C33.4854 119.672 33.4326 119.84 33.4326 120.031C33.4326 120.236 33.4956 120.403 33.6216 120.532C33.7505 120.661 33.9058 120.763 34.0874 120.839C34.272 120.913 34.4492 120.973 34.6191 121.02L35.2563 121.191C35.4644 121.244 35.6782 121.314 35.8979 121.402C36.1177 121.49 36.3213 121.605 36.5088 121.749C36.6992 121.89 36.8516 122.065 36.9658 122.276C37.083 122.484 37.1416 122.736 37.1416 123.032C37.1416 123.398 37.0464 123.727 36.856 124.017C36.6655 124.304 36.3901 124.531 36.0298 124.698C35.6694 124.862 35.2329 124.944 34.7202 124.944ZM37.7217 123.56V122.764L40.5474 118.291H41.1758V119.468H40.7715L38.75 122.667V122.72H42.6304V123.56H37.7217ZM40.8154 124.838V123.318L40.8242 122.953V118.291H41.7646V124.838H40.8154ZM45.5615 124.926C45.1045 124.926 44.7002 124.847 44.3486 124.689C44 124.531 43.7261 124.314 43.5269 124.039C43.3306 123.76 43.2324 123.444 43.2324 123.089C43.2324 122.817 43.2896 122.563 43.4038 122.329C43.521 122.095 43.6792 121.9 43.8784 121.745C44.0776 121.589 44.3018 121.49 44.5508 121.446V121.406C44.2256 121.327 43.9634 121.153 43.7642 120.883C43.5679 120.611 43.4697 120.3 43.4697 119.952C43.4697 119.615 43.5591 119.314 43.7378 119.051C43.9194 118.787 44.167 118.581 44.4805 118.431C44.7969 118.279 45.1572 118.203 45.5615 118.203C45.96 118.203 46.3159 118.279 46.6294 118.431C46.9458 118.581 47.1934 118.787 47.3721 119.051C47.5537 119.314 47.6445 119.615 47.6445 119.952C47.6445 120.3 47.5449 120.611 47.3457 120.883C47.1494 121.153 46.8916 121.327 46.5723 121.406V121.446C46.8184 121.49 47.041 121.589 47.2402 121.745C47.4395 121.9 47.5977 122.095 47.7148 122.329C47.832 122.563 47.8906 122.817 47.8906 123.089C47.8906 123.444 47.791 123.76 47.5918 124.039C47.3926 124.314 47.1172 124.531 46.7656 124.689C46.417 124.847 46.0156 124.926 45.5615 124.926ZM45.5615 124.118C45.8311 124.118 46.0654 124.074 46.2646 123.986C46.4639 123.895 46.6177 123.768 46.7261 123.604C46.8345 123.439 46.8887 123.249 46.8887 123.032C46.8887 122.804 46.8301 122.603 46.7129 122.43C46.5986 122.254 46.4419 122.117 46.2427 122.017C46.0435 121.915 45.8164 121.863 45.5615 121.863C45.3037 121.863 45.0737 121.913 44.8716 122.013C44.6724 122.112 44.5156 122.25 44.4014 122.426C44.2871 122.602 44.23 122.804 44.23 123.032C44.23 123.249 44.2842 123.439 44.3926 123.604C44.501 123.768 44.6548 123.895 44.854 123.986C45.0532 124.074 45.2891 124.118 45.5615 124.118ZM45.5615 121.077C45.7783 121.077 45.9702 121.033 46.1372 120.945C46.3071 120.857 46.4404 120.735 46.5371 120.58C46.6367 120.425 46.6865 120.243 46.6865 120.035C46.6865 119.83 46.6382 119.651 46.5415 119.499C46.4478 119.347 46.3159 119.228 46.146 119.143C45.979 119.058 45.7842 119.016 45.5615 119.016C45.3359 119.016 45.1382 119.058 44.9683 119.143C44.7983 119.228 44.6665 119.347 44.5728 119.499C44.479 119.651 44.4321 119.83 44.4321 120.035C44.4321 120.243 44.4805 120.425 44.5771 120.58C44.6738 120.735 44.8057 120.857 44.9727 120.945C45.1426 121.033 45.3389 121.077 45.5615 121.077ZM48.374 126.46L48.7607 123.898H49.7891L49.064 126.46H48.374ZM52.9619 124.926C52.458 124.926 52.0259 124.794 51.6655 124.531C51.3081 124.267 51.0342 123.886 50.8438 123.388C50.6562 122.887 50.5625 122.281 50.5625 121.569C50.5625 120.86 50.6577 120.255 50.8481 119.754C51.0386 119.25 51.3125 118.866 51.6699 118.603C52.0303 118.336 52.4609 118.203 52.9619 118.203C53.4658 118.203 53.8965 118.336 54.2539 118.603C54.6143 118.866 54.8882 119.25 55.0757 119.754C55.2661 120.255 55.3613 120.86 55.3613 121.569C55.3613 122.281 55.2676 122.887 55.0801 123.388C54.8926 123.886 54.6201 124.267 54.2627 124.531C53.9053 124.794 53.4717 124.926 52.9619 124.926ZM52.9619 124.083C53.2695 124.083 53.5288 123.984 53.7397 123.788C53.9507 123.592 54.1118 123.306 54.2231 122.931C54.3345 122.553 54.3901 122.099 54.3901 121.569C54.3901 121.036 54.3345 120.582 54.2231 120.207C54.1118 119.829 53.9507 119.542 53.7397 119.345C53.5288 119.146 53.2695 119.046 52.9619 119.046C52.5078 119.046 52.1562 119.268 51.9072 119.71C51.6611 120.149 51.5381 120.769 51.5381 121.569C51.5381 122.099 51.5938 122.553 51.7051 122.931C51.8164 123.306 51.9775 123.592 52.1885 123.788C52.4023 123.984 52.6602 124.083 52.9619 124.083ZM58.4023 124.926C57.8984 124.926 57.4663 124.794 57.106 124.531C56.7485 124.267 56.4746 123.886 56.2842 123.388C56.0967 122.887 56.0029 122.281 56.0029 121.569C56.0029 120.86 56.0981 120.255 56.2886 119.754C56.479 119.25 56.7529 118.866 57.1104 118.603C57.4707 118.336 57.9014 118.203 58.4023 118.203C58.9062 118.203 59.3369 118.336 59.6943 118.603C60.0547 118.866 60.3286 119.25 60.5161 119.754C60.7065 120.255 60.8018 120.86 60.8018 121.569C60.8018 122.281 60.708 122.887 60.5205 123.388C60.333 123.886 60.0605 124.267 59.7031 124.531C59.3457 124.794 58.9121 124.926 58.4023 124.926ZM58.4023 124.083C58.71 124.083 58.9692 123.984 59.1802 123.788C59.3911 123.592 59.5522 123.306 59.6636 122.931C59.7749 122.553 59.8306 122.099 59.8306 121.569C59.8306 121.036 59.7749 120.582 59.6636 120.207C59.5522 119.829 59.3911 119.542 59.1802 119.345C58.9692 119.146 58.71 119.046 58.4023 119.046C57.9482 119.046 57.5967 119.268 57.3477 119.71C57.1016 120.149 56.9785 120.769 56.9785 121.569C56.9785 122.099 57.0342 122.553 57.1455 122.931C57.2568 123.306 57.418 123.592 57.6289 123.788C57.8428 123.984 58.1006 124.083 58.4023 124.083ZM63.8428 124.926C63.3389 124.926 62.9067 124.794 62.5464 124.531C62.189 124.267 61.915 123.886 61.7246 123.388C61.5371 122.887 61.4434 122.281 61.4434 121.569C61.4434 120.86 61.5386 120.255 61.729 119.754C61.9194 119.25 62.1934 118.866 62.5508 118.603C62.9111 118.336 63.3418 118.203 63.8428 118.203C64.3467 118.203 64.7773 118.336 65.1348 118.603C65.4951 118.866 65.769 119.25 65.9565 119.754C66.147 120.255 66.2422 120.86 66.2422 121.569C66.2422 122.281 66.1484 122.887 65.9609 123.388C65.7734 123.886 65.501 124.267 65.1436 124.531C64.7861 124.794 64.3525 124.926 63.8428 124.926ZM63.8428 124.083C64.1504 124.083 64.4097 123.984 64.6206 123.788C64.8315 123.592 64.9927 123.306 65.104 122.931C65.2153 122.553 65.271 122.099 65.271 121.569C65.271 121.036 65.2153 120.582 65.104 120.207C64.9927 119.829 64.8315 119.542 64.6206 119.345C64.4097 119.146 64.1504 119.046 63.8428 119.046C63.3887 119.046 63.0371 119.268 62.7881 119.71C62.542 120.149 62.4189 120.769 62.4189 121.569C62.4189 122.099 62.4746 122.553 62.5859 122.931C62.6973 123.306 62.8584 123.592 63.0693 123.788C63.2832 123.984 63.541 124.083 63.8428 124.083Z" fill="#1A1A1C"/>
<rect x="193" y="91.8384" width="159" height="45" rx="6" fill="white"/>
<rect x="201" y="100.838" width="9" height="9" rx="4.5" fill="#FFB9A2"/>
<path d="M207.442 105.337C207.408 105.3 207.36 105.279 207.311 105.277C207.257 105.276 207.205 105.298 207.169 105.337L205.698 106.808V103.396C205.696 103.29 205.611 103.204 205.504 103.203C205.398 103.204 205.312 103.29 205.311 103.396V106.808L203.84 105.337C203.791 105.286 203.718 105.265 203.649 105.283C203.581 105.3 203.527 105.353 203.507 105.421C203.488 105.489 203.507 105.562 203.556 105.613L205.362 107.419C205.439 107.492 205.559 107.492 205.636 107.419L207.442 105.613C207.479 105.576 207.5 105.527 207.5 105.475C207.5 105.423 207.479 105.373 207.442 105.337Z" fill="#1A1A1C"/>
<path d="M214.451 107.838V102.746H217.527V103.292H215.066V104.995H217.363V105.542H215.066V107.292H217.562V107.838H214.451ZM218.669 104.017L219.578 105.583L220.494 104.017H221.171L219.94 105.931L221.171 107.838H220.494L219.578 106.355L218.669 107.838H217.992L219.202 105.931L217.992 104.017H218.669ZM221.684 109.267V104.017H222.244V104.625H222.312C222.356 104.559 222.416 104.475 222.494 104.373C222.571 104.268 222.683 104.174 222.829 104.092C222.974 104.01 223.172 103.969 223.42 103.969C223.741 103.969 224.024 104.05 224.268 104.212C224.511 104.371 224.702 104.599 224.838 104.896C224.977 105.189 225.047 105.537 225.047 105.938C225.047 106.341 224.979 106.692 224.842 106.991C224.705 107.287 224.515 107.516 224.271 107.678C224.027 107.84 223.746 107.92 223.427 107.92C223.183 107.92 222.987 107.879 222.839 107.797C222.691 107.713 222.577 107.618 222.497 107.514C222.417 107.407 222.356 107.319 222.312 107.25H222.265V109.267H221.684ZM223.352 107.394C223.595 107.394 223.799 107.329 223.963 107.199C224.127 107.067 224.25 106.89 224.333 106.669C224.417 106.448 224.459 106.202 224.459 105.931C224.459 105.662 224.418 105.42 224.336 105.203C224.254 104.987 224.131 104.815 223.967 104.687C223.805 104.559 223.6 104.496 223.352 104.496C223.112 104.496 222.912 104.556 222.75 104.677C222.588 104.795 222.465 104.963 222.381 105.179C222.299 105.393 222.258 105.644 222.258 105.931C222.258 106.218 222.3 106.472 222.384 106.693C222.469 106.912 222.592 107.084 222.753 107.209C222.917 107.333 223.117 107.394 223.352 107.394ZM227.214 107.92C226.847 107.92 226.529 107.838 226.26 107.674C225.994 107.51 225.789 107.281 225.645 106.987C225.501 106.691 225.43 106.348 225.43 105.958C225.43 105.567 225.5 105.221 225.642 104.923C225.783 104.624 225.981 104.391 226.236 104.222C226.494 104.054 226.795 103.969 227.139 103.969C227.337 103.969 227.534 104.002 227.73 104.068C227.926 104.134 228.104 104.242 228.263 104.39C228.425 104.538 228.554 104.734 228.649 104.978C228.745 105.221 228.793 105.521 228.793 105.876V106.129H225.847V105.624H228.475L228.205 105.815C228.205 105.56 228.165 105.333 228.085 105.135C228.006 104.937 227.886 104.78 227.727 104.667C227.569 104.553 227.373 104.496 227.139 104.496C226.904 104.496 226.702 104.554 226.534 104.67C226.367 104.784 226.24 104.933 226.151 105.118C226.062 105.302 226.018 105.5 226.018 105.712V106.047C226.018 106.337 226.068 106.582 226.168 106.782C226.268 106.983 226.408 107.135 226.588 107.24C226.768 107.343 226.977 107.394 227.214 107.394C227.367 107.394 227.506 107.372 227.631 107.329C227.756 107.284 227.864 107.216 227.956 107.127C228.047 107.036 228.116 106.925 228.164 106.792L228.731 106.957C228.672 107.148 228.572 107.317 228.431 107.462C228.292 107.606 228.118 107.719 227.911 107.801C227.704 107.881 227.471 107.92 227.214 107.92ZM229.928 105.542V107.838H229.347V104.017H229.907V104.619H229.962C230.051 104.423 230.186 104.265 230.369 104.147C230.551 104.028 230.787 103.969 231.076 103.969C231.334 103.969 231.559 104.022 231.753 104.126C231.947 104.231 232.097 104.391 232.204 104.605C232.313 104.817 232.368 105.086 232.368 105.412V107.838H231.787V105.453C231.787 105.154 231.708 104.921 231.551 104.752C231.394 104.581 231.18 104.496 230.909 104.496C230.722 104.496 230.554 104.537 230.406 104.619C230.258 104.701 230.141 104.819 230.054 104.974C229.97 105.129 229.928 105.318 229.928 105.542ZM235.82 104.878L235.294 105.022C235.244 104.892 235.157 104.769 235.034 104.653C234.913 104.534 234.724 104.475 234.467 104.475C234.234 104.475 234.041 104.53 233.886 104.639C233.731 104.746 233.653 104.881 233.653 105.042C233.653 105.188 233.706 105.305 233.811 105.391C233.918 105.478 234.084 105.548 234.31 105.603L234.877 105.74C235.216 105.822 235.469 105.948 235.636 106.119C235.804 106.29 235.889 106.508 235.889 106.772C235.889 106.991 235.826 107.187 235.701 107.36C235.575 107.533 235.401 107.67 235.178 107.77C234.954 107.87 234.695 107.92 234.398 107.92C234.009 107.92 233.686 107.835 233.431 107.664C233.178 107.493 233.018 107.246 232.949 106.922L233.503 106.786C233.555 106.991 233.656 107.145 233.804 107.247C233.954 107.35 234.15 107.401 234.392 107.401C234.663 107.401 234.879 107.343 235.041 107.227C235.205 107.108 235.287 106.968 235.287 106.806C235.287 106.537 235.098 106.357 234.72 106.266L234.084 106.116C233.733 106.031 233.476 105.903 233.312 105.729C233.147 105.556 233.065 105.339 233.065 105.077C233.065 104.86 233.126 104.669 233.247 104.502C233.37 104.336 233.537 104.206 233.749 104.113C233.961 104.017 234.2 103.969 234.467 103.969C234.847 103.969 235.145 104.054 235.359 104.222C235.575 104.389 235.729 104.607 235.82 104.878ZM238.049 107.92C237.682 107.92 237.364 107.838 237.095 107.674C236.829 107.51 236.624 107.281 236.48 106.987C236.336 106.691 236.265 106.348 236.265 105.958C236.265 105.567 236.335 105.221 236.477 104.923C236.618 104.624 236.816 104.391 237.071 104.222C237.329 104.054 237.63 103.969 237.974 103.969C238.172 103.969 238.369 104.002 238.565 104.068C238.761 104.134 238.939 104.242 239.098 104.39C239.26 104.538 239.389 104.734 239.484 104.978C239.58 105.221 239.628 105.521 239.628 105.876V106.129H236.682V105.624H239.31L239.04 105.815C239.04 105.56 239 105.333 238.92 105.135C238.841 104.937 238.721 104.78 238.562 104.667C238.404 104.553 238.208 104.496 237.974 104.496C237.739 104.496 237.537 104.554 237.369 104.67C237.202 104.784 237.075 104.933 236.986 105.118C236.897 105.302 236.853 105.5 236.853 105.712V106.047C236.853 106.337 236.903 106.582 237.003 106.782C237.103 106.983 237.243 107.135 237.423 107.24C237.603 107.343 237.812 107.394 238.049 107.394C238.201 107.394 238.34 107.372 238.466 107.329C238.591 107.284 238.699 107.216 238.791 107.127C238.882 107.036 238.951 106.925 238.999 106.792L239.566 106.957C239.507 107.148 239.407 107.317 239.266 107.462C239.127 107.606 238.953 107.719 238.746 107.801C238.539 107.881 238.306 107.92 238.049 107.92ZM242.882 104.878L242.355 105.022C242.305 104.892 242.219 104.769 242.096 104.653C241.975 104.534 241.786 104.475 241.528 104.475C241.296 104.475 241.102 104.53 240.947 104.639C240.792 104.746 240.715 104.881 240.715 105.042C240.715 105.188 240.767 105.305 240.872 105.391C240.979 105.478 241.146 105.548 241.371 105.603L241.938 105.74C242.278 105.822 242.531 105.948 242.697 106.119C242.866 106.29 242.95 106.508 242.95 106.772C242.95 106.991 242.888 107.187 242.762 107.36C242.637 107.533 242.463 107.67 242.239 107.77C242.016 107.87 241.756 107.92 241.46 107.92C241.07 107.92 240.748 107.835 240.493 107.664C240.24 107.493 240.079 107.246 240.011 106.922L240.564 106.786C240.617 106.991 240.717 107.145 240.865 107.247C241.016 107.35 241.212 107.401 241.453 107.401C241.724 107.401 241.941 107.343 242.103 107.227C242.267 107.108 242.349 106.968 242.349 106.806C242.349 106.537 242.16 106.357 241.781 106.266L241.146 106.116C240.795 106.031 240.537 105.903 240.373 105.729C240.209 105.556 240.127 105.339 240.127 105.077C240.127 104.86 240.187 104.669 240.308 104.502C240.431 104.336 240.599 104.206 240.811 104.113C241.022 104.017 241.262 103.969 241.528 103.969C241.909 103.969 242.206 104.054 242.42 104.222C242.637 104.389 242.791 104.607 242.882 104.878Z" fill="#1A1A1C" fill-opacity="0.6"/>
<path d="M203.461 125.656V117.473H203.979V125.656H203.461ZM203.72 124.944C203.231 124.944 202.806 124.868 202.446 124.715C202.088 124.56 201.809 124.339 201.606 124.052C201.404 123.765 201.292 123.423 201.268 123.028H202.261C202.282 123.265 202.358 123.463 202.49 123.621C202.625 123.776 202.799 123.892 203.013 123.968C203.227 124.044 203.461 124.083 203.716 124.083C203.994 124.083 204.243 124.039 204.463 123.951C204.683 123.863 204.854 123.74 204.977 123.582C205.103 123.42 205.166 123.233 205.166 123.019C205.166 122.826 205.11 122.667 204.999 122.544C204.891 122.421 204.743 122.32 204.555 122.241C204.368 122.159 204.157 122.087 203.922 122.026L203.153 121.815C202.626 121.674 202.21 121.465 201.905 121.187C201.601 120.905 201.448 120.538 201.448 120.083C201.448 119.706 201.549 119.376 201.751 119.095C201.957 118.813 202.233 118.595 202.582 118.44C202.934 118.282 203.328 118.203 203.764 118.203C204.209 118.203 204.601 118.282 204.938 118.44C205.277 118.595 205.545 118.809 205.742 119.082C205.941 119.351 206.045 119.66 206.054 120.009H205.096C205.061 119.707 204.92 119.473 204.674 119.306C204.431 119.139 204.12 119.055 203.742 119.055C203.479 119.055 203.247 119.098 203.048 119.183C202.852 119.265 202.699 119.379 202.591 119.525C202.485 119.672 202.433 119.84 202.433 120.031C202.433 120.236 202.496 120.403 202.622 120.532C202.75 120.661 202.906 120.763 203.087 120.839C203.272 120.913 203.449 120.973 203.619 121.02L204.256 121.191C204.464 121.244 204.678 121.314 204.898 121.402C205.118 121.49 205.321 121.605 205.509 121.749C205.699 121.89 205.852 122.065 205.966 122.276C206.083 122.484 206.142 122.736 206.142 123.032C206.142 123.398 206.046 123.727 205.856 124.017C205.666 124.304 205.39 124.531 205.03 124.698C204.669 124.862 204.233 124.944 203.72 124.944ZM206.854 124.838V124.126L209.068 121.824C209.303 121.578 209.496 121.361 209.648 121.173C209.804 120.983 209.919 120.803 209.996 120.633C210.075 120.463 210.114 120.283 210.114 120.092C210.114 119.873 210.063 119.684 209.96 119.525C209.858 119.367 209.719 119.246 209.543 119.161C209.367 119.076 209.168 119.033 208.945 119.033C208.711 119.033 208.507 119.082 208.334 119.178C208.162 119.272 208.027 119.407 207.93 119.583C207.836 119.755 207.79 119.959 207.79 120.193H206.849C206.849 119.795 206.94 119.446 207.122 119.147C207.306 118.849 207.558 118.617 207.877 118.453C208.2 118.286 208.563 118.203 208.967 118.203C209.38 118.203 209.744 118.285 210.057 118.449C210.371 118.613 210.615 118.835 210.791 119.117C210.967 119.395 211.055 119.71 211.055 120.062C211.055 120.305 211.009 120.542 210.918 120.773C210.831 121.005 210.674 121.264 210.448 121.551C210.226 121.835 209.915 122.178 209.517 122.58L208.216 123.942V123.995H211.16V124.838H206.854ZM211.916 126.46L212.303 123.898H213.331L212.606 126.46H211.916ZM216.508 124.926C216.066 124.926 215.673 124.852 215.331 124.702C214.988 124.55 214.717 124.339 214.518 124.069C214.318 123.8 214.213 123.488 214.201 123.133H215.194C215.209 123.327 215.275 123.494 215.392 123.634C215.509 123.775 215.663 123.885 215.854 123.964C216.047 124.04 216.262 124.078 216.5 124.078C216.757 124.078 216.986 124.033 217.185 123.942C217.384 123.851 217.54 123.727 217.651 123.568C217.765 123.407 217.822 123.221 217.822 123.01C217.822 122.791 217.767 122.597 217.655 122.43C217.544 122.26 217.381 122.128 217.167 122.035C216.954 121.941 216.696 121.894 216.394 121.894H215.836V121.085H216.394C216.634 121.085 216.847 121.042 217.031 120.954C217.216 120.866 217.359 120.744 217.462 120.589C217.567 120.434 217.62 120.25 217.62 120.04C217.62 119.837 217.575 119.662 217.484 119.512C217.393 119.36 217.266 119.243 217.102 119.161C216.938 119.076 216.744 119.033 216.521 119.033C216.308 119.033 216.108 119.071 215.924 119.147C215.739 119.224 215.588 119.333 215.471 119.477C215.357 119.618 215.297 119.789 215.291 119.991H214.337C214.346 119.637 214.449 119.326 214.645 119.06C214.844 118.79 215.108 118.581 215.436 118.431C215.767 118.279 216.133 118.203 216.535 118.203C216.954 118.203 217.315 118.285 217.62 118.449C217.928 118.61 218.165 118.827 218.332 119.099C218.499 119.369 218.583 119.663 218.583 119.982C218.583 120.354 218.48 120.668 218.275 120.923C218.07 121.175 217.796 121.346 217.453 121.437V121.485C217.887 121.553 218.222 121.726 218.459 122.004C218.7 122.282 218.82 122.628 218.82 123.041C218.82 123.401 218.719 123.724 218.517 124.008C218.317 124.292 218.043 124.516 217.695 124.68C217.349 124.844 216.954 124.926 216.508 124.926ZM219.65 124.838V124.126L221.865 121.824C222.1 121.578 222.293 121.361 222.445 121.173C222.601 120.983 222.716 120.803 222.792 120.633C222.872 120.463 222.911 120.283 222.911 120.092C222.911 119.873 222.86 119.684 222.757 119.525C222.655 119.367 222.516 119.246 222.34 119.161C222.164 119.076 221.965 119.033 221.742 119.033C221.508 119.033 221.304 119.082 221.131 119.178C220.958 119.272 220.824 119.407 220.727 119.583C220.633 119.755 220.586 119.959 220.586 120.193H219.646C219.646 119.795 219.737 119.446 219.918 119.147C220.103 118.849 220.355 118.617 220.674 118.453C220.997 118.286 221.36 118.203 221.764 118.203C222.177 118.203 222.541 118.285 222.854 118.449C223.167 118.613 223.412 118.835 223.588 119.117C223.764 119.395 223.852 119.71 223.852 120.062C223.852 120.305 223.806 120.542 223.715 120.773C223.627 121.005 223.471 121.264 223.245 121.551C223.022 121.835 222.712 122.178 222.313 122.58L221.013 123.942V123.995H223.957V124.838H219.65ZM227.156 118.291V124.838H226.181V119.284H226.137L224.581 120.308V119.358L226.207 118.291H227.156Z" fill="#1A1A1C"/>
<rect x="362" y="91.8384" width="159" height="45" rx="6" fill="white"/>
<rect x="370" y="100.838" width="9" height="9" rx="4.5" fill="#C6F56F"/>
<path d="M376.442 105.34C376.408 105.376 376.36 105.398 376.311 105.399C376.257 105.4 376.205 105.379 376.169 105.34L374.698 103.869V107.28C374.696 107.387 374.611 107.473 374.504 107.474C374.398 107.473 374.312 107.387 374.311 107.28V103.869L372.84 105.34C372.791 105.391 372.718 105.411 372.649 105.394C372.581 105.377 372.527 105.324 372.507 105.256C372.488 105.188 372.507 105.115 372.556 105.064L374.362 103.258C374.439 103.185 374.559 103.185 374.636 103.258L376.442 105.064C376.479 105.1 376.5 105.15 376.5 105.202C376.5 105.254 376.479 105.304 376.442 105.34Z" fill="#1A1A1C"/>
<path d="M385.064 107.927C384.7 107.927 384.384 107.869 384.118 107.753C383.851 107.634 383.641 107.47 383.489 107.261C383.338 107.049 383.253 106.804 383.232 106.526H383.868C383.886 106.717 383.951 106.876 384.063 107.001C384.177 107.126 384.322 107.22 384.497 107.281C384.673 107.343 384.862 107.374 385.064 107.374C385.299 107.374 385.51 107.335 385.697 107.257C385.886 107.18 386.035 107.072 386.145 106.933C386.254 106.794 386.309 106.631 386.309 106.444C386.309 106.275 386.261 106.139 386.165 106.034C386.069 105.929 385.944 105.843 385.789 105.777C385.636 105.711 385.47 105.653 385.29 105.603L384.668 105.425C384.269 105.311 383.954 105.148 383.721 104.937C383.491 104.722 383.376 104.443 383.376 104.099C383.376 103.814 383.452 103.566 383.605 103.354C383.76 103.14 383.968 102.973 384.23 102.855C384.495 102.736 384.789 102.677 385.112 102.677C385.44 102.677 385.732 102.736 385.987 102.855C386.243 102.971 386.445 103.131 386.596 103.333C386.746 103.534 386.826 103.762 386.835 104.017H386.233C386.204 103.766 386.083 103.572 385.871 103.433C385.661 103.294 385.402 103.224 385.092 103.224C384.868 103.224 384.673 103.261 384.504 103.333C384.335 103.406 384.204 103.507 384.111 103.634C384.017 103.762 383.971 103.908 383.971 104.072C383.971 104.252 384.027 104.398 384.138 104.509C384.25 104.619 384.382 104.704 384.535 104.766C384.69 104.827 384.83 104.876 384.955 104.913L385.468 105.056C385.6 105.093 385.747 105.142 385.909 105.203C386.073 105.265 386.23 105.348 386.38 105.453C386.533 105.557 386.658 105.692 386.756 105.856C386.854 106.018 386.903 106.218 386.903 106.458C386.903 106.731 386.832 106.979 386.688 107.203C386.544 107.424 386.336 107.6 386.062 107.732C385.789 107.862 385.456 107.927 385.064 107.927ZM388.633 107.927C388.391 107.927 388.171 107.882 387.973 107.791C387.775 107.697 387.618 107.563 387.501 107.387C387.385 107.212 387.327 107 387.327 106.751C387.327 106.533 387.37 106.356 387.457 106.222C387.544 106.085 387.659 105.978 387.802 105.9C387.948 105.821 388.108 105.761 388.281 105.723C388.456 105.684 388.633 105.653 388.811 105.63C389.043 105.601 389.231 105.578 389.375 105.562C389.52 105.546 389.626 105.519 389.692 105.48C389.761 105.441 389.795 105.375 389.795 105.282V105.261C389.795 105.017 389.728 104.828 389.593 104.694C389.461 104.557 389.259 104.489 388.988 104.489C388.71 104.489 388.492 104.55 388.332 104.673C388.173 104.794 388.061 104.924 387.997 105.063L387.437 104.865C387.537 104.632 387.67 104.451 387.836 104.321C388.005 104.191 388.187 104.1 388.383 104.048C388.582 103.995 388.776 103.969 388.968 103.969C389.091 103.969 389.232 103.984 389.392 104.014C389.551 104.041 389.706 104.1 389.856 104.191C390.009 104.28 390.134 104.416 390.232 104.598C390.333 104.778 390.383 105.02 390.383 105.323V107.838H389.795V107.319H389.768C389.729 107.401 389.663 107.49 389.569 107.585C389.476 107.679 389.352 107.76 389.197 107.828C389.044 107.894 388.856 107.927 388.633 107.927ZM388.722 107.401C388.954 107.401 389.15 107.355 389.31 107.264C389.469 107.173 389.59 107.056 389.672 106.912C389.754 106.766 389.795 106.615 389.795 106.458V105.917C389.77 105.947 389.715 105.974 389.631 106C389.549 106.022 389.453 106.043 389.344 106.061C389.237 106.079 389.132 106.095 389.029 106.109C388.927 106.12 388.845 106.129 388.783 106.136C388.631 106.157 388.488 106.19 388.356 106.235C388.224 106.279 388.117 106.344 388.035 106.43C387.955 106.517 387.915 106.635 387.915 106.786C387.915 106.988 387.99 107.142 388.141 107.247C388.293 107.35 388.487 107.401 388.722 107.401ZM394.115 104.017L392.707 107.838H392.105L390.697 104.017H391.333L392.386 107.066H392.427L393.479 104.017H394.115ZM394.566 107.838V104.017H395.147V107.838H394.566ZM394.86 103.381C394.746 103.381 394.648 103.343 394.566 103.265C394.484 103.188 394.443 103.094 394.443 102.985C394.443 102.875 394.484 102.782 394.566 102.705C394.648 102.627 394.746 102.588 394.86 102.588C394.974 102.588 395.072 102.627 395.154 102.705C395.236 102.782 395.277 102.875 395.277 102.985C395.277 103.094 395.236 103.188 395.154 103.265C395.072 103.343 394.974 103.381 394.86 103.381ZM396.48 105.542V107.838H395.899V104.017H396.46V104.619H396.515C396.604 104.423 396.739 104.265 396.921 104.147C397.104 104.028 397.34 103.969 397.629 103.969C397.886 103.969 398.112 104.022 398.306 104.126C398.499 104.231 398.65 104.391 398.757 104.605C398.866 104.817 398.921 105.086 398.921 105.412V107.838H398.34V105.453C398.34 105.154 398.261 104.921 398.104 104.752C397.947 104.581 397.733 104.496 397.461 104.496C397.275 104.496 397.107 104.537 396.959 104.619C396.811 104.701 396.694 104.819 396.607 104.974C396.523 105.129 396.48 105.318 396.48 105.542ZM401.211 109.349C400.785 109.349 400.448 109.272 400.199 109.117C399.953 108.962 399.771 108.784 399.652 108.583L400.117 108.255C400.17 108.326 400.237 108.406 400.319 108.495C400.401 108.586 400.513 108.664 400.654 108.73C400.795 108.797 400.981 108.83 401.211 108.83C401.519 108.83 401.773 108.756 401.973 108.607C402.176 108.459 402.277 108.226 402.277 107.907V107.134H402.223C402.182 107.203 402.121 107.288 402.042 107.391C401.964 107.491 401.851 107.581 401.703 107.661C401.557 107.738 401.359 107.777 401.108 107.777C400.801 107.777 400.525 107.704 400.281 107.558C400.037 107.412 399.844 107.2 399.7 106.922C399.559 106.644 399.488 106.307 399.488 105.911C399.488 105.519 399.557 105.178 399.693 104.889C399.832 104.597 400.025 104.371 400.271 104.212C400.517 104.05 400.801 103.969 401.122 103.969C401.37 103.969 401.568 104.01 401.713 104.092C401.861 104.174 401.974 104.268 402.052 104.373C402.132 104.475 402.193 104.559 402.236 104.625H402.298V104.017H402.858V107.948C402.858 108.276 402.784 108.542 402.636 108.748C402.49 108.955 402.292 109.106 402.042 109.202C401.793 109.3 401.516 109.349 401.211 109.349ZM401.19 107.25C401.544 107.25 401.814 107.131 402 106.892C402.19 106.652 402.284 106.321 402.284 105.897C402.284 105.621 402.243 105.379 402.161 105.169C402.079 104.959 401.956 104.795 401.792 104.677C401.63 104.556 401.43 104.496 401.19 104.496C400.942 104.496 400.735 104.559 400.568 104.687C400.404 104.812 400.281 104.981 400.199 105.193C400.117 105.405 400.076 105.639 400.076 105.897C400.076 106.161 400.117 106.396 400.199 106.601C400.284 106.804 400.409 106.963 400.575 107.08C400.742 107.194 400.947 107.25 401.19 107.25ZM406.311 104.878L405.784 105.022C405.734 104.892 405.647 104.769 405.524 104.653C405.404 104.534 405.215 104.475 404.957 104.475C404.725 104.475 404.531 104.53 404.376 104.639C404.221 104.746 404.144 104.881 404.144 105.042C404.144 105.188 404.196 105.305 404.301 105.391C404.408 105.478 404.574 105.548 404.8 105.603L405.367 105.74C405.707 105.822 405.96 105.948 406.126 106.119C406.295 106.29 406.379 106.508 406.379 106.772C406.379 106.991 406.316 107.187 406.191 107.36C406.066 107.533 405.891 107.67 405.668 107.77C405.445 107.87 405.185 107.92 404.889 107.92C404.499 107.92 404.177 107.835 403.921 107.664C403.668 107.493 403.508 107.246 403.439 106.922L403.993 106.786C404.046 106.991 404.146 107.145 404.294 107.247C404.444 107.35 404.64 107.401 404.882 107.401C405.153 107.401 405.369 107.343 405.531 107.227C405.695 107.108 405.777 106.968 405.777 106.806C405.777 106.537 405.588 106.357 405.21 106.266L404.574 106.116C404.223 106.031 403.966 105.903 403.802 105.729C403.638 105.556 403.556 105.339 403.556 105.077C403.556 104.86 403.616 104.669 403.737 104.502C403.86 104.336 404.027 104.206 404.239 104.113C404.451 104.017 404.69 103.969 404.957 103.969C405.338 103.969 405.635 104.054 405.849 104.222C406.066 104.389 406.219 104.607 406.311 104.878Z" fill="#1A1A1C" fill-opacity="0.6"/>
<path d="M372.461 125.656V117.473H372.979V125.656H372.461ZM372.72 124.944C372.231 124.944 371.806 124.868 371.446 124.715C371.088 124.56 370.809 124.339 370.606 124.052C370.404 123.765 370.292 123.423 370.268 123.028H371.261C371.282 123.265 371.358 123.463 371.49 123.621C371.625 123.776 371.799 123.892 372.013 123.968C372.227 124.044 372.461 124.083 372.716 124.083C372.994 124.083 373.243 124.039 373.463 123.951C373.683 123.863 373.854 123.74 373.977 123.582C374.103 123.42 374.166 123.233 374.166 123.019C374.166 122.826 374.11 122.667 373.999 122.544C373.891 122.421 373.743 122.32 373.555 122.241C373.368 122.159 373.157 122.087 372.922 122.026L372.153 121.815C371.626 121.674 371.21 121.465 370.905 121.187C370.601 120.905 370.448 120.538 370.448 120.083C370.448 119.706 370.549 119.376 370.751 119.095C370.957 118.813 371.233 118.595 371.582 118.44C371.934 118.282 372.328 118.203 372.764 118.203C373.209 118.203 373.601 118.282 373.938 118.44C374.277 118.595 374.545 118.809 374.742 119.082C374.941 119.351 375.045 119.66 375.054 120.009H374.096C374.061 119.707 373.92 119.473 373.674 119.306C373.431 119.139 373.12 119.055 372.742 119.055C372.479 119.055 372.247 119.098 372.048 119.183C371.852 119.265 371.699 119.379 371.591 119.525C371.485 119.672 371.433 119.84 371.433 120.031C371.433 120.236 371.496 120.403 371.622 120.532C371.75 120.661 371.906 120.763 372.087 120.839C372.272 120.913 372.449 120.973 372.619 121.02L373.256 121.191C373.464 121.244 373.678 121.314 373.898 121.402C374.118 121.49 374.321 121.605 374.509 121.749C374.699 121.89 374.852 122.065 374.966 122.276C375.083 122.484 375.142 122.736 375.142 123.032C375.142 123.398 375.046 123.727 374.856 124.017C374.666 124.304 374.39 124.531 374.03 124.698C373.669 124.862 373.233 124.944 372.72 124.944ZM378.218 118.291V124.838H377.242V119.284H377.198L375.643 120.308V119.358L377.269 118.291H378.218ZM381.461 124.926C380.957 124.926 380.525 124.794 380.165 124.531C379.807 124.267 379.533 123.886 379.343 123.388C379.155 122.887 379.062 122.281 379.062 121.569C379.062 120.86 379.157 120.255 379.347 119.754C379.538 119.25 379.812 118.866 380.169 118.603C380.529 118.336 380.96 118.203 381.461 118.203C381.965 118.203 382.396 118.336 382.753 118.603C383.113 118.866 383.387 119.25 383.575 119.754C383.765 120.255 383.86 120.86 383.86 121.569C383.86 122.281 383.767 122.887 383.579 123.388C383.392 123.886 383.119 124.267 382.762 124.531C382.404 124.794 381.971 124.926 381.461 124.926ZM381.461 124.083C381.769 124.083 382.028 123.984 382.239 123.788C382.45 123.592 382.611 123.306 382.722 122.931C382.833 122.553 382.889 122.099 382.889 121.569C382.889 121.036 382.833 120.582 382.722 120.207C382.611 119.829 382.45 119.542 382.239 119.345C382.028 119.146 381.769 119.046 381.461 119.046C381.007 119.046 380.655 119.268 380.406 119.71C380.16 120.149 380.037 120.769 380.037 121.569C380.037 122.099 380.093 122.553 380.204 122.931C380.315 123.306 380.477 123.592 380.688 123.788C380.901 123.984 381.159 124.083 381.461 124.083ZM384.309 126.46L384.695 123.898H385.724L384.999 126.46H384.309ZM388.896 124.926C388.393 124.926 387.96 124.794 387.6 124.531C387.243 124.267 386.969 123.886 386.778 123.388C386.591 122.887 386.497 122.281 386.497 121.569C386.497 120.86 386.592 120.255 386.783 119.754C386.973 119.25 387.247 118.866 387.604 118.603C387.965 118.336 388.396 118.203 388.896 118.203C389.4 118.203 389.831 118.336 390.188 118.603C390.549 118.866 390.823 119.25 391.01 119.754C391.201 120.255 391.296 120.86 391.296 121.569C391.296 122.281 391.202 122.887 391.015 123.388C390.827 123.886 390.555 124.267 390.197 124.531C389.84 124.794 389.406 124.926 388.896 124.926ZM388.896 124.083C389.204 124.083 389.463 123.984 389.674 123.788C389.885 123.592 390.046 123.306 390.158 122.931C390.269 122.553 390.325 122.099 390.325 121.569C390.325 121.036 390.269 120.582 390.158 120.207C390.046 119.829 389.885 119.542 389.674 119.345C389.463 119.146 389.204 119.046 388.896 119.046C388.442 119.046 388.091 119.268 387.842 119.71C387.596 120.149 387.473 120.769 387.473 121.569C387.473 122.099 387.528 122.553 387.64 122.931C387.751 123.306 387.912 123.592 388.123 123.788C388.337 123.984 388.595 124.083 388.896 124.083ZM394.337 124.926C393.833 124.926 393.401 124.794 393.041 124.531C392.683 124.267 392.409 123.886 392.219 123.388C392.031 122.887 391.938 122.281 391.938 121.569C391.938 120.86 392.033 120.255 392.223 119.754C392.414 119.25 392.688 118.866 393.045 118.603C393.405 118.336 393.836 118.203 394.337 118.203C394.841 118.203 395.271 118.336 395.629 118.603C395.989 118.866 396.263 119.25 396.451 119.754C396.641 120.255 396.736 120.86 396.736 121.569C396.736 122.281 396.643 122.887 396.455 123.388C396.268 123.886 395.995 124.267 395.638 124.531C395.28 124.794 394.847 124.926 394.337 124.926ZM394.337 124.083C394.645 124.083 394.904 123.984 395.115 123.788C395.326 123.592 395.487 123.306 395.598 122.931C395.709 122.553 395.765 122.099 395.765 121.569C395.765 121.036 395.709 120.582 395.598 120.207C395.487 119.829 395.326 119.542 395.115 119.345C394.904 119.146 394.645 119.046 394.337 119.046C393.883 119.046 393.531 119.268 393.282 119.71C393.036 120.149 392.913 120.769 392.913 121.569C392.913 122.099 392.969 122.553 393.08 122.931C393.191 123.306 393.353 123.592 393.563 123.788C393.777 123.984 394.035 124.083 394.337 124.083ZM399.777 124.926C399.273 124.926 398.841 124.794 398.481 124.531C398.124 124.267 397.85 123.886 397.659 123.388C397.472 122.887 397.378 122.281 397.378 121.569C397.378 120.86 397.473 120.255 397.664 119.754C397.854 119.25 398.128 118.866 398.485 118.603C398.846 118.336 399.276 118.203 399.777 118.203C400.281 118.203 400.712 118.336 401.069 118.603C401.43 118.866 401.704 119.25 401.891 119.754C402.082 120.255 402.177 120.86 402.177 121.569C402.177 122.281 402.083 122.887 401.896 123.388C401.708 123.886 401.436 124.267 401.078 124.531C400.721 124.794 400.287 124.926 399.777 124.926ZM399.777 124.083C400.085 124.083 400.344 123.984 400.555 123.788C400.766 123.592 400.927 123.306 401.039 122.931C401.15 122.553 401.206 122.099 401.206 121.569C401.206 121.036 401.15 120.582 401.039 120.207C400.927 119.829 400.766 119.542 400.555 119.345C400.344 119.146 400.085 119.046 399.777 119.046C399.323 119.046 398.972 119.268 398.723 119.71C398.477 120.149 398.354 120.769 398.354 121.569C398.354 122.099 398.409 122.553 398.521 122.931C398.632 123.306 398.793 123.592 399.004 123.788C399.218 123.984 399.476 124.083 399.777 124.083Z" fill="#1A1A1C"/>
</svg>
