<svg width="545" height="168" viewBox="0 0 545 168" fill="none" xmlns="http://www.w3.org/2000/svg">
<g clip-path="url(#clip0_1_2017)">
<rect width="545" height="167.677" fill="white" fill-opacity="0.15"/>
<path d="M24 51.1997C43.7549 49.1546 70.5468 43.3357 99.7399 57.3349C115.592 64.9367 135.863 78.0579 161.293 71.0369C183.958 64.7794 213.235 39.9518 256.254 57.3349C272.5 63.8791 303.937 76.3167 333.824 57.3349C366.344 36.6806 367.451 20.3201 426.029 36.6806C455.309 44.8582 480.727 44.2462 521 24" stroke="white" stroke-width="2" stroke-linecap="round"/>
<path opacity="0.5" d="M24.3818 80.4857C88.8288 67.9722 124.275 115.182 177.766 75.3658C203.095 56.5121 215.789 44.9938 257.358 40.443C309.733 34.7091 355.709 95.5472 413.055 61.6858C470.4 27.8244 474.523 75.3658 520.624 57.4488" stroke="white" stroke-width="2" stroke-linecap="round"/>
<g filter="url(#filter0_ddddd_1_2017)">
<rect x="22.5" y="111.677" width="32" height="32" rx="16" fill="white"/>
<path fill-rule="evenodd" clip-rule="evenodd" d="M36.3918 124.407C36.3806 124.407 36.3591 124.407 36.348 124.407C36.1633 124.384 36.0112 124.215 36.0112 124.023C36.0001 123.843 35.9021 119.623 38.2826 118.664C38.8805 118.427 39.4354 118.472 39.9027 118.822C40.4784 119.239 40.8915 120.074 41.1415 121.293C41.3151 122.15 41.3478 122.895 41.3478 122.929C41.3589 123.109 41.218 123.245 41.0325 123.211C40.8478 123.188 40.6957 123.019 40.6957 122.838C40.6631 122.071 40.4131 119.961 39.5875 119.352C39.3263 119.16 38.9999 119.138 38.609 119.296C36.5653 120.119 36.6632 124.08 36.6632 124.125C36.6632 124.283 36.555 124.407 36.3918 124.407Z" fill="#595961"/>
<path opacity="0.46" fill-rule="evenodd" clip-rule="evenodd" d="M39.7827 118.844C39.348 118.528 38.8376 118.483 38.2827 118.697C37.3154 119.092 36.6307 120.13 36.294 121.71C36.044 122.872 36.0766 123.921 36.0766 123.967C36.0766 124.023 36.0981 124.079 36.1419 124.125C36.1849 124.17 36.2287 124.204 36.2828 124.204C36.294 124.204 36.3051 124.204 36.3155 124.204C36.4134 124.204 36.4898 124.125 36.4898 124.023C36.4898 123.978 36.3919 119.95 38.4897 119.104C38.9133 118.934 39.2827 118.957 39.5876 119.183C40.4674 119.826 40.7285 122.003 40.7611 122.782C40.7611 122.895 40.859 123.008 40.9785 123.019C41.0875 123.03 41.1743 122.951 41.1743 122.838C41.1632 122.703 41.0438 119.769 39.7827 118.844Z" fill="#1A1A1C" fill-opacity="0.1"/>
<path opacity="0.46" fill-rule="evenodd" clip-rule="evenodd" d="M36.2931 124.068C36.282 124.068 36.282 124.068 36.2716 124.068C36.2063 124.057 36.1514 123.989 36.141 123.921C36.141 123.876 36.1084 122.85 36.3584 121.687C36.6841 120.142 37.3695 119.115 38.3145 118.731C38.8472 118.517 39.3257 118.562 39.7388 118.855C40.9561 119.747 41.0756 122.635 41.0756 122.759C41.0756 122.827 41.0214 122.872 40.9561 122.861C40.8909 122.85 40.8367 122.793 40.8256 122.714C40.8256 122.68 40.7061 119.848 39.6083 119.036C39.2819 118.799 38.8798 118.765 38.4236 118.946C36.2931 119.837 36.3911 123.921 36.3911 123.967C36.4014 124.023 36.3584 124.068 36.2931 124.068Z" fill="#1A1A1C" fill-opacity="0.1"/>
<path opacity="0.62" fill-rule="evenodd" clip-rule="evenodd" d="M36.9343 121.564C36.9996 121.383 37.0648 121.191 37.1086 121.011C37.0871 121.078 36.978 121.688 36.2822 121.688C36.2822 121.688 36.6843 121.767 36.9343 121.564Z" fill="#595961"/>
<path opacity="0.62" fill-rule="evenodd" clip-rule="evenodd" d="M37.1742 120.841C37.261 120.672 37.3477 120.503 37.4241 120.322C37.3915 120.379 37.1741 120.965 36.511 120.875C36.4998 120.875 36.9019 120.999 37.1742 120.841Z" fill="#595961"/>
<path opacity="0.62" fill-rule="evenodd" clip-rule="evenodd" d="M37.4894 120.221C37.6199 120.085 37.7282 119.939 37.8476 119.781C37.8046 119.826 37.4456 120.289 36.8047 120.119C36.8047 120.119 37.1741 120.322 37.4894 120.221Z" fill="#595961"/>
<path opacity="0.62" fill-rule="evenodd" clip-rule="evenodd" d="M40.7501 120.108C40.6633 119.905 40.5653 119.713 40.4674 119.51C40.5 119.578 40.8265 120.221 40.457 120.684C40.457 120.684 40.7397 120.458 40.7501 120.108Z" fill="#595961"/>
<path opacity="0.62" fill-rule="evenodd" clip-rule="evenodd" d="M37.8917 119.702C38.0438 119.589 38.1847 119.476 38.3264 119.352C38.2722 119.386 37.8264 119.758 37.207 119.487C37.207 119.487 37.5653 119.747 37.8917 119.702Z" fill="#595961"/>
<path opacity="0.62" fill-rule="evenodd" clip-rule="evenodd" d="M38.4782 119.329C38.6629 119.273 38.8373 119.205 39.0108 119.137C38.9456 119.16 38.3914 119.363 37.8477 118.934C37.8588 118.934 38.1414 119.273 38.4782 119.329Z" fill="#595961"/>
<path opacity="0.62" fill-rule="evenodd" clip-rule="evenodd" d="M40.1521 119.093C39.9778 118.946 39.8042 118.811 39.6299 118.687C39.6952 118.743 40.2715 119.16 40.2389 119.792C40.2278 119.792 40.3257 119.42 40.1521 119.093Z" fill="#595961"/>
<path opacity="0.62" fill-rule="evenodd" clip-rule="evenodd" d="M39.6408 119.374C39.7491 119.499 39.8693 119.623 39.9991 119.735C39.9561 119.69 39.5867 119.318 39.6735 118.855C39.6624 118.855 39.5429 119.115 39.6408 119.374Z" fill="#595961"/>
<path opacity="0.62" fill-rule="evenodd" clip-rule="evenodd" d="M39.011 119.127C39.1631 119.149 39.3152 119.161 39.4672 119.172C39.4131 119.161 38.9346 119.127 38.6631 118.675C38.6631 118.675 38.7722 118.98 39.011 119.127Z" fill="#595961"/>
<path opacity="0.74" fill-rule="evenodd" clip-rule="evenodd" d="M40.9561 122.703C40.9561 122.579 40.8367 119.724 39.652 118.856C39.4236 118.686 39.1736 118.607 38.9125 118.607C38.7166 118.607 38.5104 118.653 38.293 118.743C37.3472 119.115 36.6841 120.119 36.3584 121.654C36.1084 122.805 36.141 123.831 36.141 123.877C36.141 123.91 36.1737 123.944 36.2063 123.944H36.2167C36.2493 123.944 36.2716 123.922 36.2716 123.888C36.2716 123.843 36.1626 119.724 38.3472 118.844C38.8256 118.653 39.2388 118.686 39.5868 118.946C40.7165 119.77 40.8367 122.647 40.8367 122.681C40.8367 122.714 40.8693 122.748 40.902 122.748C40.902 122.748 40.902 122.748 40.9124 122.748C40.9346 122.76 40.9561 122.737 40.9561 122.703Z" fill="url(#paint0_linear_1_2017)"/>
<path fill-rule="evenodd" clip-rule="evenodd" d="M41.1409 121.293C40.8909 120.074 40.4777 119.251 39.9021 118.822C39.5868 118.596 39.2493 118.495 38.8799 118.517C39.1736 118.54 39.4451 118.641 39.6951 118.822C40.2715 119.239 40.6847 120.074 40.9347 121.293C41.1083 122.15 41.1409 122.895 41.1409 122.929C41.1409 123.064 41.0756 123.166 40.9666 123.2C40.9888 123.211 41.0104 123.211 41.0215 123.211C41.2062 123.234 41.3471 123.109 41.3368 122.929C41.3471 122.895 41.3145 122.162 41.1409 121.293Z" fill="url(#paint1_linear_1_2017)"/>
<path fill-rule="evenodd" clip-rule="evenodd" d="M38.4023 119.296C36.3587 120.119 36.4565 124.079 36.4565 124.125C36.4565 124.26 36.3913 124.362 36.2822 124.395C36.3045 124.407 36.3149 124.407 36.3371 124.407C36.3475 124.407 36.3698 124.407 36.3802 124.407C36.5434 124.407 36.6516 124.283 36.6516 124.125C36.6516 124.079 36.5545 120.13 38.5974 119.307C38.7391 119.25 38.8696 119.217 38.9891 119.205C38.8147 119.171 38.6197 119.205 38.4023 119.296Z" fill="url(#paint2_linear_1_2017)"/>
<path fill-rule="evenodd" clip-rule="evenodd" d="M41.4995 120.277L32.2826 123.233C32.2826 123.233 31.8917 123.346 31.7937 123.47C31.6958 123.594 31.6743 123.944 31.6743 123.944L30.25 135.34L40.9454 137.416L41.7718 120.266C41.6523 120.243 41.5322 120.266 41.4995 120.277Z" fill="url(#paint3_linear_1_2017)"/>
<path fill-rule="evenodd" clip-rule="evenodd" d="M37.6952 129.8C37.5321 129.574 37.3369 129.371 37.1411 129.191C36.9453 129.01 36.7391 128.863 36.5321 128.728C36.3912 128.638 36.2606 128.547 36.1516 128.457C36.0432 128.367 35.9564 128.277 35.8912 128.198C35.8259 128.107 35.7717 128.028 35.7391 127.938C35.7064 127.848 35.6953 127.758 35.6953 127.667C35.6953 127.543 35.728 127.419 35.7717 127.318C35.8148 127.216 35.8912 127.126 35.9668 127.047C36.0544 126.968 36.1515 126.911 36.2717 126.866C36.3911 126.821 36.5321 126.799 36.6841 126.787C36.8473 126.776 37.0105 126.787 37.1626 126.799C37.3147 126.81 37.4564 126.844 37.5973 126.878C37.7279 126.911 37.8584 126.957 37.9667 127.002C38.0758 127.047 38.1841 127.092 38.2605 127.137L38.9778 124.926C38.8695 124.869 38.739 124.813 38.5973 124.779C38.4452 124.734 38.282 124.7 38.0973 124.677C37.9126 124.655 37.7167 124.644 37.5105 124.644C37.3043 124.644 37.087 124.655 36.8585 124.689C36.3696 124.756 35.9342 124.892 35.5433 125.095C35.1738 125.287 34.8474 125.535 34.5759 125.84C34.3148 126.133 34.1086 126.471 33.9565 126.855C33.8148 127.227 33.7281 127.645 33.7065 128.096C33.6954 128.367 33.7169 128.615 33.7822 128.841C33.8364 129.066 33.9239 129.281 34.0433 129.484C34.1516 129.687 34.2933 129.868 34.4454 130.037C34.5974 130.206 34.7821 130.364 34.9669 130.511C35.1189 130.623 35.2495 130.736 35.3585 130.838C35.4668 130.939 35.5544 131.041 35.6189 131.154C35.6842 131.255 35.728 131.357 35.7606 131.47C35.7932 131.571 35.8044 131.684 35.7932 131.797C35.7932 131.91 35.7606 132.023 35.7169 132.113C35.6738 132.203 35.6189 132.293 35.5321 132.361C35.4565 132.429 35.3586 132.474 35.2495 132.496C35.1412 132.519 35.0107 132.53 34.869 132.508C34.7065 132.485 34.5433 132.44 34.3912 132.372C34.2391 132.316 34.0864 132.237 33.9454 132.158C33.8045 132.079 33.6739 131.989 33.5649 131.91C33.4454 131.831 33.3475 131.74 33.2718 131.673L32.7822 133.354C32.8586 133.467 32.967 133.568 33.0864 133.67C33.2066 133.771 33.3475 133.873 33.5107 133.974C33.6739 134.065 33.8475 134.155 34.0322 134.234C34.2169 134.313 34.4239 134.381 34.6301 134.437H34.6412H34.6516H34.6627H34.6739C35.119 134.539 35.5433 134.561 35.9453 134.505C36.3585 134.448 36.739 134.302 37.0647 134.076C37.4015 133.839 37.6737 133.523 37.8799 133.106C38.0869 132.688 38.2063 132.181 38.2278 131.605C38.239 131.244 38.1952 130.928 38.0973 130.635C37.9994 130.296 37.8584 130.037 37.6952 129.8Z" fill="url(#paint4_linear_1_2017)"/>
<path opacity="0.226763" fill-rule="evenodd" clip-rule="evenodd" d="M32.8526 133.446C32.8274 133.416 32.8036 133.385 32.7821 133.354L33.2717 131.673C33.2784 131.679 33.2858 131.686 33.2933 131.692C33.366 131.757 33.4565 131.838 33.5648 131.91C33.6738 131.989 33.8044 132.079 33.9453 132.158C34.0863 132.237 34.239 132.316 34.3911 132.372C34.5432 132.44 34.7064 132.485 34.8689 132.508C35.0106 132.53 35.1411 132.519 35.2494 132.497C35.3585 132.474 35.4564 132.429 35.532 132.361C35.6188 132.293 35.6737 132.203 35.7168 132.113C35.7605 132.023 35.7931 131.91 35.7931 131.797C35.8043 131.684 35.7931 131.571 35.7605 131.47C35.7279 131.357 35.6841 131.255 35.6188 131.154C35.5573 131.047 35.4756 130.95 35.374 130.853C35.4274 130.913 35.4727 130.975 35.5105 131.041C35.5758 131.143 35.6188 131.244 35.6515 131.357C35.6841 131.458 35.6952 131.571 35.6841 131.684C35.6841 131.797 35.6515 131.91 35.6085 132C35.5647 132.09 35.5105 132.181 35.4237 132.248C35.3473 132.316 35.2494 132.361 35.1411 132.384C35.0321 132.406 34.9015 132.418 34.7606 132.395C34.5974 132.372 34.4342 132.327 34.2821 132.26C34.13 132.203 33.9779 132.124 33.8363 132.045C33.6953 131.966 33.5648 131.876 33.4565 131.797C33.3474 131.725 33.2569 131.644 33.1842 131.579C33.1768 131.573 33.1701 131.566 33.1627 131.56L32.6738 133.241C32.722 133.313 32.7836 133.38 32.8526 133.446ZM34.4542 130.047C34.4134 130.007 34.3741 129.966 34.3362 129.924C34.1842 129.755 34.0432 129.574 33.9342 129.371C33.8148 129.168 33.728 128.954 33.6738 128.728C33.6085 128.502 33.5862 128.254 33.5974 127.983C33.6189 127.532 33.7064 127.115 33.8474 126.742C33.9995 126.359 34.2064 126.02 34.4668 125.727C34.7391 125.422 35.0647 125.174 35.4341 124.982C35.8258 124.779 36.2605 124.644 36.7493 124.576C36.9778 124.542 37.1952 124.531 37.4014 124.531C37.6084 124.531 37.8042 124.542 37.9889 124.565C38.1736 124.587 38.3368 124.621 38.4889 124.666C38.6298 124.7 38.7604 124.756 38.8694 124.813L38.8524 124.866C38.7737 124.831 38.6877 124.801 38.5972 124.779C38.4451 124.734 38.2819 124.7 38.0972 124.677C37.9125 124.655 37.7166 124.644 37.5104 124.644C37.3042 124.644 37.0869 124.655 36.8584 124.689C36.3695 124.756 35.9341 124.892 35.5432 125.095C35.1737 125.287 34.8473 125.535 34.5758 125.84C34.3147 126.133 34.1085 126.471 33.9564 126.855C33.8147 127.227 33.728 127.645 33.7064 128.096C33.6953 128.367 33.7168 128.615 33.7821 128.841C33.8363 129.067 33.9238 129.281 34.0432 129.484C34.1515 129.687 34.2932 129.868 34.4453 130.037C34.4482 130.04 34.4512 130.044 34.4542 130.047ZM35.9304 128.244C35.9897 128.311 36.0639 128.384 36.1515 128.457C36.2605 128.547 36.3911 128.638 36.532 128.728C36.739 128.863 36.9452 129.01 37.141 129.191C37.1981 129.243 37.2545 129.298 37.3109 129.354C37.2204 129.257 37.1262 129.165 37.0319 129.078C36.8368 128.897 36.6299 128.751 36.4237 128.615C36.282 128.525 36.1515 128.435 36.0432 128.344C36.0024 128.311 35.9652 128.277 35.9304 128.244Z" fill="#1A1A1C"/>
<path fill-rule="evenodd" clip-rule="evenodd" d="M34.315 122.59C34.1629 122.929 34.0109 123.222 33.9018 123.425C33.8046 123.594 33.8588 123.775 34.022 123.82C34.1844 123.876 34.4018 123.775 34.4997 123.606C34.5108 123.583 34.8261 123.03 35.1088 122.331L34.315 122.59Z" fill="url(#paint5_linear_1_2017)"/>
<path fill-rule="evenodd" clip-rule="evenodd" d="M39.2168 121.011C39.087 121.541 38.9239 122.038 38.8044 122.342C38.728 122.523 38.8148 122.692 38.978 122.715C39.1523 122.737 39.3474 122.613 39.4127 122.432C39.4238 122.399 39.7168 121.665 39.9023 120.796V120.785L39.2168 121.011Z" fill="url(#paint6_linear_1_2017)"/>
<path fill-rule="evenodd" clip-rule="evenodd" d="M44.6844 121.744C44.6844 121.744 44.6733 121.654 44.6191 121.62C44.5753 121.586 44.5212 121.586 44.5212 121.586L43.0101 121.473L41.9019 120.334C41.8581 120.3 41.8143 120.277 41.7602 120.266L40.9346 137.416L46.7273 136.119L44.6844 121.744Z" fill="url(#paint7_linear_1_2017)"/>
<path opacity="0.41" fill-rule="evenodd" clip-rule="evenodd" d="M43.3799 134.223L43.0105 121.473L42.9452 121.406L43.1196 134.042C43.1196 134.042 41.587 136.457 41.3585 136.389C41.0217 136.288 42.0217 120.458 42.0217 120.458L41.9126 120.345C41.8696 120.311 41.8147 120.289 41.7717 120.277L40.9565 137.19L40.9453 137.427L41.2279 137.055L43.3799 134.223Z" fill="url(#paint8_linear_1_2017)"/>
<path opacity="0.32" fill-rule="evenodd" clip-rule="evenodd" d="M40.9453 137.416L43.3799 134.223L46.75 136.118L40.9453 137.416Z" fill="url(#paint9_linear_1_2017)"/>
<path opacity="0.19" fill-rule="evenodd" clip-rule="evenodd" d="M40.9453 137.416L43.3584 134.223L46.75 136.118L40.9453 137.416Z" fill="url(#paint10_linear_1_2017)"/>
<path opacity="0.19" fill-rule="evenodd" clip-rule="evenodd" d="M40.9453 137.416L43.3584 134.223L46.75 136.118L40.9453 137.416Z" fill="url(#paint11_linear_1_2017)"/>
<path fill-rule="evenodd" clip-rule="evenodd" d="M44.6301 121.631C44.685 121.676 44.685 121.744 44.685 121.744L46.7064 136.107L43.3802 134.212L43.0107 121.462L44.5003 121.575C44.5107 121.586 44.5759 121.586 44.6301 121.631Z" fill="url(#paint12_linear_1_2017)"/>
<path fill-rule="evenodd" clip-rule="evenodd" d="M44.3909 121.665C44.3909 121.665 44.4562 121.665 44.5103 121.722C44.5645 121.767 44.5755 121.835 44.5755 121.835L46.5651 136.04L46.7172 136.13L44.695 121.756C44.695 121.756 44.6846 121.688 44.6408 121.643C44.5867 121.598 44.5103 121.598 44.5103 121.598L43.0215 121.485L44.3909 121.665Z" fill="url(#paint13_linear_1_2017)"/>
<path opacity="0.6" fill-rule="evenodd" clip-rule="evenodd" d="M38.5763 128.48C39.8373 130.251 40.6852 132.169 41.1088 134.031L41.772 120.255C41.6525 120.232 41.5324 120.255 41.4997 120.266L32.2828 123.233C32.2828 123.233 32.196 123.256 32.0869 123.301C34.4243 124.136 36.7611 125.93 38.5763 128.48Z" fill="url(#paint14_linear_1_2017)"/>
<path fill-rule="evenodd" clip-rule="evenodd" d="M30.25 135.339L40.9454 137.416L41.4676 125.659L31.58 125.94L30.25 135.339Z" fill="url(#paint15_linear_1_2017)"/>
<path opacity="0.3" fill-rule="evenodd" clip-rule="evenodd" d="M33.7606 123.398C33.6634 123.672 33.7591 123.96 33.9757 124.041C34.1916 124.123 34.4453 123.966 34.5432 123.692C34.6404 123.418 34.544 123.13 34.3281 123.048C34.1122 122.967 33.8578 123.123 33.7606 123.398Z" fill="white"/>
<path opacity="0.89" fill-rule="evenodd" clip-rule="evenodd" d="M33.7488 123.268C33.6516 123.542 33.748 123.83 33.9639 123.911C34.1798 123.993 34.4342 123.836 34.5314 123.562C34.6286 123.288 34.5329 123 34.3163 122.918C34.1004 122.837 33.8467 122.993 33.7488 123.268Z" fill="#1A1A1C"/>
<path fill-rule="evenodd" clip-rule="evenodd" d="M43.0216 121.473L41.9126 120.334C41.8696 120.3 41.8147 120.277 41.7717 120.266L40.9453 137.416L43.391 134.212L43.0216 121.473Z" fill="url(#paint16_linear_1_2017)"/>
<path fill-rule="evenodd" clip-rule="evenodd" d="M41.4998 120.277L32.2829 123.233C32.2829 123.233 31.8919 123.346 31.794 123.47C31.7829 123.482 31.7828 123.493 31.7725 123.504L41.0651 120.841C41.1415 120.819 41.3262 120.751 41.3047 121.304L40.7394 137.393L40.9353 137.427L41.7609 120.277C41.6526 120.243 41.5324 120.266 41.4998 120.277Z" fill="url(#paint17_linear_1_2017)"/>
<path fill-rule="evenodd" clip-rule="evenodd" d="M41.4998 120.277L32.2829 123.233C32.2829 123.233 31.8919 123.346 31.794 123.47C31.7829 123.482 31.7828 123.493 31.7725 123.504L33.9244 122.883L41.3262 120.503C41.3589 120.492 41.4783 120.469 41.5977 120.492L40.7825 137.393L40.9353 137.427L41.7609 120.277C41.6526 120.243 41.5324 120.266 41.4998 120.277Z" fill="url(#paint18_linear_1_2017)"/>
<path opacity="0.32" fill-rule="evenodd" clip-rule="evenodd" d="M43.8692 134.493L43.3795 134.211L40.9346 137.416L41.0644 137.382C41.0644 137.382 43.2171 134.505 43.4122 134.415C43.5539 134.358 43.8692 134.493 43.8692 134.493Z" fill="url(#paint19_linear_1_2017)"/>
<path opacity="0.57" fill-rule="evenodd" clip-rule="evenodd" d="M40.9453 137.416L43.391 134.211C43.3799 134.223 41.837 135.972 40.9453 137.416Z" fill="url(#paint20_linear_1_2017)"/>
<path opacity="0.46" fill-rule="evenodd" clip-rule="evenodd" d="M46.7498 136.118L43.3909 134.223C43.3797 134.223 43.7714 134.29 46.7498 136.118Z" fill="url(#paint21_linear_1_2017)"/>
<path opacity="0.3" fill-rule="evenodd" clip-rule="evenodd" d="M38.7307 122.273C38.6328 122.547 38.7292 122.835 38.9451 122.916C39.1617 122.998 39.4154 122.841 39.5126 122.567C39.6105 122.293 39.514 122.005 39.2982 121.923C39.0823 121.842 38.8279 121.998 38.7307 122.273Z" fill="white"/>
<path opacity="0.89" fill-rule="evenodd" clip-rule="evenodd" d="M38.7185 122.143C38.6213 122.417 38.7178 122.706 38.9337 122.787C39.1495 122.868 39.4039 122.712 39.5011 122.438C39.5983 122.164 39.5026 121.875 39.2867 121.794C39.0701 121.713 38.8164 121.869 38.7185 122.143Z" fill="#1A1A1C"/>
<path fill-rule="evenodd" clip-rule="evenodd" d="M34.142 123.82C34.1309 123.82 34.1093 123.82 34.0982 123.82C33.9246 123.797 33.8052 123.628 33.8267 123.436C33.8482 123.256 34.4676 119.036 37.0113 118.077C37.6522 117.84 38.1959 117.885 38.6091 118.235C39.1091 118.652 39.3806 119.487 39.4244 120.706C39.457 121.563 39.3591 122.308 39.3591 122.342C39.3376 122.522 39.1744 122.658 39.0001 122.624C38.8265 122.601 38.6959 122.432 38.7286 122.252C38.8265 121.484 38.9348 119.374 38.2071 118.765C37.9786 118.573 37.6634 118.551 37.2398 118.709C35.0552 119.532 34.4787 123.493 34.4787 123.526C34.435 123.696 34.3052 123.82 34.142 123.82Z" fill="#595961"/>
<path opacity="0.46" fill-rule="evenodd" clip-rule="evenodd" d="M38.4783 118.258C38.0977 117.942 37.5977 117.897 36.9999 118.111C35.9673 118.506 35.0978 119.544 34.4999 121.112C34.0548 122.274 33.902 123.324 33.902 123.369C33.8917 123.425 33.9132 123.482 33.9458 123.527C33.9785 123.572 34.0222 123.606 34.0764 123.606C34.0867 123.606 34.0979 123.606 34.109 123.606C34.2069 123.606 34.2937 123.527 34.3048 123.425C34.3152 123.38 34.8916 119.352 37.1415 118.506C37.5977 118.337 37.9671 118.359 38.2282 118.585C38.9997 119.228 38.8914 121.406 38.7935 122.184C38.7824 122.297 38.8588 122.41 38.9671 122.421C39.0762 122.432 39.1844 122.353 39.1956 122.241C39.2067 122.116 39.5873 119.183 38.4783 118.258Z" fill="#1A1A1C" fill-opacity="0.1"/>
<path opacity="0.81" fill-rule="evenodd" clip-rule="evenodd" d="M34.0977 123.482C34.0866 123.482 34.0866 123.482 34.0762 123.482C34.0109 123.47 33.9672 123.403 33.9783 123.335C33.9894 123.29 34.1304 122.263 34.5762 121.101C35.1741 119.555 36.022 118.528 37.0323 118.145C37.6087 117.93 38.076 117.976 38.4343 118.269C39.4996 119.16 39.1302 122.049 39.1086 122.173C39.0975 122.241 39.0434 122.286 38.967 122.274C38.9024 122.263 38.8587 122.207 38.8587 122.128C38.8587 122.094 39.2281 119.262 38.2719 118.449C37.9893 118.235 37.5976 118.213 37.1199 118.393C34.8262 119.262 34.2283 123.335 34.2283 123.38C34.2172 123.437 34.163 123.482 34.0977 123.482Z" fill="#1A1A1C" fill-opacity="0.1"/>
<path opacity="0.42" fill-rule="evenodd" clip-rule="evenodd" d="M34.6305 122.545C34.6958 122.342 34.7396 122.139 34.7826 121.947C34.7611 122.014 34.6632 122.658 34 122.816C34.0111 122.816 34.402 122.804 34.6305 122.545Z" fill="#595961"/>
<path opacity="0.42" fill-rule="evenodd" clip-rule="evenodd" d="M34.8805 121.721C34.9673 121.53 35.0326 121.338 35.0979 121.146C35.0653 121.214 34.9458 121.834 34.2285 121.913C34.2285 121.902 34.6194 121.947 34.8805 121.721Z" fill="#595961"/>
<path opacity="0.42" fill-rule="evenodd" clip-rule="evenodd" d="M35.1632 120.977C35.2611 120.796 35.359 120.604 35.4347 120.424C35.402 120.492 35.1847 121.101 34.5 121.101C34.5 121.101 34.8806 121.18 35.1632 120.977Z" fill="#595961"/>
<path opacity="0.42" fill-rule="evenodd" clip-rule="evenodd" d="M35.5322 120.255C35.6516 120.086 35.7607 119.916 35.869 119.736C35.826 119.792 35.5107 120.379 34.8586 120.289C34.8475 120.289 35.2281 120.413 35.5322 120.255Z" fill="#595961"/>
<path opacity="0.62" fill-rule="evenodd" clip-rule="evenodd" d="M39.2278 119.521C39.1737 119.318 39.1195 119.126 39.0431 118.923C39.0646 118.991 39.282 119.634 38.8369 120.097C38.8369 120.097 39.1626 119.871 39.2278 119.521Z" fill="#595961"/>
<path opacity="0.62" fill-rule="evenodd" clip-rule="evenodd" d="M39.3372 120.559C39.3261 120.356 39.2935 120.142 39.2608 119.938C39.2608 120.017 39.3699 120.683 38.8477 121.044C38.8477 121.044 39.2067 120.886 39.3372 120.559Z" fill="#595961"/>
<path opacity="0.62" fill-rule="evenodd" clip-rule="evenodd" d="M39.3914 121.62C39.4026 121.417 39.4026 121.203 39.3914 121C39.3914 121.078 39.4025 121.744 38.8477 122.049C38.8477 122.038 39.2282 121.925 39.3914 121.62Z" fill="#595961"/>
<path opacity="0.42" fill-rule="evenodd" clip-rule="evenodd" d="M35.946 119.634C36.0981 119.499 36.2398 119.352 36.3703 119.194C36.3154 119.239 35.8807 119.702 35.2725 119.532C35.2828 119.532 35.6196 119.735 35.946 119.634Z" fill="#595961"/>
<path opacity="0.42" fill-rule="evenodd" clip-rule="evenodd" d="M36.4339 119.115C36.6082 119.002 36.7714 118.889 36.9339 118.765C36.8693 118.799 36.3694 119.171 35.793 118.901C35.793 118.901 36.0971 119.16 36.4339 119.115Z" fill="#595961"/>
<path opacity="0.62" fill-rule="evenodd" clip-rule="evenodd" d="M37.0975 118.743C37.2933 118.686 37.478 118.618 37.6627 118.551C37.5975 118.573 37.0107 118.776 36.5322 118.348C36.5322 118.348 36.7607 118.686 37.0975 118.743Z" fill="#595961"/>
<path opacity="0.62" fill-rule="evenodd" clip-rule="evenodd" d="M38.8046 118.506C38.6526 118.359 38.4997 118.224 38.3477 118.1C38.4025 118.156 38.9129 118.573 38.772 119.205C38.7609 119.205 38.9241 118.833 38.8046 118.506Z" fill="#595961"/>
<path opacity="0.62" fill-rule="evenodd" clip-rule="evenodd" d="M38.2389 118.788C38.3368 118.912 38.434 119.036 38.5319 119.149C38.4993 119.103 38.1952 118.731 38.3472 118.269C38.3583 118.269 38.1952 118.528 38.2389 118.788Z" fill="#595961"/>
<path opacity="0.62" fill-rule="evenodd" clip-rule="evenodd" d="M37.6514 118.54C37.8042 118.562 37.9563 118.574 38.1084 118.585C38.0542 118.574 37.5868 118.54 37.3799 118.088C37.391 118.088 37.4452 118.393 37.6514 118.54Z" fill="#595961"/>
<path fill-rule="evenodd" clip-rule="evenodd" d="M38.9894 122.116C38.9998 121.992 39.37 119.137 38.3374 118.269C38.1416 118.099 37.9027 118.021 37.6416 118.021C37.4458 118.021 37.2284 118.066 36.9999 118.156C36 118.528 35.1632 119.532 34.5764 121.067C34.1306 122.218 33.9896 123.245 33.9785 123.29C33.9785 123.323 34.0001 123.357 34.0327 123.357H34.0438C34.0764 123.357 34.098 123.335 34.098 123.301C34.1091 123.256 34.6958 119.137 37.0325 118.257C37.5325 118.066 37.9568 118.099 38.261 118.359C39.2498 119.183 38.8804 122.06 38.87 122.094C38.87 122.127 38.8915 122.161 38.9242 122.161C38.9242 122.161 38.9242 122.161 38.9346 122.161C38.9672 122.173 38.9894 122.15 38.9894 122.116Z" fill="url(#paint22_linear_1_2017)"/>
<path fill-rule="evenodd" clip-rule="evenodd" d="M37.0223 118.709C34.8377 119.533 34.2613 123.493 34.2613 123.538C34.2398 123.673 34.1522 123.775 34.0439 123.809C34.0655 123.82 34.0766 123.82 34.0981 123.82C34.1092 123.82 34.1308 123.82 34.1419 123.82C34.3051 123.82 34.4349 123.696 34.4571 123.538C34.4675 123.493 35.0328 119.544 37.2174 118.72C37.3702 118.664 37.5001 118.63 37.6202 118.619C37.457 118.596 37.25 118.63 37.0223 118.709Z" fill="url(#paint23_linear_1_2017)"/>
<path fill-rule="evenodd" clip-rule="evenodd" d="M39.4241 120.706C39.3804 119.487 39.1089 118.664 38.6089 118.235C38.3374 118.009 38.011 117.908 37.6416 117.93C37.9242 117.953 38.1846 118.054 38.4027 118.235C38.9027 118.652 39.1741 119.487 39.2172 120.706C39.2498 121.563 39.1527 122.308 39.1527 122.342C39.1304 122.477 39.0436 122.579 38.9346 122.613C38.9568 122.624 38.9672 122.624 38.9894 122.624C39.163 122.647 39.3262 122.522 39.3477 122.342C39.3589 122.308 39.4568 121.575 39.4241 120.706Z" fill="url(#paint24_linear_1_2017)"/>
</g>
<g filter="url(#filter1_ddddd_1_2017)">
<path d="M74.5 127.677C74.5 118.841 81.6634 111.677 90.5 111.677C99.3366 111.677 106.5 118.841 106.5 127.677C106.5 136.514 99.3366 143.677 90.5 143.677C81.6634 143.677 74.5 136.514 74.5 127.677Z" fill="white"/>
<circle cx="90.5" cy="127.677" r="10.5" fill="#FFFA37"/>
<path fill-rule="evenodd" clip-rule="evenodd" d="M94.2692 121.816C93.545 120.904 92.3504 120.177 90.5088 120.177C88.9318 120.193 85.7778 121.066 85.7778 124.433C85.7778 124.924 85.8168 125.583 85.8508 126.068C85.8107 126.056 85.7614 126.034 85.6833 125.997L85.6725 125.992C85.5344 125.925 85.3244 125.825 85.0324 125.825C84.7373 125.825 84.4521 125.94 84.2403 126.112C84.0298 126.282 83.85 126.544 83.85 126.86C83.85 127.256 84.0728 127.519 84.3333 127.687C84.5647 127.837 84.8565 127.933 85.0875 128.008L85.1104 128.016C85.3576 128.097 85.5388 128.159 85.6638 128.237C85.761 128.297 85.7758 128.336 85.7776 128.372C85.7763 128.377 85.7734 128.388 85.7669 128.407C85.7536 128.444 85.7314 128.495 85.699 128.558C85.6343 128.684 85.54 128.84 85.4278 129.005C85.2015 129.339 84.9254 129.682 84.7191 129.88C84.5156 130.076 84.1817 130.319 83.8326 130.513C83.6595 130.609 83.4902 130.689 83.3388 130.743C83.1824 130.8 83.0678 130.821 82.9971 130.821C82.941 130.821 82.8925 130.833 82.8714 130.838C82.8416 130.845 82.8108 130.855 82.7803 130.867C82.7199 130.889 82.6479 130.923 82.5766 130.971C82.4403 131.063 82.25 131.248 82.25 131.54C82.25 131.692 82.2857 131.821 82.3475 131.933C82.4016 132.031 82.4712 132.105 82.5112 132.148L82.5171 132.154L82.5282 132.166C82.7483 132.403 83.1126 132.568 83.4662 132.681C83.7701 132.778 84.1098 132.85 84.4409 132.894C84.4456 132.915 84.4505 132.938 84.4558 132.963L84.4575 132.971C84.4784 133.07 84.506 133.2 84.5467 133.32C84.585 133.433 84.6545 133.601 84.7967 133.72C84.9779 133.872 85.2148 133.887 85.3694 133.886C85.5354 133.886 85.7291 133.862 85.913 133.84L85.9286 133.838C86.1873 133.807 86.4579 133.775 86.7382 133.775C87.2498 133.775 87.5776 133.989 88.0921 134.34L88.0955 134.342C88.2737 134.464 88.4732 134.6 88.7 134.734C89.4591 135.183 90.0759 135.179 90.4255 135.177C90.4486 135.177 90.4705 135.177 90.4912 135.177C90.5119 135.177 90.5339 135.177 90.5571 135.177C90.9072 135.179 91.5405 135.183 92.3 134.734C92.5268 134.6 92.7263 134.464 92.9045 134.342L92.9079 134.34C93.4224 133.989 93.7502 133.775 94.2618 133.775C94.5421 133.775 94.8127 133.807 95.0714 133.838L95.087 133.84C95.2709 133.862 95.4646 133.886 95.6306 133.886C95.7852 133.887 96.0221 133.872 96.2033 133.72C96.3455 133.601 96.415 133.433 96.4533 133.32C96.494 133.2 96.5216 133.07 96.5424 132.971L96.5442 132.963C96.5495 132.938 96.5544 132.915 96.5591 132.894C96.8902 132.85 97.2299 132.778 97.5338 132.681C97.8874 132.568 98.2518 132.403 98.4719 132.166L98.4829 132.154L98.4888 132.148C98.5288 132.105 98.5984 132.031 98.6525 131.933C98.7143 131.821 98.75 131.692 98.75 131.54C98.75 131.248 98.5597 131.063 98.4234 130.971C98.3521 130.923 98.2801 130.889 98.2197 130.867C98.1892 130.855 98.1584 130.845 98.1287 130.838C98.1075 130.833 98.059 130.821 98.0029 130.821C97.9322 130.821 97.8176 130.8 97.6612 130.743C97.5098 130.689 97.3405 130.609 97.1674 130.513C96.8183 130.319 96.4844 130.076 96.2809 129.88C96.0746 129.682 95.7985 129.339 95.5722 129.005C95.46 128.84 95.3657 128.684 95.301 128.558C95.2686 128.495 95.2464 128.444 95.2331 128.407C95.2266 128.388 95.2237 128.377 95.2224 128.372C95.2242 128.336 95.239 128.297 95.3362 128.237C95.4612 128.159 95.6424 128.097 95.8896 128.016L95.9125 128.008C96.1435 127.933 96.4353 127.837 96.6667 127.687C96.9272 127.519 97.15 127.256 97.15 126.86C97.15 126.544 96.9702 126.282 96.7597 126.112C96.5479 125.94 96.2627 125.825 95.9676 125.825C95.6756 125.825 95.4656 125.925 95.3275 125.992L95.3167 125.997C95.2386 126.034 95.1893 126.056 95.1492 126.068C95.1832 125.583 95.2222 124.924 95.2222 124.433C95.2222 123.765 94.9795 122.712 94.2692 121.816ZM87.3374 122.257C86.7366 123.009 86.5308 123.902 86.5308 124.433C86.5308 124.925 86.5725 125.608 86.6076 126.098C86.6193 126.261 86.5859 126.451 86.4438 126.602C86.2999 126.754 86.1041 126.804 85.9292 126.804C85.6767 126.804 85.4846 126.711 85.3617 126.652L85.3475 126.645C85.2104 126.579 85.1383 126.549 85.0324 126.549C84.936 126.549 84.8183 126.59 84.725 126.666C84.6304 126.742 84.6029 126.817 84.6029 126.86C84.6029 126.947 84.6351 127.01 84.7535 127.086C84.8932 127.177 85.0923 127.245 85.3533 127.33L85.3761 127.338C85.5928 127.409 85.8613 127.497 86.0732 127.629C86.311 127.777 86.5308 128.015 86.5308 128.382C86.5308 128.479 86.5042 128.571 86.4792 128.641C86.4521 128.717 86.4155 128.798 86.3744 128.878C86.2922 129.039 86.181 129.22 86.0587 129.401C85.8161 129.759 85.5078 130.146 85.2515 130.393C84.9924 130.642 84.6028 130.922 84.2087 131.141C84.0102 131.251 83.803 131.349 83.6032 131.421C83.4244 131.486 83.2316 131.537 83.0467 131.544C83.0421 131.546 83.037 131.549 83.0316 131.551C83.0231 131.556 83.0151 131.56 83.0082 131.565L83.0046 131.567C83.0053 131.572 83.0061 131.576 83.0068 131.579C83.0083 131.585 83.01 131.589 83.0124 131.593C83.0196 131.606 83.0311 131.621 83.0773 131.67L83.0895 131.683C83.1728 131.773 83.3781 131.889 83.7036 131.993C84.0136 132.092 84.3802 132.164 84.7265 132.197C84.8998 132.213 84.9997 132.321 85.0419 132.38C85.0854 132.44 85.1103 132.503 85.1249 132.545C85.153 132.627 85.1742 132.727 85.191 132.806L85.1936 132.818C85.2164 132.926 85.2365 133.018 85.2626 133.095C85.2718 133.123 85.2803 133.143 85.2876 133.159C85.3042 133.161 85.3295 133.162 85.3662 133.162C85.5254 133.162 85.6849 133.138 85.8427 133.119C86.0951 133.088 86.4075 133.051 86.7382 133.051C87.5053 133.051 88.0115 133.397 88.5005 133.731L88.5279 133.749C88.7089 133.873 88.8902 133.997 89.0941 134.117C89.6688 134.457 90.106 134.454 90.4255 134.453C90.448 134.452 90.4699 134.452 90.4912 134.452C90.5123 134.452 90.5341 134.452 90.5565 134.453C90.8794 134.454 91.3313 134.457 91.9059 134.117C92.1098 133.997 92.2911 133.873 92.4721 133.749L92.4995 133.731C92.9885 133.397 93.4947 133.051 94.2618 133.051C94.5925 133.051 94.9049 133.088 95.1573 133.119L95.165 133.12C95.3691 133.144 95.5185 133.162 95.6338 133.162C95.6705 133.162 95.6958 133.161 95.7124 133.159C95.7197 133.143 95.7282 133.123 95.7374 133.095C95.7635 133.018 95.7836 132.926 95.8064 132.818L95.809 132.806C95.8258 132.727 95.847 132.627 95.8751 132.545C95.8897 132.503 95.9146 132.44 95.9581 132.38C96.0003 132.321 96.1002 132.213 96.2735 132.197C96.6198 132.164 96.9864 132.092 97.2964 131.993C97.6219 131.889 97.8272 131.773 97.9105 131.683L97.9227 131.67C97.9689 131.621 97.9804 131.606 97.9876 131.593C97.99 131.589 97.9917 131.585 97.9932 131.579C97.9939 131.576 97.9947 131.572 97.9954 131.567L97.9918 131.565C97.9849 131.56 97.9769 131.556 97.9684 131.551C97.963 131.549 97.9579 131.546 97.9533 131.544C97.7684 131.537 97.5756 131.486 97.3968 131.421C97.197 131.349 96.9898 131.251 96.7913 131.141C96.3972 130.922 96.0076 130.642 95.7485 130.393C95.4922 130.146 95.1839 129.759 94.9413 129.401C94.819 129.22 94.7078 129.039 94.6256 128.878C94.5845 128.798 94.5479 128.717 94.5208 128.641C94.4958 128.571 94.4692 128.479 94.4692 128.382C94.4692 128.015 94.689 127.777 94.9268 127.629C95.1387 127.497 95.4072 127.409 95.6239 127.338L95.6467 127.33C95.9077 127.245 96.1068 127.177 96.2465 127.086C96.3649 127.01 96.3971 126.947 96.3971 126.86C96.3971 126.817 96.3696 126.742 96.275 126.666C96.1817 126.59 96.064 126.549 95.9676 126.549C95.8617 126.549 95.7896 126.579 95.6525 126.645L95.6383 126.652C95.5154 126.711 95.3233 126.804 95.0708 126.804C94.8959 126.804 94.7001 126.754 94.5562 126.602C94.4141 126.451 94.3807 126.261 94.3924 126.098C94.4275 125.608 94.4692 124.925 94.4692 124.433C94.4692 123.9 94.267 123.007 93.6707 122.256C93.0881 121.522 92.1143 120.902 90.5088 120.902C88.9032 120.902 87.9245 121.522 87.3374 122.257Z" fill="#1A1A1C"/>
<path fill-rule="evenodd" clip-rule="evenodd" d="M87.3377 122.257C86.7369 123.009 86.531 123.902 86.531 124.432C86.531 124.924 86.5727 125.608 86.6079 126.098C86.6196 126.261 86.5862 126.451 86.444 126.601C86.3001 126.754 86.1043 126.803 85.9295 126.803C85.6769 126.803 85.4849 126.711 85.362 126.652L85.3477 126.645C85.2106 126.579 85.1386 126.549 85.0326 126.549C84.9362 126.549 84.8185 126.59 84.7252 126.666C84.6306 126.742 84.6032 126.817 84.6032 126.86C84.6032 126.947 84.6354 127.01 84.7537 127.086C84.8935 127.177 85.0926 127.244 85.3536 127.33L85.3763 127.338C85.5931 127.409 85.8616 127.497 86.0735 127.629C86.3113 127.777 86.531 128.015 86.531 128.382C86.531 128.478 86.5044 128.571 86.4795 128.641C86.4523 128.717 86.4157 128.798 86.3747 128.878C86.2924 129.038 86.1812 129.22 86.0589 129.4C85.8164 129.759 85.508 130.146 85.2517 130.392C84.9927 130.642 84.603 130.922 84.2089 131.14C84.0105 131.25 83.8033 131.349 83.6035 131.421C83.4246 131.486 83.2318 131.536 83.0469 131.544C83.0423 131.546 83.0372 131.549 83.0319 131.551C83.0234 131.555 83.0154 131.56 83.0084 131.565L83.0049 131.567C83.0056 131.572 83.0064 131.576 83.007 131.579C83.0085 131.584 83.0103 131.588 83.0126 131.593C83.0199 131.606 83.0313 131.62 83.0776 131.67L83.0897 131.683C83.173 131.773 83.3784 131.889 83.7039 131.993C84.0139 132.092 84.3804 132.164 84.7268 132.197C84.9 132.213 84.9999 132.321 85.0422 132.38C85.0857 132.44 85.1106 132.503 85.1251 132.545C85.1533 132.627 85.1745 132.727 85.1913 132.806L85.1938 132.818C85.2167 132.926 85.2367 133.018 85.2628 133.095C85.272 133.122 85.2806 133.143 85.2879 133.158C85.3044 133.16 85.3297 133.162 85.3664 133.162C85.5257 133.161 85.6851 133.138 85.8429 133.119C86.0953 133.088 86.4077 133.051 86.7385 133.051C87.5056 133.051 88.0117 133.396 88.5007 133.73L88.5282 133.749C88.7091 133.873 88.8904 133.997 89.0944 134.117C89.669 134.457 90.1063 134.454 90.4257 134.452C90.4482 134.452 90.4701 134.452 90.4914 134.452C90.5126 134.452 90.5343 134.452 90.5567 134.452C90.8797 134.454 91.3316 134.457 91.9061 134.117C92.1101 133.997 92.2914 133.873 92.4723 133.749L92.4998 133.73C92.9888 133.396 93.4949 133.051 94.262 133.051C94.5928 133.051 94.9052 133.088 95.1576 133.119L95.1652 133.12C95.3693 133.144 95.5187 133.162 95.6341 133.162C95.6708 133.162 95.6961 133.16 95.7126 133.158C95.7199 133.143 95.7285 133.122 95.7377 133.095C95.7638 133.018 95.7838 132.926 95.8067 132.818L95.8092 132.806C95.826 132.727 95.8472 132.627 95.8754 132.545C95.8899 132.503 95.9148 132.44 95.9583 132.38C96.0006 132.321 96.1005 132.213 96.2737 132.197C96.6201 132.164 96.9866 132.092 97.2966 131.993C97.6221 131.889 97.8275 131.773 97.9108 131.683L97.9229 131.67C97.9692 131.621 97.9806 131.606 97.9879 131.593C97.9902 131.588 97.992 131.584 97.9935 131.579C97.9941 131.576 97.9949 131.572 97.9956 131.567L97.9921 131.565C97.9851 131.56 97.9771 131.555 97.9686 131.551C97.9633 131.549 97.9582 131.546 97.9536 131.544C97.7687 131.536 97.5759 131.486 97.397 131.421C97.1972 131.349 96.99 131.25 96.7916 131.14C96.3975 130.922 96.0078 130.642 95.7488 130.392C95.4925 130.146 95.1841 129.759 94.9416 129.4C94.8193 129.22 94.7081 129.038 94.6258 128.878C94.5848 128.798 94.5482 128.717 94.521 128.641C94.4961 128.571 94.4695 128.478 94.4695 128.382C94.4695 128.015 94.6892 127.777 94.927 127.629C95.1389 127.497 95.4074 127.409 95.6242 127.338L95.6469 127.33C95.9079 127.244 96.107 127.177 96.2468 127.086C96.3651 127.01 96.3973 126.947 96.3973 126.86C96.3973 126.817 96.3699 126.742 96.2753 126.666C96.182 126.59 96.0643 126.549 95.9679 126.549C95.8619 126.549 95.7899 126.579 95.6528 126.645L95.6385 126.652C95.5156 126.711 95.3236 126.803 95.071 126.803C94.8962 126.803 94.7004 126.754 94.5565 126.601C94.4143 126.451 94.3809 126.261 94.3926 126.098C94.4278 125.608 94.4695 124.924 94.4695 124.432C94.4695 123.9 94.2673 123.007 93.6709 122.256C93.0884 121.522 92.1145 120.901 90.5091 120.901C88.9035 120.901 87.9248 121.522 87.3377 122.257Z" fill="white"/>
</g>
<g filter="url(#filter2_ddddd_1_2017)">
<path d="M126.5 127.677C126.5 118.841 133.663 111.677 142.5 111.677C151.337 111.677 158.5 118.841 158.5 127.677C158.5 136.514 151.337 143.677 142.5 143.677C133.663 143.677 126.5 136.514 126.5 127.677Z" fill="white"/>
<path fill-rule="evenodd" clip-rule="evenodd" d="M135.75 134.427C135.75 132.563 137.261 131.052 139.125 131.052H142.5V134.427C142.5 136.291 140.989 137.802 139.125 137.802C137.261 137.802 135.75 136.291 135.75 134.427Z" fill="#0ACF83"/>
<path fill-rule="evenodd" clip-rule="evenodd" d="M142.5 127.677C142.5 125.813 144.011 124.302 145.875 124.302C147.739 124.302 149.25 125.813 149.25 127.677C149.25 129.541 147.739 131.052 145.875 131.052C144.011 131.052 142.5 129.541 142.5 127.677Z" fill="#1ABCFE"/>
<path fill-rule="evenodd" clip-rule="evenodd" d="M135.75 127.677C135.75 129.541 137.261 131.052 139.125 131.052H142.5V124.302H139.125C137.261 124.302 135.75 125.813 135.75 127.677Z" fill="#864FFE"/>
<path fill-rule="evenodd" clip-rule="evenodd" d="M142.5 117.552V124.302H145.875C147.739 124.302 149.25 122.791 149.25 120.927C149.25 119.063 147.739 117.552 145.875 117.552H142.5Z" fill="#FF7262"/>
<path fill-rule="evenodd" clip-rule="evenodd" d="M135.75 120.927C135.75 122.791 137.261 124.302 139.125 124.302H142.5V117.552H139.125C137.261 117.552 135.75 119.063 135.75 120.927Z" fill="#F24E1E"/>
</g>
<g filter="url(#filter3_ddddd_1_2017)">
<path d="M178.5 127.677C178.5 118.841 185.663 111.677 194.5 111.677C203.337 111.677 210.5 118.841 210.5 127.677C210.5 136.514 203.337 143.677 194.5 143.677C185.663 143.677 178.5 136.514 178.5 127.677Z" fill="white"/>
<path d="M186.625 128.428C185.589 128.428 184.75 129.267 184.75 130.302C184.75 131.338 185.589 132.177 186.625 132.177C187.66 132.177 188.5 131.338 188.5 130.302V128.428H186.625ZM191.875 128.428C190.839 128.428 190 129.267 190 130.303V135.552C190 136.588 190.839 137.427 191.875 137.427C192.911 137.427 193.75 136.588 193.75 135.552V130.303C193.75 129.267 192.911 128.428 191.875 128.428Z" fill="#E01E5A"/>
<path d="M195.25 135.552C195.25 136.588 196.09 137.427 197.125 137.427C198.161 137.427 199 136.588 199 135.552C199 134.517 198.161 133.677 197.125 133.677L195.25 133.677L195.25 135.552ZM195.25 130.302C195.25 131.338 196.09 132.177 197.125 132.177L202.375 132.177C203.411 132.177 204.25 131.338 204.25 130.302C204.25 129.267 203.411 128.427 202.375 128.427L197.125 128.427C196.09 128.427 195.25 129.267 195.25 130.302Z" fill="#ECB22E"/>
<path d="M202.375 126.927C203.411 126.927 204.25 126.088 204.25 125.052C204.25 124.017 203.411 123.177 202.375 123.177C201.34 123.177 200.5 124.017 200.5 125.052V126.927H202.375ZM197.125 126.927C198.161 126.927 199 126.087 199 125.052V119.802C199 118.767 198.161 117.927 197.125 117.927C196.089 117.927 195.25 118.767 195.25 119.802V125.052C195.25 126.087 196.089 126.927 197.125 126.927Z" fill="#2EB67D"/>
<path d="M193.75 119.802C193.75 118.767 192.91 117.927 191.875 117.927C190.839 117.927 190 118.767 190 119.802C190 120.838 190.839 121.677 191.875 121.677L193.75 121.677L193.75 119.802ZM193.75 125.052C193.75 124.017 192.91 123.177 191.875 123.177L186.625 123.177C185.589 123.177 184.75 124.017 184.75 125.052C184.75 126.088 185.589 126.927 186.625 126.927L191.875 126.927C192.91 126.927 193.75 126.088 193.75 125.052Z" fill="#36C5F0"/>
</g>
<g filter="url(#filter4_ddddd_1_2017)">
<path d="M230.5 127.677C230.5 118.841 237.663 111.677 246.5 111.677C255.337 111.677 262.5 118.841 262.5 127.677C262.5 136.514 255.337 143.677 246.5 143.677C237.663 143.677 230.5 136.514 230.5 127.677Z" fill="white"/>
<path d="M248.716 129.899C247.292 130.435 245.695 130.436 244.27 129.899C243.734 128.476 243.733 126.88 244.269 125.456C245.694 124.919 247.292 124.919 248.716 125.456C249.253 126.879 249.253 128.476 248.716 129.899ZM256.854 125.927H250.721L255.057 121.593C254.377 120.638 253.537 119.799 252.581 119.119L248.244 123.453V117.324C247.087 117.129 245.899 117.129 244.742 117.324V123.453L240.405 119.119C239.45 119.798 238.609 120.639 237.928 121.593L242.266 125.927H236.133C235.981 127.119 235.932 128.238 236.133 129.427H242.266L237.929 133.761C238.611 134.718 239.448 135.555 240.405 136.236L244.742 131.902V138.032C245.9 138.225 247.086 138.225 248.244 138.032V131.902L252.581 136.236C253.537 135.556 254.376 134.717 255.057 133.761L250.72 129.427H256.854C257.049 128.272 257.049 127.083 256.854 125.927Z" fill="#FF4A00"/>
</g>
<g filter="url(#filter5_ddddd_1_2017)">
<path d="M282.5 127.677C282.5 118.841 289.663 111.677 298.5 111.677C307.337 111.677 314.5 118.841 314.5 127.677C314.5 136.514 307.337 143.677 298.5 143.677C289.663 143.677 282.5 136.514 282.5 127.677Z" fill="white"/>
<path d="M289.867 132.745V132.747L289.928 132.911C289.921 132.892 289.898 132.834 289.867 132.745Z" fill="#69C9D0"/>
<path d="M292.838 130.522C292.955 129.551 293.353 129.008 294.103 128.451C295.176 127.697 296.517 128.123 296.517 128.123V125.592C296.843 125.584 297.169 125.603 297.491 125.65V128.907C297.491 128.907 296.151 128.481 295.078 129.235C294.328 129.792 293.929 130.336 293.812 131.306C293.809 131.833 293.908 132.522 294.363 133.117C294.25 133.06 294.136 132.994 294.019 132.92C293.016 132.246 292.833 131.236 292.838 130.522ZM303.026 120.911C302.288 120.102 302.008 119.286 301.908 118.712H302.836C302.836 118.712 302.651 120.216 304.001 121.696L304.019 121.716C303.656 121.487 303.322 121.217 303.026 120.911ZM307.5 123.205V126.397C307.5 126.397 306.314 126.35 305.438 126.127C304.213 125.815 303.426 125.337 303.426 125.337C303.426 125.337 302.882 124.995 302.838 124.972V131.563C302.838 131.93 302.738 132.847 302.431 133.612C302.031 134.612 301.414 135.268 301.3 135.402C301.3 135.402 300.55 136.29 299.225 136.887C298.031 137.426 296.983 137.412 296.669 137.426C296.669 137.426 294.857 137.498 293.226 136.438C292.874 136.205 292.545 135.94 292.243 135.648L292.251 135.654C293.882 136.714 295.694 136.642 295.694 136.642C296.008 136.628 297.056 136.642 298.25 136.103C299.573 135.505 300.325 134.618 300.325 134.618C300.438 134.484 301.058 133.827 301.456 132.827C301.762 132.063 301.863 131.146 301.863 130.779V124.188C301.907 124.212 302.45 124.553 302.45 124.553C302.45 124.553 303.238 125.032 304.462 125.344C305.34 125.567 306.524 125.613 306.524 125.613V123.112C306.93 123.203 307.275 123.227 307.5 123.205Z" fill="#EE1D52"/>
<path d="M306.526 123.112V125.613C306.526 125.613 305.341 125.566 304.464 125.343C303.239 125.031 302.452 124.552 302.452 124.552C302.452 124.552 301.908 124.211 301.864 124.187V130.779C301.864 131.146 301.764 132.063 301.457 132.828C301.057 133.828 300.44 134.484 300.326 134.619C300.326 134.619 299.575 135.506 298.251 136.103C297.057 136.643 296.009 136.629 295.695 136.643C295.695 136.643 293.884 136.714 292.252 135.655L292.244 135.649C292.072 135.482 291.91 135.306 291.759 135.121C291.238 134.487 290.919 133.736 290.839 133.522C290.839 133.521 290.839 133.52 290.839 133.519C290.71 133.147 290.439 132.254 290.476 131.388C290.542 129.861 291.079 128.924 291.221 128.689C291.597 128.049 292.086 127.476 292.667 126.996C293.179 126.582 293.76 126.252 294.385 126.021C295.061 125.749 295.785 125.604 296.517 125.592V128.123C296.517 128.123 295.177 127.698 294.104 128.451C293.354 129.008 292.956 129.551 292.839 130.522C292.834 131.236 293.017 132.246 294.019 132.92C294.136 132.994 294.251 133.06 294.363 133.118C294.538 133.345 294.752 133.544 294.994 133.705C295.973 134.325 296.794 134.368 297.843 133.965C298.542 133.696 299.069 133.09 299.313 132.418C299.467 131.998 299.465 131.575 299.465 131.139V118.712H301.906C302.007 119.286 302.286 120.102 303.025 120.911C303.321 121.217 303.654 121.487 304.018 121.716C304.125 121.827 304.675 122.376 305.38 122.714C305.745 122.888 306.129 123.022 306.526 123.112Z" fill="#1A1A1C"/>
<path d="M294.385 126.021C293.759 126.253 293.179 126.582 292.666 126.996C292.086 127.477 291.597 128.051 291.221 128.693C291.079 128.927 290.542 129.865 290.476 131.392C290.439 132.258 290.71 133.151 290.839 133.523C290.839 133.524 290.839 133.525 290.839 133.526C290.921 133.738 291.238 134.489 291.759 135.125C291.91 135.31 292.072 135.486 292.244 135.653C291.693 135.287 291.201 134.845 290.784 134.34C290.268 133.711 289.95 132.969 289.867 132.749C289.867 132.748 289.867 132.746 289.867 132.745V132.742C289.738 132.37 289.466 131.476 289.504 130.61C289.569 129.083 290.106 128.145 290.248 127.911C290.624 127.269 291.113 126.695 291.694 126.214C292.206 125.8 292.787 125.47 293.412 125.239C293.802 125.084 294.208 124.969 294.624 124.898C295.25 124.793 295.89 124.784 296.519 124.871V125.592C295.786 125.604 295.061 125.749 294.385 126.021Z" fill="#69C9D0"/>
<path d="M301.908 118.712H299.466V131.139C299.466 131.576 299.466 131.997 299.315 132.418C299.068 133.09 298.544 133.696 297.844 133.965C296.795 134.369 295.974 134.325 294.996 133.705C294.753 133.545 294.539 133.347 294.363 133.12C295.197 133.546 295.943 133.539 296.868 133.183C297.567 132.914 298.092 132.307 298.338 131.635C298.492 131.216 298.49 130.793 298.49 130.357V117.927H301.861C301.861 117.927 301.824 118.236 301.908 118.712ZM306.525 122.421V123.112C306.129 123.022 305.746 122.888 305.382 122.714C304.676 122.376 304.127 121.827 304.02 121.716C304.144 121.794 304.274 121.866 304.407 121.929C305.264 122.34 306.109 122.462 306.525 122.421Z" fill="#69C9D0"/>
</g>
<g filter="url(#filter6_ddddd_1_2017)">
<path d="M334.5 127.677C334.5 118.841 341.663 111.677 350.5 111.677C359.337 111.677 366.5 118.841 366.5 127.677C366.5 136.514 359.337 143.677 350.5 143.677C341.663 143.677 334.5 136.514 334.5 127.677Z" fill="white"/>
<path fill-rule="evenodd" clip-rule="evenodd" d="M350.498 137.177C355.745 137.177 359.998 132.924 359.998 127.677C359.998 122.431 355.745 118.177 350.498 118.177C345.251 118.177 340.998 122.431 340.998 127.677C340.998 132.924 345.251 137.177 350.498 137.177Z" fill="#2BDE73"/>
<path fill-rule="evenodd" clip-rule="evenodd" d="M349.523 126.165L351.318 123.641C351.657 123.165 352.095 122.927 352.633 122.927C353.071 122.927 353.45 123.078 353.771 123.38C354.091 123.682 354.251 124.043 354.251 124.464C354.251 124.775 354.167 125.049 353.997 125.287L352.378 127.571L354.357 130.006C354.555 130.248 354.654 130.532 354.654 130.857C354.654 131.287 354.499 131.656 354.188 131.964C353.877 132.273 353.5 132.427 353.057 132.427C352.571 132.427 352.202 132.274 351.947 131.968L349.523 129.032V130.651C349.523 131.113 349.44 131.472 349.275 131.728C348.974 132.194 348.535 132.427 347.96 132.427C347.437 132.427 347.032 132.256 346.745 131.913C346.476 131.597 346.342 131.179 346.342 130.658V124.656C346.342 124.162 346.478 123.755 346.752 123.435C347.039 123.097 347.435 122.927 347.939 122.927C348.42 122.927 348.82 123.097 349.141 123.435C349.32 123.622 349.433 123.812 349.48 124.004C349.508 124.123 349.523 124.345 349.523 124.669V126.165Z" fill="white"/>
</g>
<g filter="url(#filter7_ddddd_1_2017)">
<path d="M386.5 127.677C386.5 118.841 393.663 111.677 402.5 111.677C411.337 111.677 418.5 118.841 418.5 127.677C418.5 136.514 411.337 143.677 402.5 143.677C393.663 143.677 386.5 136.514 386.5 127.677Z" fill="white"/>
<path d="M404.935 127.591C404.935 125.777 403.051 122.647 398.805 122.647C394.559 122.647 392.999 126.187 392.999 127.699C392.999 122.301 397.397 118.178 402.617 118.178C407.838 118.178 411.998 122.085 411.998 126.058C411.998 129.598 409.333 130.829 407.167 130.829C405.737 130.829 404.112 130.354 404.112 129.598C404.112 129.016 404.935 129.016 404.935 127.591Z" fill="url(#paint25_linear_1_2017)"/>
<path d="M398.805 122.648C403.051 122.648 404.935 125.778 404.935 127.592C404.935 127.606 404.935 127.62 404.935 127.634C404.914 126.426 404.098 125.282 402.487 125.282C400.451 125.282 397.7 128.045 398.068 131.478C398.363 134.226 400.689 137.912 405.737 136.616C405.737 136.616 404.784 137.178 402.119 137.178C397.397 137.178 392.999 132.86 392.999 127.916C392.999 127.785 393.001 127.656 393.005 127.53C393.114 125.94 394.71 122.648 398.805 122.648Z" fill="url(#paint26_linear_1_2017)"/>
<path d="M398.805 122.648C403.051 122.648 404.935 125.778 404.935 127.592C404.935 127.606 404.935 127.62 404.935 127.634C404.914 126.426 404.098 125.282 402.487 125.282C400.451 125.282 397.7 128.045 398.068 131.478C398.363 134.226 400.689 137.912 405.737 136.616C405.737 136.616 404.784 137.178 402.119 137.178C397.397 137.178 392.999 132.86 392.999 127.916C392.999 127.785 393.001 127.656 393.005 127.53C393.114 125.94 394.71 122.648 398.805 122.648Z" fill="url(#paint27_radial_1_2017)"/>
<path d="M405.149 136.837C407.854 136.099 409.786 133.798 410.135 133.334C410.525 132.815 410.633 132.492 410.525 132.384C410.417 132.276 410.265 132.297 409.875 132.492C409.485 132.686 407.189 133.636 404.568 132.837C401.946 132.038 400.148 129.966 400.148 127.677C400.148 125.907 401.665 125.281 402.488 125.281C400.452 125.281 397.7 128.044 398.069 131.477C398.363 134.225 400.69 137.91 405.737 136.615C405.737 136.615 405.561 136.719 405.149 136.837Z" fill="#0E458A"/>
<path d="M405.149 136.837C407.854 136.099 409.786 133.798 410.135 133.334C410.525 132.815 410.633 132.492 410.525 132.384C410.417 132.276 410.265 132.297 409.875 132.492C409.485 132.686 407.189 133.636 404.568 132.837C401.946 132.038 400.148 129.966 400.148 127.677C400.148 125.907 401.665 125.281 402.488 125.281C400.452 125.281 397.7 128.044 398.069 131.477C398.363 134.225 400.69 137.91 405.737 136.615C405.737 136.615 405.561 136.719 405.149 136.837Z" fill="url(#paint28_radial_1_2017)"/>
</g>
<g filter="url(#filter8_ddddd_1_2017)">
<path d="M438.5 127.677C438.5 118.841 445.663 111.677 454.5 111.677C463.337 111.677 470.5 118.841 470.5 127.677C470.5 136.514 463.337 143.677 454.5 143.677C445.663 143.677 438.5 136.514 438.5 127.677Z" fill="white"/>
<g clip-path="url(#clip1_1_2017)">
<path d="M454.49 132.416C457.098 132.416 459.214 130.301 459.214 127.692C459.214 125.083 457.099 122.968 454.49 122.968C451.88 122.968 449.766 125.083 449.766 127.692C449.766 130.301 451.88 132.416 454.49 132.416Z" fill="white"/>
<path d="M450.398 130.055L446.308 122.971C445.479 124.407 445.042 126.036 445.042 127.694C445.042 129.353 445.478 130.982 446.308 132.418C447.137 133.854 448.33 135.046 449.766 135.875C451.203 136.705 452.832 137.141 454.49 137.14L458.581 130.055V130.054C458.166 130.773 457.57 131.369 456.852 131.784C456.134 132.199 455.319 132.418 454.49 132.418C453.661 132.418 452.846 132.199 452.128 131.785C451.409 131.37 450.813 130.774 450.398 130.055Z" fill="url(#paint29_linear_1_2017)"/>
<path d="M458.58 130.055L454.49 137.14C456.149 137.14 457.778 136.704 459.214 135.874C460.65 135.045 461.843 133.853 462.672 132.417C463.501 130.98 463.937 129.351 463.937 127.693C463.936 126.034 463.5 124.405 462.67 122.969H454.489L454.488 122.97C455.318 122.97 456.133 123.187 456.851 123.602C457.569 124.016 458.165 124.613 458.58 125.331C458.995 126.049 459.213 126.864 459.213 127.693C459.214 128.522 458.995 129.337 458.58 130.055Z" fill="url(#paint30_linear_1_2017)"/>
<path d="M454.49 131.433C456.555 131.433 458.23 129.759 458.23 127.693C458.23 125.627 456.555 123.953 454.49 123.953C452.424 123.953 450.75 125.627 450.75 127.693C450.75 129.759 452.424 131.433 454.49 131.433Z" fill="#1A73E8"/>
<path d="M454.49 122.97H462.671C461.842 121.533 460.649 120.34 459.213 119.511C457.777 118.682 456.148 118.246 454.489 118.246C452.831 118.246 451.202 118.682 449.766 119.512C448.33 120.341 447.137 121.534 446.309 122.97L450.399 130.055L450.4 130.056C449.985 129.338 449.766 128.523 449.766 127.694C449.766 126.865 449.984 126.05 450.398 125.332C450.813 124.613 451.409 124.017 452.128 123.602C452.846 123.187 453.661 122.969 454.49 122.97Z" fill="url(#paint31_linear_1_2017)"/>
</g>
</g>
<g filter="url(#filter9_ddddd_1_2017)">
<path d="M490.5 127.677C490.5 118.841 497.663 111.677 506.5 111.677C515.337 111.677 522.5 118.841 522.5 127.677C522.5 136.514 515.337 143.677 506.5 143.677C497.663 143.677 490.5 136.514 490.5 127.677Z" fill="white"/>
<path d="M506.5 137.369C506.138 134.979 505.02 132.767 503.311 131.058C501.602 129.348 499.39 128.231 497 127.869C499.39 127.507 501.602 126.389 503.311 124.68C505.02 122.97 506.138 120.759 506.5 118.369C506.862 120.759 507.98 122.97 509.689 124.68C511.398 126.389 513.61 127.506 516 127.869C513.61 128.231 511.398 129.348 509.689 131.058C507.98 132.767 506.862 134.979 506.5 137.369Z" fill="url(#paint32_linear_1_2017)"/>
</g>
</g>
<defs>
<filter id="filter0_ddddd_1_2017" x="-79.5" y="23.6772" width="224" height="224" filterUnits="userSpaceOnUse" color-interpolation-filters="sRGB">
<feFlood flood-opacity="0" result="BackgroundImageFix"/>
<feColorMatrix in="SourceAlpha" type="matrix" values="0 0 0 0 0 0 0 0 0 0 0 0 0 0 0 0 0 0 127 0" result="hardAlpha"/>
<feOffset dy="-4"/>
<feGaussianBlur stdDeviation="6"/>
<feColorMatrix type="matrix" values="0 0 0 0 0 0 0 0 0 0 0 0 0 0 0 0 0 0 0.04 0"/>
<feBlend mode="normal" in2="BackgroundImageFix" result="effect1_dropShadow_1_2017"/>
<feColorMatrix in="SourceAlpha" type="matrix" values="0 0 0 0 0 0 0 0 0 0 0 0 0 0 0 0 0 0 127 0" result="hardAlpha"/>
<feOffset dx="-1" dy="4"/>
<feGaussianBlur stdDeviation="12"/>
<feColorMatrix type="matrix" values="0 0 0 0 0 0 0 0 0 0 0 0 0 0 0 0 0 0 0.04 0"/>
<feBlend mode="normal" in2="effect1_dropShadow_1_2017" result="effect2_dropShadow_1_2017"/>
<feColorMatrix in="SourceAlpha" type="matrix" values="0 0 0 0 0 0 0 0 0 0 0 0 0 0 0 0 0 0 127 0" result="hardAlpha"/>
<feOffset dx="-2" dy="4"/>
<feGaussianBlur stdDeviation="5"/>
<feColorMatrix type="matrix" values="0 0 0 0 0 0 0 0 0 0 0 0 0 0 0 0 0 0 0.08 0"/>
<feBlend mode="normal" in2="effect2_dropShadow_1_2017" result="effect3_dropShadow_1_2017"/>
<feColorMatrix in="SourceAlpha" type="matrix" values="0 0 0 0 0 0 0 0 0 0 0 0 0 0 0 0 0 0 127 0" result="hardAlpha"/>
<feOffset dx="-4" dy="8"/>
<feGaussianBlur stdDeviation="10"/>
<feColorMatrix type="matrix" values="0 0 0 0 0 0 0 0 0 0 0 0 0 0 0 0 0 0 0.04 0"/>
<feBlend mode="normal" in2="effect3_dropShadow_1_2017" result="effect4_dropShadow_1_2017"/>
<feColorMatrix in="SourceAlpha" type="matrix" values="0 0 0 0 0 0 0 0 0 0 0 0 0 0 0 0 0 0 127 0" result="hardAlpha"/>
<feOffset dx="-6" dy="8"/>
<feGaussianBlur stdDeviation="48"/>
<feColorMatrix type="matrix" values="0 0 0 0 0 0 0 0 0 0 0 0 0 0 0 0 0 0 0.04 0"/>
<feBlend mode="normal" in2="effect4_dropShadow_1_2017" result="effect5_dropShadow_1_2017"/>
<feBlend mode="normal" in="SourceGraphic" in2="effect5_dropShadow_1_2017" result="shape"/>
</filter>
<filter id="filter1_ddddd_1_2017" x="-27.5" y="23.6772" width="224" height="224" filterUnits="userSpaceOnUse" color-interpolation-filters="sRGB">
<feFlood flood-opacity="0" result="BackgroundImageFix"/>
<feColorMatrix in="SourceAlpha" type="matrix" values="0 0 0 0 0 0 0 0 0 0 0 0 0 0 0 0 0 0 127 0" result="hardAlpha"/>
<feOffset dy="-4"/>
<feGaussianBlur stdDeviation="6"/>
<feColorMatrix type="matrix" values="0 0 0 0 0 0 0 0 0 0 0 0 0 0 0 0 0 0 0.04 0"/>
<feBlend mode="normal" in2="BackgroundImageFix" result="effect1_dropShadow_1_2017"/>
<feColorMatrix in="SourceAlpha" type="matrix" values="0 0 0 0 0 0 0 0 0 0 0 0 0 0 0 0 0 0 127 0" result="hardAlpha"/>
<feOffset dx="-1" dy="4"/>
<feGaussianBlur stdDeviation="12"/>
<feColorMatrix type="matrix" values="0 0 0 0 0 0 0 0 0 0 0 0 0 0 0 0 0 0 0.04 0"/>
<feBlend mode="normal" in2="effect1_dropShadow_1_2017" result="effect2_dropShadow_1_2017"/>
<feColorMatrix in="SourceAlpha" type="matrix" values="0 0 0 0 0 0 0 0 0 0 0 0 0 0 0 0 0 0 127 0" result="hardAlpha"/>
<feOffset dx="-2" dy="4"/>
<feGaussianBlur stdDeviation="5"/>
<feColorMatrix type="matrix" values="0 0 0 0 0 0 0 0 0 0 0 0 0 0 0 0 0 0 0.08 0"/>
<feBlend mode="normal" in2="effect2_dropShadow_1_2017" result="effect3_dropShadow_1_2017"/>
<feColorMatrix in="SourceAlpha" type="matrix" values="0 0 0 0 0 0 0 0 0 0 0 0 0 0 0 0 0 0 127 0" result="hardAlpha"/>
<feOffset dx="-4" dy="8"/>
<feGaussianBlur stdDeviation="10"/>
<feColorMatrix type="matrix" values="0 0 0 0 0 0 0 0 0 0 0 0 0 0 0 0 0 0 0.04 0"/>
<feBlend mode="normal" in2="effect3_dropShadow_1_2017" result="effect4_dropShadow_1_2017"/>
<feColorMatrix in="SourceAlpha" type="matrix" values="0 0 0 0 0 0 0 0 0 0 0 0 0 0 0 0 0 0 127 0" result="hardAlpha"/>
<feOffset dx="-6" dy="8"/>
<feGaussianBlur stdDeviation="48"/>
<feColorMatrix type="matrix" values="0 0 0 0 0 0 0 0 0 0 0 0 0 0 0 0 0 0 0.04 0"/>
<feBlend mode="normal" in2="effect4_dropShadow_1_2017" result="effect5_dropShadow_1_2017"/>
<feBlend mode="normal" in="SourceGraphic" in2="effect5_dropShadow_1_2017" result="shape"/>
</filter>
<filter id="filter2_ddddd_1_2017" x="24.5" y="23.6772" width="224" height="224" filterUnits="userSpaceOnUse" color-interpolation-filters="sRGB">
<feFlood flood-opacity="0" result="BackgroundImageFix"/>
<feColorMatrix in="SourceAlpha" type="matrix" values="0 0 0 0 0 0 0 0 0 0 0 0 0 0 0 0 0 0 127 0" result="hardAlpha"/>
<feOffset dy="-4"/>
<feGaussianBlur stdDeviation="6"/>
<feColorMatrix type="matrix" values="0 0 0 0 0 0 0 0 0 0 0 0 0 0 0 0 0 0 0.04 0"/>
<feBlend mode="normal" in2="BackgroundImageFix" result="effect1_dropShadow_1_2017"/>
<feColorMatrix in="SourceAlpha" type="matrix" values="0 0 0 0 0 0 0 0 0 0 0 0 0 0 0 0 0 0 127 0" result="hardAlpha"/>
<feOffset dx="-1" dy="4"/>
<feGaussianBlur stdDeviation="12"/>
<feColorMatrix type="matrix" values="0 0 0 0 0 0 0 0 0 0 0 0 0 0 0 0 0 0 0.04 0"/>
<feBlend mode="normal" in2="effect1_dropShadow_1_2017" result="effect2_dropShadow_1_2017"/>
<feColorMatrix in="SourceAlpha" type="matrix" values="0 0 0 0 0 0 0 0 0 0 0 0 0 0 0 0 0 0 127 0" result="hardAlpha"/>
<feOffset dx="-2" dy="4"/>
<feGaussianBlur stdDeviation="5"/>
<feColorMatrix type="matrix" values="0 0 0 0 0 0 0 0 0 0 0 0 0 0 0 0 0 0 0.08 0"/>
<feBlend mode="normal" in2="effect2_dropShadow_1_2017" result="effect3_dropShadow_1_2017"/>
<feColorMatrix in="SourceAlpha" type="matrix" values="0 0 0 0 0 0 0 0 0 0 0 0 0 0 0 0 0 0 127 0" result="hardAlpha"/>
<feOffset dx="-4" dy="8"/>
<feGaussianBlur stdDeviation="10"/>
<feColorMatrix type="matrix" values="0 0 0 0 0 0 0 0 0 0 0 0 0 0 0 0 0 0 0.04 0"/>
<feBlend mode="normal" in2="effect3_dropShadow_1_2017" result="effect4_dropShadow_1_2017"/>
<feColorMatrix in="SourceAlpha" type="matrix" values="0 0 0 0 0 0 0 0 0 0 0 0 0 0 0 0 0 0 127 0" result="hardAlpha"/>
<feOffset dx="-6" dy="8"/>
<feGaussianBlur stdDeviation="48"/>
<feColorMatrix type="matrix" values="0 0 0 0 0 0 0 0 0 0 0 0 0 0 0 0 0 0 0.04 0"/>
<feBlend mode="normal" in2="effect4_dropShadow_1_2017" result="effect5_dropShadow_1_2017"/>
<feBlend mode="normal" in="SourceGraphic" in2="effect5_dropShadow_1_2017" result="shape"/>
</filter>
<filter id="filter3_ddddd_1_2017" x="76.5" y="23.6772" width="224" height="224" filterUnits="userSpaceOnUse" color-interpolation-filters="sRGB">
<feFlood flood-opacity="0" result="BackgroundImageFix"/>
<feColorMatrix in="SourceAlpha" type="matrix" values="0 0 0 0 0 0 0 0 0 0 0 0 0 0 0 0 0 0 127 0" result="hardAlpha"/>
<feOffset dy="-4"/>
<feGaussianBlur stdDeviation="6"/>
<feColorMatrix type="matrix" values="0 0 0 0 0 0 0 0 0 0 0 0 0 0 0 0 0 0 0.04 0"/>
<feBlend mode="normal" in2="BackgroundImageFix" result="effect1_dropShadow_1_2017"/>
<feColorMatrix in="SourceAlpha" type="matrix" values="0 0 0 0 0 0 0 0 0 0 0 0 0 0 0 0 0 0 127 0" result="hardAlpha"/>
<feOffset dx="-1" dy="4"/>
<feGaussianBlur stdDeviation="12"/>
<feColorMatrix type="matrix" values="0 0 0 0 0 0 0 0 0 0 0 0 0 0 0 0 0 0 0.04 0"/>
<feBlend mode="normal" in2="effect1_dropShadow_1_2017" result="effect2_dropShadow_1_2017"/>
<feColorMatrix in="SourceAlpha" type="matrix" values="0 0 0 0 0 0 0 0 0 0 0 0 0 0 0 0 0 0 127 0" result="hardAlpha"/>
<feOffset dx="-2" dy="4"/>
<feGaussianBlur stdDeviation="5"/>
<feColorMatrix type="matrix" values="0 0 0 0 0 0 0 0 0 0 0 0 0 0 0 0 0 0 0.08 0"/>
<feBlend mode="normal" in2="effect2_dropShadow_1_2017" result="effect3_dropShadow_1_2017"/>
<feColorMatrix in="SourceAlpha" type="matrix" values="0 0 0 0 0 0 0 0 0 0 0 0 0 0 0 0 0 0 127 0" result="hardAlpha"/>
<feOffset dx="-4" dy="8"/>
<feGaussianBlur stdDeviation="10"/>
<feColorMatrix type="matrix" values="0 0 0 0 0 0 0 0 0 0 0 0 0 0 0 0 0 0 0.04 0"/>
<feBlend mode="normal" in2="effect3_dropShadow_1_2017" result="effect4_dropShadow_1_2017"/>
<feColorMatrix in="SourceAlpha" type="matrix" values="0 0 0 0 0 0 0 0 0 0 0 0 0 0 0 0 0 0 127 0" result="hardAlpha"/>
<feOffset dx="-6" dy="8"/>
<feGaussianBlur stdDeviation="48"/>
<feColorMatrix type="matrix" values="0 0 0 0 0 0 0 0 0 0 0 0 0 0 0 0 0 0 0.04 0"/>
<feBlend mode="normal" in2="effect4_dropShadow_1_2017" result="effect5_dropShadow_1_2017"/>
<feBlend mode="normal" in="SourceGraphic" in2="effect5_dropShadow_1_2017" result="shape"/>
</filter>
<filter id="filter4_ddddd_1_2017" x="128.5" y="23.6772" width="224" height="224" filterUnits="userSpaceOnUse" color-interpolation-filters="sRGB">
<feFlood flood-opacity="0" result="BackgroundImageFix"/>
<feColorMatrix in="SourceAlpha" type="matrix" values="0 0 0 0 0 0 0 0 0 0 0 0 0 0 0 0 0 0 127 0" result="hardAlpha"/>
<feOffset dy="-4"/>
<feGaussianBlur stdDeviation="6"/>
<feColorMatrix type="matrix" values="0 0 0 0 0 0 0 0 0 0 0 0 0 0 0 0 0 0 0.04 0"/>
<feBlend mode="normal" in2="BackgroundImageFix" result="effect1_dropShadow_1_2017"/>
<feColorMatrix in="SourceAlpha" type="matrix" values="0 0 0 0 0 0 0 0 0 0 0 0 0 0 0 0 0 0 127 0" result="hardAlpha"/>
<feOffset dx="-1" dy="4"/>
<feGaussianBlur stdDeviation="12"/>
<feColorMatrix type="matrix" values="0 0 0 0 0 0 0 0 0 0 0 0 0 0 0 0 0 0 0.04 0"/>
<feBlend mode="normal" in2="effect1_dropShadow_1_2017" result="effect2_dropShadow_1_2017"/>
<feColorMatrix in="SourceAlpha" type="matrix" values="0 0 0 0 0 0 0 0 0 0 0 0 0 0 0 0 0 0 127 0" result="hardAlpha"/>
<feOffset dx="-2" dy="4"/>
<feGaussianBlur stdDeviation="5"/>
<feColorMatrix type="matrix" values="0 0 0 0 0 0 0 0 0 0 0 0 0 0 0 0 0 0 0.08 0"/>
<feBlend mode="normal" in2="effect2_dropShadow_1_2017" result="effect3_dropShadow_1_2017"/>
<feColorMatrix in="SourceAlpha" type="matrix" values="0 0 0 0 0 0 0 0 0 0 0 0 0 0 0 0 0 0 127 0" result="hardAlpha"/>
<feOffset dx="-4" dy="8"/>
<feGaussianBlur stdDeviation="10"/>
<feColorMatrix type="matrix" values="0 0 0 0 0 0 0 0 0 0 0 0 0 0 0 0 0 0 0.04 0"/>
<feBlend mode="normal" in2="effect3_dropShadow_1_2017" result="effect4_dropShadow_1_2017"/>
<feColorMatrix in="SourceAlpha" type="matrix" values="0 0 0 0 0 0 0 0 0 0 0 0 0 0 0 0 0 0 127 0" result="hardAlpha"/>
<feOffset dx="-6" dy="8"/>
<feGaussianBlur stdDeviation="48"/>
<feColorMatrix type="matrix" values="0 0 0 0 0 0 0 0 0 0 0 0 0 0 0 0 0 0 0.04 0"/>
<feBlend mode="normal" in2="effect4_dropShadow_1_2017" result="effect5_dropShadow_1_2017"/>
<feBlend mode="normal" in="SourceGraphic" in2="effect5_dropShadow_1_2017" result="shape"/>
</filter>
<filter id="filter5_ddddd_1_2017" x="180.5" y="23.6772" width="224" height="224" filterUnits="userSpaceOnUse" color-interpolation-filters="sRGB">
<feFlood flood-opacity="0" result="BackgroundImageFix"/>
<feColorMatrix in="SourceAlpha" type="matrix" values="0 0 0 0 0 0 0 0 0 0 0 0 0 0 0 0 0 0 127 0" result="hardAlpha"/>
<feOffset dy="-4"/>
<feGaussianBlur stdDeviation="6"/>
<feColorMatrix type="matrix" values="0 0 0 0 0 0 0 0 0 0 0 0 0 0 0 0 0 0 0.04 0"/>
<feBlend mode="normal" in2="BackgroundImageFix" result="effect1_dropShadow_1_2017"/>
<feColorMatrix in="SourceAlpha" type="matrix" values="0 0 0 0 0 0 0 0 0 0 0 0 0 0 0 0 0 0 127 0" result="hardAlpha"/>
<feOffset dx="-1" dy="4"/>
<feGaussianBlur stdDeviation="12"/>
<feColorMatrix type="matrix" values="0 0 0 0 0 0 0 0 0 0 0 0 0 0 0 0 0 0 0.04 0"/>
<feBlend mode="normal" in2="effect1_dropShadow_1_2017" result="effect2_dropShadow_1_2017"/>
<feColorMatrix in="SourceAlpha" type="matrix" values="0 0 0 0 0 0 0 0 0 0 0 0 0 0 0 0 0 0 127 0" result="hardAlpha"/>
<feOffset dx="-2" dy="4"/>
<feGaussianBlur stdDeviation="5"/>
<feColorMatrix type="matrix" values="0 0 0 0 0 0 0 0 0 0 0 0 0 0 0 0 0 0 0.08 0"/>
<feBlend mode="normal" in2="effect2_dropShadow_1_2017" result="effect3_dropShadow_1_2017"/>
<feColorMatrix in="SourceAlpha" type="matrix" values="0 0 0 0 0 0 0 0 0 0 0 0 0 0 0 0 0 0 127 0" result="hardAlpha"/>
<feOffset dx="-4" dy="8"/>
<feGaussianBlur stdDeviation="10"/>
<feColorMatrix type="matrix" values="0 0 0 0 0 0 0 0 0 0 0 0 0 0 0 0 0 0 0.04 0"/>
<feBlend mode="normal" in2="effect3_dropShadow_1_2017" result="effect4_dropShadow_1_2017"/>
<feColorMatrix in="SourceAlpha" type="matrix" values="0 0 0 0 0 0 0 0 0 0 0 0 0 0 0 0 0 0 127 0" result="hardAlpha"/>
<feOffset dx="-6" dy="8"/>
<feGaussianBlur stdDeviation="48"/>
<feColorMatrix type="matrix" values="0 0 0 0 0 0 0 0 0 0 0 0 0 0 0 0 0 0 0.04 0"/>
<feBlend mode="normal" in2="effect4_dropShadow_1_2017" result="effect5_dropShadow_1_2017"/>
<feBlend mode="normal" in="SourceGraphic" in2="effect5_dropShadow_1_2017" result="shape"/>
</filter>
<filter id="filter6_ddddd_1_2017" x="232.5" y="23.6772" width="224" height="224" filterUnits="userSpaceOnUse" color-interpolation-filters="sRGB">
<feFlood flood-opacity="0" result="BackgroundImageFix"/>
<feColorMatrix in="SourceAlpha" type="matrix" values="0 0 0 0 0 0 0 0 0 0 0 0 0 0 0 0 0 0 127 0" result="hardAlpha"/>
<feOffset dy="-4"/>
<feGaussianBlur stdDeviation="6"/>
<feColorMatrix type="matrix" values="0 0 0 0 0 0 0 0 0 0 0 0 0 0 0 0 0 0 0.04 0"/>
<feBlend mode="normal" in2="BackgroundImageFix" result="effect1_dropShadow_1_2017"/>
<feColorMatrix in="SourceAlpha" type="matrix" values="0 0 0 0 0 0 0 0 0 0 0 0 0 0 0 0 0 0 127 0" result="hardAlpha"/>
<feOffset dx="-1" dy="4"/>
<feGaussianBlur stdDeviation="12"/>
<feColorMatrix type="matrix" values="0 0 0 0 0 0 0 0 0 0 0 0 0 0 0 0 0 0 0.04 0"/>
<feBlend mode="normal" in2="effect1_dropShadow_1_2017" result="effect2_dropShadow_1_2017"/>
<feColorMatrix in="SourceAlpha" type="matrix" values="0 0 0 0 0 0 0 0 0 0 0 0 0 0 0 0 0 0 127 0" result="hardAlpha"/>
<feOffset dx="-2" dy="4"/>
<feGaussianBlur stdDeviation="5"/>
<feColorMatrix type="matrix" values="0 0 0 0 0 0 0 0 0 0 0 0 0 0 0 0 0 0 0.08 0"/>
<feBlend mode="normal" in2="effect2_dropShadow_1_2017" result="effect3_dropShadow_1_2017"/>
<feColorMatrix in="SourceAlpha" type="matrix" values="0 0 0 0 0 0 0 0 0 0 0 0 0 0 0 0 0 0 127 0" result="hardAlpha"/>
<feOffset dx="-4" dy="8"/>
<feGaussianBlur stdDeviation="10"/>
<feColorMatrix type="matrix" values="0 0 0 0 0 0 0 0 0 0 0 0 0 0 0 0 0 0 0.04 0"/>
<feBlend mode="normal" in2="effect3_dropShadow_1_2017" result="effect4_dropShadow_1_2017"/>
<feColorMatrix in="SourceAlpha" type="matrix" values="0 0 0 0 0 0 0 0 0 0 0 0 0 0 0 0 0 0 127 0" result="hardAlpha"/>
<feOffset dx="-6" dy="8"/>
<feGaussianBlur stdDeviation="48"/>
<feColorMatrix type="matrix" values="0 0 0 0 0 0 0 0 0 0 0 0 0 0 0 0 0 0 0.04 0"/>
<feBlend mode="normal" in2="effect4_dropShadow_1_2017" result="effect5_dropShadow_1_2017"/>
<feBlend mode="normal" in="SourceGraphic" in2="effect5_dropShadow_1_2017" result="shape"/>
</filter>
<filter id="filter7_ddddd_1_2017" x="284.5" y="23.6772" width="224" height="224" filterUnits="userSpaceOnUse" color-interpolation-filters="sRGB">
<feFlood flood-opacity="0" result="BackgroundImageFix"/>
<feColorMatrix in="SourceAlpha" type="matrix" values="0 0 0 0 0 0 0 0 0 0 0 0 0 0 0 0 0 0 127 0" result="hardAlpha"/>
<feOffset dy="-4"/>
<feGaussianBlur stdDeviation="6"/>
<feColorMatrix type="matrix" values="0 0 0 0 0 0 0 0 0 0 0 0 0 0 0 0 0 0 0.04 0"/>
<feBlend mode="normal" in2="BackgroundImageFix" result="effect1_dropShadow_1_2017"/>
<feColorMatrix in="SourceAlpha" type="matrix" values="0 0 0 0 0 0 0 0 0 0 0 0 0 0 0 0 0 0 127 0" result="hardAlpha"/>
<feOffset dx="-1" dy="4"/>
<feGaussianBlur stdDeviation="12"/>
<feColorMatrix type="matrix" values="0 0 0 0 0 0 0 0 0 0 0 0 0 0 0 0 0 0 0.04 0"/>
<feBlend mode="normal" in2="effect1_dropShadow_1_2017" result="effect2_dropShadow_1_2017"/>
<feColorMatrix in="SourceAlpha" type="matrix" values="0 0 0 0 0 0 0 0 0 0 0 0 0 0 0 0 0 0 127 0" result="hardAlpha"/>
<feOffset dx="-2" dy="4"/>
<feGaussianBlur stdDeviation="5"/>
<feColorMatrix type="matrix" values="0 0 0 0 0 0 0 0 0 0 0 0 0 0 0 0 0 0 0.08 0"/>
<feBlend mode="normal" in2="effect2_dropShadow_1_2017" result="effect3_dropShadow_1_2017"/>
<feColorMatrix in="SourceAlpha" type="matrix" values="0 0 0 0 0 0 0 0 0 0 0 0 0 0 0 0 0 0 127 0" result="hardAlpha"/>
<feOffset dx="-4" dy="8"/>
<feGaussianBlur stdDeviation="10"/>
<feColorMatrix type="matrix" values="0 0 0 0 0 0 0 0 0 0 0 0 0 0 0 0 0 0 0.04 0"/>
<feBlend mode="normal" in2="effect3_dropShadow_1_2017" result="effect4_dropShadow_1_2017"/>
<feColorMatrix in="SourceAlpha" type="matrix" values="0 0 0 0 0 0 0 0 0 0 0 0 0 0 0 0 0 0 127 0" result="hardAlpha"/>
<feOffset dx="-6" dy="8"/>
<feGaussianBlur stdDeviation="48"/>
<feColorMatrix type="matrix" values="0 0 0 0 0 0 0 0 0 0 0 0 0 0 0 0 0 0 0.04 0"/>
<feBlend mode="normal" in2="effect4_dropShadow_1_2017" result="effect5_dropShadow_1_2017"/>
<feBlend mode="normal" in="SourceGraphic" in2="effect5_dropShadow_1_2017" result="shape"/>
</filter>
<filter id="filter8_ddddd_1_2017" x="336.5" y="23.6772" width="224" height="224" filterUnits="userSpaceOnUse" color-interpolation-filters="sRGB">
<feFlood flood-opacity="0" result="BackgroundImageFix"/>
<feColorMatrix in="SourceAlpha" type="matrix" values="0 0 0 0 0 0 0 0 0 0 0 0 0 0 0 0 0 0 127 0" result="hardAlpha"/>
<feOffset dy="-4"/>
<feGaussianBlur stdDeviation="6"/>
<feColorMatrix type="matrix" values="0 0 0 0 0 0 0 0 0 0 0 0 0 0 0 0 0 0 0.04 0"/>
<feBlend mode="normal" in2="BackgroundImageFix" result="effect1_dropShadow_1_2017"/>
<feColorMatrix in="SourceAlpha" type="matrix" values="0 0 0 0 0 0 0 0 0 0 0 0 0 0 0 0 0 0 127 0" result="hardAlpha"/>
<feOffset dx="-1" dy="4"/>
<feGaussianBlur stdDeviation="12"/>
<feColorMatrix type="matrix" values="0 0 0 0 0 0 0 0 0 0 0 0 0 0 0 0 0 0 0.04 0"/>
<feBlend mode="normal" in2="effect1_dropShadow_1_2017" result="effect2_dropShadow_1_2017"/>
<feColorMatrix in="SourceAlpha" type="matrix" values="0 0 0 0 0 0 0 0 0 0 0 0 0 0 0 0 0 0 127 0" result="hardAlpha"/>
<feOffset dx="-2" dy="4"/>
<feGaussianBlur stdDeviation="5"/>
<feColorMatrix type="matrix" values="0 0 0 0 0 0 0 0 0 0 0 0 0 0 0 0 0 0 0.08 0"/>
<feBlend mode="normal" in2="effect2_dropShadow_1_2017" result="effect3_dropShadow_1_2017"/>
<feColorMatrix in="SourceAlpha" type="matrix" values="0 0 0 0 0 0 0 0 0 0 0 0 0 0 0 0 0 0 127 0" result="hardAlpha"/>
<feOffset dx="-4" dy="8"/>
<feGaussianBlur stdDeviation="10"/>
<feColorMatrix type="matrix" values="0 0 0 0 0 0 0 0 0 0 0 0 0 0 0 0 0 0 0.04 0"/>
<feBlend mode="normal" in2="effect3_dropShadow_1_2017" result="effect4_dropShadow_1_2017"/>
<feColorMatrix in="SourceAlpha" type="matrix" values="0 0 0 0 0 0 0 0 0 0 0 0 0 0 0 0 0 0 127 0" result="hardAlpha"/>
<feOffset dx="-6" dy="8"/>
<feGaussianBlur stdDeviation="48"/>
<feColorMatrix type="matrix" values="0 0 0 0 0 0 0 0 0 0 0 0 0 0 0 0 0 0 0.04 0"/>
<feBlend mode="normal" in2="effect4_dropShadow_1_2017" result="effect5_dropShadow_1_2017"/>
<feBlend mode="normal" in="SourceGraphic" in2="effect5_dropShadow_1_2017" result="shape"/>
</filter>
<filter id="filter9_ddddd_1_2017" x="388.5" y="23.6772" width="224" height="224" filterUnits="userSpaceOnUse" color-interpolation-filters="sRGB">
<feFlood flood-opacity="0" result="BackgroundImageFix"/>
<feColorMatrix in="SourceAlpha" type="matrix" values="0 0 0 0 0 0 0 0 0 0 0 0 0 0 0 0 0 0 127 0" result="hardAlpha"/>
<feOffset dy="-4"/>
<feGaussianBlur stdDeviation="6"/>
<feColorMatrix type="matrix" values="0 0 0 0 0 0 0 0 0 0 0 0 0 0 0 0 0 0 0.04 0"/>
<feBlend mode="normal" in2="BackgroundImageFix" result="effect1_dropShadow_1_2017"/>
<feColorMatrix in="SourceAlpha" type="matrix" values="0 0 0 0 0 0 0 0 0 0 0 0 0 0 0 0 0 0 127 0" result="hardAlpha"/>
<feOffset dx="-1" dy="4"/>
<feGaussianBlur stdDeviation="12"/>
<feColorMatrix type="matrix" values="0 0 0 0 0 0 0 0 0 0 0 0 0 0 0 0 0 0 0.04 0"/>
<feBlend mode="normal" in2="effect1_dropShadow_1_2017" result="effect2_dropShadow_1_2017"/>
<feColorMatrix in="SourceAlpha" type="matrix" values="0 0 0 0 0 0 0 0 0 0 0 0 0 0 0 0 0 0 127 0" result="hardAlpha"/>
<feOffset dx="-2" dy="4"/>
<feGaussianBlur stdDeviation="5"/>
<feColorMatrix type="matrix" values="0 0 0 0 0 0 0 0 0 0 0 0 0 0 0 0 0 0 0.08 0"/>
<feBlend mode="normal" in2="effect2_dropShadow_1_2017" result="effect3_dropShadow_1_2017"/>
<feColorMatrix in="SourceAlpha" type="matrix" values="0 0 0 0 0 0 0 0 0 0 0 0 0 0 0 0 0 0 127 0" result="hardAlpha"/>
<feOffset dx="-4" dy="8"/>
<feGaussianBlur stdDeviation="10"/>
<feColorMatrix type="matrix" values="0 0 0 0 0 0 0 0 0 0 0 0 0 0 0 0 0 0 0.04 0"/>
<feBlend mode="normal" in2="effect3_dropShadow_1_2017" result="effect4_dropShadow_1_2017"/>
<feColorMatrix in="SourceAlpha" type="matrix" values="0 0 0 0 0 0 0 0 0 0 0 0 0 0 0 0 0 0 127 0" result="hardAlpha"/>
<feOffset dx="-6" dy="8"/>
<feGaussianBlur stdDeviation="48"/>
<feColorMatrix type="matrix" values="0 0 0 0 0 0 0 0 0 0 0 0 0 0 0 0 0 0 0.04 0"/>
<feBlend mode="normal" in2="effect4_dropShadow_1_2017" result="effect5_dropShadow_1_2017"/>
<feBlend mode="normal" in="SourceGraphic" in2="effect5_dropShadow_1_2017" result="shape"/>
</filter>
<linearGradient id="paint0_linear_1_2017" x1="36.7078" y1="118.633" x2="36.3669" y2="123.274" gradientUnits="userSpaceOnUse">
<stop stop-color="white" stop-opacity="0.65"/>
<stop offset="1" stop-color="white" stop-opacity="0.01"/>
</linearGradient>
<linearGradient id="paint1_linear_1_2017" x1="39.1989" y1="121.289" x2="41.5989" y2="123.392" gradientUnits="userSpaceOnUse">
<stop stop-opacity="0.01"/>
<stop offset="1" stop-opacity="0.4"/>
</linearGradient>
<linearGradient id="paint2_linear_1_2017" x1="38.2369" y1="123.721" x2="40.7772" y2="121.355" gradientUnits="userSpaceOnUse">
<stop stop-opacity="0.01"/>
<stop offset="1" stop-opacity="0.4"/>
</linearGradient>
<linearGradient id="paint3_linear_1_2017" x1="35.0035" y1="116.816" x2="25.1366" y2="128.185" gradientUnits="userSpaceOnUse">
<stop stop-color="#B8D26E"/>
<stop offset="1" stop-color="#7FB525"/>
</linearGradient>
<linearGradient id="paint4_linear_1_2017" x1="32.3935" y1="127.243" x2="27.9538" y2="138.055" gradientUnits="userSpaceOnUse">
<stop stop-color="white"/>
<stop offset="1" stop-color="#CECEEB"/>
</linearGradient>
<linearGradient id="paint5_linear_1_2017" x1="34.6852" y1="121.89" x2="33.8652" y2="122.595" gradientUnits="userSpaceOnUse">
<stop stop-opacity="0.01"/>
<stop offset="1" stop-opacity="0.4"/>
</linearGradient>
<linearGradient id="paint6_linear_1_2017" x1="39.5759" y1="120.028" x2="38.4094" y2="120.656" gradientUnits="userSpaceOnUse">
<stop stop-opacity="0.01"/>
<stop offset="1" stop-opacity="0.4"/>
</linearGradient>
<linearGradient id="paint7_linear_1_2017" x1="48.5002" y1="119.663" x2="43.0851" y2="119.763" gradientUnits="userSpaceOnUse">
<stop stop-color="#B4E034"/>
<stop offset="1" stop-color="#60A927"/>
</linearGradient>
<linearGradient id="paint8_linear_1_2017" x1="38.7592" y1="153.869" x2="45.7908" y2="153.854" gradientUnits="userSpaceOnUse">
<stop stop-color="#1D1D1B" stop-opacity="0.5"/>
<stop offset="0.038033" stop-color="#1D1D1B" stop-opacity="0.4837"/>
<stop offset="0.4243" stop-color="#1D1D1B" stop-opacity="0.3185"/>
<stop offset="1" stop-color="#1D1D1B" stop-opacity="0.01"/>
</linearGradient>
<linearGradient id="paint9_linear_1_2017" x1="42.6841" y1="136.127" x2="42.7671" y2="137.221" gradientUnits="userSpaceOnUse">
<stop stop-opacity="0.01"/>
<stop offset="1" stop-opacity="0.4"/>
</linearGradient>
<linearGradient id="paint10_linear_1_2017" x1="40.7458" y1="134.525" x2="40.9382" y2="137.37" gradientUnits="userSpaceOnUse">
<stop stop-color="white" stop-opacity="0.5"/>
<stop offset="0.0896271" stop-color="white" stop-opacity="0.4552"/>
<stop offset="1" stop-color="white" stop-opacity="0.01"/>
</linearGradient>
<linearGradient id="paint11_linear_1_2017" x1="40.3756" y1="134.967" x2="40.718" y2="138.006" gradientUnits="userSpaceOnUse">
<stop stop-opacity="0.01"/>
<stop offset="1" stop-opacity="0.4"/>
</linearGradient>
<linearGradient id="paint12_linear_1_2017" x1="40.7267" y1="144.022" x2="48.4771" y2="144.038" gradientUnits="userSpaceOnUse">
<stop stop-color="#1D1D1B" stop-opacity="0.5"/>
<stop offset="0.0896271" stop-color="#1D1D1B" stop-opacity="0.4552"/>
<stop offset="1" stop-color="#1D1D1B" stop-opacity="0.01"/>
</linearGradient>
<linearGradient id="paint13_linear_1_2017" x1="46.2765" y1="121.057" x2="45.1756" y2="121.327" gradientUnits="userSpaceOnUse">
<stop stop-color="white" stop-opacity="0.4"/>
<stop offset="1" stop-color="white" stop-opacity="0.01"/>
</linearGradient>
<linearGradient id="paint14_linear_1_2017" x1="39.0325" y1="117.48" x2="30.2515" y2="122.559" gradientUnits="userSpaceOnUse">
<stop stop-color="white" stop-opacity="0.5"/>
<stop offset="1" stop-color="white" stop-opacity="0.01"/>
</linearGradient>
<linearGradient id="paint15_linear_1_2017" x1="36.3988" y1="137.541" x2="36.9713" y2="134.781" gradientUnits="userSpaceOnUse">
<stop stop-color="#1D1D1B" stop-opacity="0.5"/>
<stop offset="0.0896271" stop-color="#1D1D1B" stop-opacity="0.4552"/>
<stop offset="1" stop-color="#1D1D1B" stop-opacity="0.01"/>
</linearGradient>
<linearGradient id="paint16_linear_1_2017" x1="39.7087" y1="153.517" x2="46.7655" y2="153.524" gradientUnits="userSpaceOnUse">
<stop stop-color="#1D1D1B" stop-opacity="0.5"/>
<stop offset="1" stop-color="#1D1D1B" stop-opacity="0.01"/>
</linearGradient>
<linearGradient id="paint17_linear_1_2017" x1="33.2605" y1="119.283" x2="29.838" y2="132.432" gradientUnits="userSpaceOnUse">
<stop stop-color="white" stop-opacity="0.5"/>
<stop offset="1" stop-color="white" stop-opacity="0.01"/>
</linearGradient>
<linearGradient id="paint18_linear_1_2017" x1="33.2605" y1="119.283" x2="29.838" y2="132.432" gradientUnits="userSpaceOnUse">
<stop stop-color="white" stop-opacity="0.5"/>
<stop offset="1" stop-color="white" stop-opacity="0.01"/>
</linearGradient>
<linearGradient id="paint19_linear_1_2017" x1="41.5658" y1="133.067" x2="38.8607" y2="136.79" gradientUnits="userSpaceOnUse">
<stop stop-color="white" stop-opacity="0.5"/>
<stop offset="0.0896271" stop-color="white" stop-opacity="0.4552"/>
<stop offset="1" stop-color="white" stop-opacity="0.01"/>
</linearGradient>
<linearGradient id="paint20_linear_1_2017" x1="42.3822" y1="133.923" x2="42.1144" y2="134.523" gradientUnits="userSpaceOnUse">
<stop stop-opacity="0.01"/>
<stop offset="1" stop-opacity="0.4"/>
</linearGradient>
<linearGradient id="paint21_linear_1_2017" x1="45.0384" y1="134.717" x2="45.0252" y2="134.878" gradientUnits="userSpaceOnUse">
<stop stop-opacity="0.01"/>
<stop offset="1" stop-opacity="0.4"/>
</linearGradient>
<linearGradient id="paint22_linear_1_2017" x1="35.2975" y1="117.641" x2="34.128" y2="122.261" gradientUnits="userSpaceOnUse">
<stop stop-color="white" stop-opacity="0.65"/>
<stop offset="1" stop-color="white" stop-opacity="0.01"/>
</linearGradient>
<linearGradient id="paint23_linear_1_2017" x1="36.6143" y1="123.352" x2="39.4251" y2="120.465" gradientUnits="userSpaceOnUse">
<stop stop-opacity="0.01"/>
<stop offset="1" stop-opacity="0.4"/>
</linearGradient>
<linearGradient id="paint24_linear_1_2017" x1="37.9146" y1="120.306" x2="39.9489" y2="122.374" gradientUnits="userSpaceOnUse">
<stop stop-opacity="0.01"/>
<stop offset="1" stop-opacity="0.4"/>
</linearGradient>
<linearGradient id="paint25_linear_1_2017" x1="410.893" y1="129.404" x2="392.312" y2="125.015" gradientUnits="userSpaceOnUse">
<stop stop-color="#3BCC50"/>
<stop offset="0.489583" stop-color="#2ABAD6"/>
<stop offset="1" stop-color="#7DCFE7"/>
</linearGradient>
<linearGradient id="paint26_linear_1_2017" x1="399.368" y1="122.648" x2="399.368" y2="137.178" gradientUnits="userSpaceOnUse">
<stop stop-color="#035989"/>
<stop offset="0.265625" stop-color="#1175B6"/>
<stop offset="1" stop-color="#0470CF"/>
</linearGradient>
<radialGradient id="paint27_radial_1_2017" cx="0" cy="0" r="1" gradientTransform="matrix(3.29279 5.52684 -5.54575 3.28156 399.065 129.708)" gradientUnits="userSpaceOnUse">
<stop stop-color="#1284D8"/>
<stop offset="0.813899" stop-color="#1170B2" stop-opacity="0.767762"/>
<stop offset="1" stop-color="#0E649B" stop-opacity="0.65"/>
</radialGradient>
<radialGradient id="paint28_radial_1_2017" cx="0" cy="0" r="1" gradientTransform="matrix(1.08315 5.09506 -5.50241 1.16179 404.308 131.477)" gradientUnits="userSpaceOnUse">
<stop stop-color="#104890"/>
<stop offset="0.69943" stop-color="#12529E" stop-opacity="0.70624"/>
<stop offset="1" stop-color="#0E4584" stop-opacity="0.58"/>
</radialGradient>
<linearGradient id="paint29_linear_1_2017" x1="455.512" y1="136.55" x2="447.331" y2="122.38" gradientUnits="userSpaceOnUse">
<stop stop-color="#1E8E3E"/>
<stop offset="1" stop-color="#34A853"/>
</linearGradient>
<linearGradient id="paint30_linear_1_2017" x1="453.112" y1="137.165" x2="461.293" y2="122.995" gradientUnits="userSpaceOnUse">
<stop stop-color="#FCC934"/>
<stop offset="1" stop-color="#FBBC04"/>
</linearGradient>
<linearGradient id="paint31_linear_1_2017" x1="446.309" y1="124.151" x2="462.671" y2="124.151" gradientUnits="userSpaceOnUse">
<stop stop-color="#D93025"/>
<stop offset="1" stop-color="#EA4335"/>
</linearGradient>
<linearGradient id="paint32_linear_1_2017" x1="500.297" y1="134.271" x2="515.672" y2="128.196" gradientUnits="userSpaceOnUse">
<stop stop-color="#1C7DFF"/>
<stop offset="0.52021" stop-color="#1C69FF"/>
<stop offset="1" stop-color="#F0DCD6"/>
</linearGradient>
<clipPath id="clip0_1_2017">
<rect width="545" height="167.677" fill="white"/>
</clipPath>
<clipPath id="clip1_1_2017">
<rect width="19" height="19" fill="white" transform="translate(445 118.177)"/>
</clipPath>
</defs>
</svg>
